<svg xmlns="http://www.w3.org/2000/svg" fill="currentColor" width="1em" height="1em" viewBox="0 0 16 16"><path d="M14.29 15.164c-3.385 0.048-6.924-0.597-9.632-2.773a0.082 0.082 0 0 1-0.025-0.062 0.089 0.089 0 0 1 0.089-0.089H7.396c0.124 0 0.235-0.107 0.234-0.235 0-0.098-0.044-0.165-0.149-0.217L5.067 10.64a0.16 0.16 0 0 1-0.075-0.135c0-0.044 0.018-0.084 0.044-0.112 0 0 2.94-2.599 9.254-2.542V15.164zM8.629 11.044a0.569 0.569 0 1 0 0-1.142 0.569 0.569 0 0 0 0 1.143zM13.003 2.204c-2.094 0.023-4.142 0.916-6.436 2.799l-0.274-0.075a0.661 0.661 0 0 0-0.661 0.658l0.041 0.201-1.849 1.742-1.579 1.484a0.747 0.747 0 1 1-1.004-1.102l0.208-0.119 0.076 0.548 1.286-1.636-1.419 0.48a1.205 1.205 0 0 0-0.533 0.329A1.298 1.298 0 1 0 2.613 9.422l0.015-0.014 1.493-1.422 1.909-1.806 0.263 0.067a0.658 0.658 0 0 0 0.658-0.658l-0.03-0.167c2.222-1.828 4.16-2.693 6.107-2.716 0.398-0.004 0.718 0.05 1.244 0.16l0.107 0.025V2.37l-0.071-0.014A5.467 5.467 0 0 0 13.001 2.204" fill-rule="evenodd" /></svg>