<svg xmlns="http://www.w3.org/2000/svg" fill="currentColor" width="1em" height="1em" viewBox="0 0 16 16"><path d="M2.752 7.711c0.292 0 0.539-0.241 0.539-0.533 0-0.293-0.247-0.534-0.539-0.534-0.289 0-0.539 0.241-0.539 0.534 0 0.292 0.249 0.533 0.539 0.533M0.016 8.499a0.062 0.062 0 0 1-0.016-0.04c0-0.03 0.028-0.054 0.058-0.055h1.705c0.082 0 0.149-0.066 0.149-0.148 0-0.064-0.028-0.107-0.091-0.143L0.279 7.379a0.097 0.097 0 0 1-0.048-0.086c0-0.026 0.008-0.05 0.028-0.071 0 0 4.046-3.576 13.009-0.11l2.461-1.2c0.024-0.012 0.052-0.02 0.078-0.02 0.107 0 0.193 0.086 0.193 0.193a0.208 0.208 0 0 1-0.028 0.098l-1.451 1.807 1.451 1.801c0.016 0.032 0.028 0.064 0.028 0.103 0 0.102-0.086 0.189-0.193 0.189-0.026 0-0.054-0.008-0.078-0.02l-2.461-1.2S4.701 12.264 0.016 8.499" fill-rule="evenodd" /></svg>