<svg xmlns="http://www.w3.org/2000/svg" fill="currentColor" width="1em" height="1em" viewBox="0 0 16 16"><path d="M13.891 2.875V7.063c0 1.026-0.306 1.976-0.844 2.77a2.164 2.164 0 0 1 0.298 0.498A1.58 1.58 0 0 1 13.061 12.04L10.92 14.261c-0.036 0.048-0.089 0.093-0.151 0.119a0.351 0.351 0 0 1-0.465-0.182 0.346 0.346 0 0 1-0.018-0.239l0.448-2.265a5.023 5.023 0 0 1-1.815 0.338l-4.809-0.005c1.288 0.879 1.288 2.589 1.283 2.62-0.009 0.12-0.022 0.208-0.057 0.315-0.049 0.138-0.138 0.289-0.342 0.226l-2.924-2.299C0.729 11.929-0.417 10.34 0.147 8.706c0.391-1.115 1.501-1.581 2.584-1.772l6.095-1.226L11.48 0.935c0.325-0.564 1.177-0.972 1.745-0.932 0.573 0.04 0.986 0.195 1.39 0.546l1.314 0.28c0.138 0.009 0.24 0.124 0.231 0.262l-0.146 0.532c-0.049 0.12-0.102 0.208-0.213 0.285l-1.91 0.968z" /></svg>