<svg xmlns="http://www.w3.org/2000/svg" fill="currentColor" width="1em" height="1em" viewBox="0 0 16 16"><path d="M7.824 5.835l3.947-4.08-0.12 1.058 1.933 1.299a0.667 0.667 0 0 1 0.256 0.915 0.659 0.659 0 0 1-0.699 0.328l-0.16-0.032a1.733 1.733 0 0 1-2.138 1.253l-1.475 3.005L9.36 13.707a0.64 0.64 0 0 1-1.28 0V9.48H4.843l-0.579 0.995 1.211 2.898a0.64 0.64 0 0 1-1.112 0.635L2.941 10.667v-1.056l-0.634 0.994V13.707a0.64 0.64 0 0 1-1.288 0V10.123l0.533-0.827V6.48l-0.533 0.808v2.347h-1.014v-2.374c0-0.787 0.64-1.427 1.43-1.426h6.389z m4.811-0.579L11.6 5.067l-0.595 1.184a1.365 1.365 0 0 0 1.632-0.995h-0.005z" fill-rule="evenodd" /></svg>