<svg xmlns="http://www.w3.org/2000/svg" fill="currentColor" width="1em" height="1em" viewBox="0 0 16 16"><path d="M11.555 2.354h1.45a0.35 0.35 0 0 1 0 0.7h-1.435c-0.092 0-0.184 0.03-0.253 0.099-0.107 0.111-0.134 0.268-0.072 0.398 0.053 0.115 0.126 0.234 0.206 0.333l0.826-0.004c0.061 0.004 0.13 0.019 0.187 0.05l1.944 1.041c0.16 0.099 0.271 0.278 0.271 0.482a0.569 0.569 0 0 1-0.57 0.569h-1.267L11.144 10.19l-1.09 1.091v3.987c0 0.402-0.329 0.731-0.735 0.732s-0.731-0.329-0.731-0.732V10.979H5.646l-0.662 1.007 1.627 2.832c0.199 0.352 0.073 0.8-0.28 0.998-0.352 0.199-0.8 0.073-0.998-0.279L3.664 12.674v-1.27l-0.83 1.114v2.698c0 0.406-0.329 0.731-0.735 0.73a0.731 0.731 0 0 1-0.731-0.73L1.364 12.357l0.685-1.087v-1.294L1.517 10.807a0.08 0.08 0 0 1-0.077 0.05 0.081 0.081 0 0 1-0.08-0.081v-2.881c0.027-0.566 0.501-1.037 1.071-1.037h7.206l1.145-1.76-0.95-0.946a0.142 0.142 0 0 1-0.049-0.107c0-0.084 0.065-0.149 0.145-0.149l0.693 0.004a2.742 2.742 0 0 1-0.272-1.187C10.349 1.216 11.566 0 13.066 0c0.195 0 0.352 0.157 0.352 0.352 0 0.192-0.157 0.356-0.352 0.356-1.026 0-1.875 0.773-1.99 1.768 0.142-0.08 0.302-0.123 0.479-0.123z" /></svg>