<svg xmlns="http://www.w3.org/2000/svg" fill="currentColor" width="1em" height="1em" viewBox="0 0 16 16"><path d="M9.673 10.82c0.354 0 0.64-0.288 0.64-0.639a0.638 0.638 0 0 0-0.64-0.638 0.637 0.637 0 0 0-0.636 0.638c0 0.352 0.286 0.64 0.636 0.639M16 15.424c-3.78 0.056-7.736-0.668-10.769-3.101-0.014-0.02-0.026-0.04-0.026-0.07 0-0.056 0.046-0.101 0.106-0.101l2.981 0.005c0.147 0 0.262-0.117 0.263-0.264 0-0.109-0.05-0.182-0.164-0.24L5.694 10.362a0.169 0.169 0 0 1-0.085-0.151c0-0.05 0.02-0.094 0.049-0.123 0 0 3.29-2.908 10.342-2.843V15.424zM2.842 0H0v2.306h2.842V0zM16 0H5.887v2.278H16V0zM4.182 3.522c-0.25 0.082-0.431 0.322-0.432 0.602 0 0.278 0.185 0.519 0.432 0.608v3.942a0.911 0.911 0 0 1-0.914 0.916 0.912 0.912 0 0 1-0.913-0.917 0.88 0.88 0 0 1 0.072-0.353l0.037 0.032 0.323 0.294L2.586 6.848l-0.525 1.211c-0.159 0.373-0.121 0.614-0.121 0.614 0 0.733 0.594 1.331 1.328 1.331 0.738 0 1.33-0.598 1.329-1.331V4.725c0.249-0.088 0.428-0.326 0.428-0.601a0.65 0.65 0 0 0-0.428-0.61V0h-0.415v3.522z" /></svg>