<svg xmlns="http://www.w3.org/2000/svg" fill="currentColor" width="1em" height="1em" viewBox="0 0 16 16"><path d="M14.643 3.297L12.92 2.57c-0.7-0.265-0.057-0.792-0.963-1.24-0.4-0.19-1.898-0.515-1.898-0.515-0.352-0.122-1.376 0.23-1.376 0.935 0 0.7-0.172 0.755-0.172 0.755-0.734 1.576-0.294 0.874-0.645 2.42-0.014 0.08-0.06 0.295-0.265 0.7C6.875 7.06 5 8.704 3.398 9.627c-1.87 1.09-1.84 3.95-1.84 3.95-1.372-0.09-1.344-2.16-1.344-2.16-0.992 2.54 1.784 3.238 1.784 3.238 0.67 0.67 1.984 0.498 1.984 0.498 0.498-0.064 0.555 0.025 0.555 0.025s0.06 0.268 0.877 0.293c0.817 0.03 1.547-0.054 1.898 0.122 0.35 0.164 1.11 0.2 1.11 0.2 0.556 0.147 0.495-0.47 0.495-0.47-0.29-0.67-0.992-0.608-0.992-0.608l-1.372-0.06c1.927-0.61 1.604-1.748 1.604-1.748-0.168-0.646-0.77-0.75-1.192-0.764-0.068-0.007 0-0.086 0-0.086 1.178-0.34 2.245-1.117 2.245-1.117-0.028 0.587 0.527 1.49 0.788 1.9 0.265 0.413 0.702 2.078 0.702 2.078 0.322 0.352 0.437 0.646 0.437 0.646 0.265 0.175 1.17 0.14 1.17 0.14 0.234-0.03 0.29-0.11 0.29-0.11l0.033-0.564c-0.15-0.64-0.877-0.64-0.877-0.64l-0.763-3.267c-0.086-0.526 0.294-1.17 0.294-1.17 0.44-1.397-0.32-2.834-0.32-2.834-0.088-0.206 0.263-0.206 0.263-0.206s0.204-0.094 0.702-0.262c0.493-0.172 0.23-0.788 0.23-0.788l-0.264-0.873c-0.086-0.408 0.734 0.054 0.734 0.054 0.874 0.498 1.576-0.236 1.752-0.376 0.175-0.147 0.118-0.322 0.494-0.673 0.38-0.348-0.233-0.698-0.233-0.698" fill-rule="evenodd" /></svg>