<svg xmlns="http://www.w3.org/2000/svg" fill="currentColor" width="1em" height="1em" viewBox="0 0 16 16"><path d="M14.991 15.084c-0.313 0-0.611-0.07-0.876-0.189a2.134 2.134 0 0 0-1.812 0c-0.265 0.119-0.567 0.189-0.876 0.189-0.313 0-0.615-0.07-0.88-0.189a2.116 2.116 0 0 0-1.808 0 2.124 2.124 0 0 1-1.76 0 2.132 2.132 0 0 0-1.807 0 2.128 2.128 0 0 1-1.752 0 2.132 2.132 0 0 0-1.81 0c-0.268 0.119-0.567 0.189-0.878 0.189v-1.317c0.313 0 0.611-0.073 0.878-0.192a2.225 2.225 0 0 1 0.905-0.198c0.32 0 0.631 0.073 0.906 0.198 0.262 0.121 0.561 0.192 0.873 0.192 0.313 0 0.611-0.073 0.878-0.192a2.225 2.225 0 0 1 0.905-0.198c0.32 0 0.631 0.073 0.906 0.198a2.118 2.118 0 0 0 1.756 0c0.273-0.124 0.582-0.198 0.902-0.198 0.323 0 0.631 0.073 0.906 0.198 0.265 0.121 0.567 0.192 0.88 0.192 0.308 0 0.611-0.073 0.877-0.192 0.273-0.124 0.582-0.198 0.906-0.198 0.32 0 0.628 0.073 0.908 0.198 0.265 0.121 0.563 0.192 0.875 0.192v1.318zM9.231 12.364c0.135-0.029 0.269-0.041 0.41-0.041 0.32 0 0.63 0.073 0.904 0.198a2.143 2.143 0 0 0 1.756 0c0.189-0.087 0.393-0.153 0.608-0.182-0.116-3.532-3.802-6.685-3.977-6.848a0.95 0.95 0 0 1-0.228-0.946l0.88-2.912c0.156-0.451 0.077-1.055-0.138-1.236-0.124-0.099-0.388-0.17-0.565 0.034l-2.385 2.701c-0.519 0.556-0.083 1.149-0.095 1.144-0.809-0.291-1.76-0.097-2.337 0.141l-1.968 0.998c-0.195 0.083-0.279 0.33-0.175 0.498 0.324 0.521 1.408 0.524 3.666 0.279C9.229 5.804 9.236 11.647 9.229 12.364" fill-rule="evenodd" /></svg>