<svg xmlns="http://www.w3.org/2000/svg" fill="currentColor" width="1em" height="1em" viewBox="0 0 16 16"><path d="M1.689 7.893a2.738 2.738 0 0 1-0.445-1.226 0.652 0.652 0 0 1-0.16 0.023 0.64 0.64 0 0 1-0.355-1.174l1.836-1.28c0.386-0.235 0.836-0.38 1.323-0.396l4.56 0.014 3.333-0.533V3.271a0.601 0.601 0 0 1 1.204 0c0 0.053-0.005 0.11-0.018 0.16l0.308 0.041c0.356 0.071 0.628 0.388 0.627 0.764 0 0.025 0 0.046-0.003 0.068l0.99 0.533a0.391 0.391 0 0 1 0.213 0.516l-0.245 0.558a0.775 0.775 0 0 1-0.573 0.365l-2.275 0.27L9.963 8.942l1.169 2.02 0.774 0.359a0.466 0.466 0 0 1-0.263 0.85l-1.483 0.003c-0.382 0-0.711-0.213-0.878-0.528l-1.27-2.293-2.862 0.005 1.014 1.556 0.746 0.343a0.462 0.462 0 0 1 0.226 0.402 0.462 0.462 0 0 1-0.462 0.462l-1.488 0.005a0.999 0.999 0 0 1-0.854-0.487L2.933 9.429l-0.972 0.943-0.08 0.622 0.327 0.213c0.053 0.028 0.107 0.066 0.146 0.116a0.468 0.468 0 0 1-0.368 0.759L1.333 12.089A0.647 0.647 0 0 1 0.889 11.833l-0.761-1.316a0.987 0.987 0 0 1 0.139-1.12l1.422-1.507z" fill-rule="evenodd" /></svg>