<svg xmlns="http://www.w3.org/2000/svg" fill="currentColor" width="1em" height="1em" viewBox="0 0 16 16"><path d="M2.752 4.591c0.292 0 0.539-0.241 0.539-0.533 0-0.293-0.247-0.534-0.539-0.534-0.289 0-0.539 0.241-0.539 0.534 0 0.292 0.249 0.533 0.539 0.533M0.016 5.379a0.062 0.062 0 0 1-0.016-0.04c0-0.03 0.028-0.054 0.058-0.055h1.705c0.082 0 0.149-0.066 0.149-0.148 0-0.064-0.028-0.107-0.091-0.143L0.279 4.259a0.097 0.097 0 0 1-0.048-0.086c0-0.026 0.008-0.05 0.028-0.071 0 0 4.046-3.576 13.009-0.11l2.461-1.2c0.024-0.012 0.052-0.02 0.078-0.02 0.107 0 0.193 0.086 0.193 0.193a0.208 0.208 0 0 1-0.028 0.098l-1.451 1.807 1.451 1.801c0.016 0.032 0.028 0.064 0.028 0.103 0 0.102-0.086 0.189-0.193 0.189-0.026 0-0.054-0.008-0.078-0.02l-2.461-1.2S4.701 9.144 0.016 5.379m2.115 4.307c0.171 0 0.32-0.136 0.319-0.311 0-0.169-0.149-0.311-0.319-0.311-0.167 0-0.314 0.143-0.314 0.311 0 0.175 0.147 0.312 0.314 0.312m-1.212 0.179a0.03 0.03 0 0 1-0.008-0.016c0-0.014 0.012-0.022 0.028-0.023h0.679a0.062 0.062 0 0 0 0.058-0.059c0-0.026-0.012-0.042-0.036-0.054l-0.615-0.295a0.042 0.042 0 0 1-0.02-0.036c0-0.012 0.004-0.024 0.012-0.028 0 0 1.616-1.434 5.2-0.042l0.985-0.483a0.078 0.078 0 0 1 0.032-0.008c0.043 0 0.074 0.034 0.074 0.074 0 0.016-0.004 0.03-0.008 0.039l-0.58 0.723 0.58 0.722a0.138 0.138 0 0 1 0.008 0.04c0 0.042-0.032 0.078-0.074 0.079a0.076 0.076 0 0 1-0.032-0.008l-0.985-0.483c0 0.001-3.421 1.362-5.298-0.142m9.24-0.179a0.312 0.312 0 0 0 0.309-0.311c0-0.169-0.143-0.311-0.309-0.312a0.309 0.309 0 0 0-0.312 0.311c0 0.175 0.132 0.312 0.312 0.312m-1.214 0.179c-0.008-0.004-0.008-0.012-0.008-0.016 0-0.014 0.012-0.022 0.024-0.023h0.679a0.062 0.062 0 0 0 0.063-0.06c0-0.026-0.011-0.042-0.037-0.055l-0.618-0.293a0.042 0.042 0 0 1-0.02-0.036c0-0.012 0.004-0.024 0.013-0.028 0 0 1.622-1.434 5.206-0.042l0.98-0.483a0.115 0.115 0 0 1 0.037-0.008 0.077 0.077 0 0 1 0.074 0.074c0 0.016-0.004 0.03-0.012 0.038l-0.581 0.723 0.581 0.722a0.077 0.077 0 0 1 0.012 0.04c0 0.042-0.037 0.078-0.075 0.079a0.119 0.119 0 0 1-0.036-0.008l-0.981-0.483c0 0.001-3.427 1.362-5.301-0.142M6.173 12.687a0.312 0.312 0 0 0 0.311-0.313c0-0.169-0.141-0.312-0.311-0.312-0.175 0-0.316 0.142-0.316 0.311 0 0.175 0.141 0.314 0.316 0.314m-1.216 0.177c-0.004-0.004-0.004-0.006-0.004-0.014 0-0.012 0.008-0.024 0.024-0.024h0.677c0.035 0 0.064-0.028 0.064-0.059 0-0.024-0.013-0.044-0.04-0.056l-0.617-0.294a0.046 0.046 0 0 1-0.02-0.036c0-0.012 0.004-0.02 0.012-0.026 0 0 1.62-1.433 5.204-0.044l0.983-0.483c0.012-0.004 0.022-0.008 0.03-0.008a0.077 0.077 0 0 1 0.078 0.079 0.083 0.083 0 0 1-0.009 0.038l-0.584 0.725 0.583 0.722a0.086 0.086 0 0 1 0.01 0.04 0.078 0.078 0 0 1-0.078 0.073c-0.008 0-0.018-0.004-0.031-0.008l-0.983-0.478s-3.427 1.361-5.302-0.147" /></svg>