<svg xmlns="http://www.w3.org/2000/svg" fill="currentColor" width="1em" height="1em" viewBox="0 0 16 16"><path d="M6.038 10.472H10.08v3.613c0 0.594 0.479 1.073 1.073 1.073s1.066-0.479 1.066-1.073V10.472c0.322 0 0.358-0.207 0.358-0.451V7.323l-3.384-1.652H2.004l-0.923-0.526c-0.3-0.169-0.679-0.061-0.844 0.232a0.613 0.613 0 0 0 0.234 0.844l1.458 0.838v7.026a1.071 1.071 0 0 0 1.073 1.073c0.587 0 1.066-0.479 1.065-1.073v-2.754L6 14.607c0.309 0.508 0.966 0.673 1.467 0.372a1.073 1.073 0 0 0 0.372-1.466l-1.803-3.041z m3.484-5.538l3.047 1.452v-0.573h2.476l0.908-1.96L9.522 0.791v4.143z" fill-rule="evenodd" /></svg>