<svg xmlns="http://www.w3.org/2000/svg" fill="currentColor" width="1em" height="1em" viewBox="0 0 16 16"><path d="M5.485 13.99H0l0.004-1.074h5.481z m0-1.626H0l0.004-1.074h5.481z m0-1.631H0l0.004-1.074h5.481z m0-1.63H0l0.004-1.074h5.481zM7.707 2.567A0.665 0.665 0 0 0 7.097 2.16l-0.883 0.004V13.99h4.178L7.706 2.566zM5.485 7.473H0l0.004-1.07h5.481z m0-1.627H0l0.004-1.074h5.481z m0-1.63H0l0.004-1.074h5.481z m5.417 8.838a1.286 1.286 0 0 0 0.242 0.023 1.469 1.469 0 0 0 0.598-0.13 1.444 1.444 0 0 1 0.618-0.139c0.219 0 0.426 0.05 0.613 0.137 0.18 0.08 0.388 0.13 0.599 0.131s0.414-0.05 0.598-0.131a1.427 1.427 0 0 1 0.614-0.138 1.456 1.456 0 0 1 0.617 0.138 1.467 1.467 0 0 0 0.599 0.13v0.894a1.467 1.467 0 0 1-0.599-0.127 1.454 1.454 0 0 0-0.617-0.138 1.427 1.427 0 0 0-0.615 0.138 1.479 1.479 0 0 1-1.196 0 1.443 1.443 0 0 0-1.232 0 1.467 1.467 0 0 1-0.599 0.126h-0.035l-0.207-0.916z m-0.357-1.753c0.184 0.081 0.387 0.13 0.599 0.131a1.469 1.469 0 0 0 0.598-0.131 1.441 1.441 0 0 1 1.231 0c0.18 0.081 0.388 0.13 0.599 0.131s0.414-0.05 0.598-0.131a1.424 1.424 0 0 1 0.614-0.138 1.456 1.456 0 0 1 0.617 0.138 1.467 1.467 0 0 0 0.599 0.131v0.893a1.467 1.467 0 0 1-0.599-0.126 1.454 1.454 0 0 0-0.617-0.138 1.427 1.427 0 0 0-0.614 0.138c-0.184 0.08-0.388 0.126-0.598 0.126s-0.418-0.046-0.599-0.126a1.443 1.443 0 0 0-1.231 0 1.467 1.467 0 0 1-0.598 0.126 1.394 1.394 0 0 1-0.38-0.049l-0.219-0.975z" /></svg>