<svg xmlns="http://www.w3.org/2000/svg" fill="currentColor" width="1em" height="1em" viewBox="0 0 16 16"><path d="M0.012 7.384c0 0.014 0.006 0.028 0.007 0.042v-0.083c-0.002 0.013-0.007 0.026-0.007 0.041z" />,<path d="M4.128 6.119a0.536 0.536 0 1 0 1.071 0 0.536 0.536 0 1 0-1.071 0" />,<path d="M10.577 8.79zM13.953 12.705c-0.71 0-1.559-0.8-2.458-1.646a78.836 78.836 0 0 0-0.298-0.28l-0.305-1.305a0.574 0.574 0 0 0-1.133 0.085c-0.896-0.654-1.903-1.144-3.098-1.144v-5.147L3.229 1.338l-3.217 1.931v11.581h0.643V13.992h2.146v0.857h0.643V13.992h2.574v0.857h0.643V9.702c1.516 0 2.755 1.166 3.953 2.294 1.091 1.026 2.12 1.996 3.339 1.996h0.215v0.857h0.643V13.992h0.643v-1.287h-1.501zM2.8 13.562H0.657v-0.857h2.144v0.857z m0-1.287H0.657v-0.858h2.144v0.858z m0-1.287H0.657v-0.858h2.144v0.858z m3.217-2.574H5.357l-0.255-1.09a0.575 0.575 0 0 0-1.121 0.262l0.194 0.829H0.657V3.697h5.361v4.718z" /></svg>