<svg xmlns="http://www.w3.org/2000/svg" fill="currentColor" width="1em" height="1em" viewBox="0 0 16 16"><path d="M8.541 10.856h1.001v1H8.541zM8.243 14.859H10.041v-2.002h-2.001v2.002h0.201z" />,<path d="M14.225 9.282V3.277l-2.788 1.716v2.573h-1.067V4.125h-1.293V1.132h-3.432v4.899h-1.716v-1.682L2.536 3.492 1.142 4.349v3.003H0.07v7.507h3.216V9.103a1.501 1.501 0 0 1 3.004 0v1.184l-1.131 2.874h0.702v1.698h0.429v-2.127h-0.501l0.844-2.146 2.408-0.982 2.409 0.982 0.845 2.146h-0.501v2.127h0.846l2.872-0.001V9.282h-1.287z" /></svg>