<svg xmlns="http://www.w3.org/2000/svg" fill="currentColor" width="1em" height="1em" viewBox="0 0 16 16"><path d="M1.606 15.356H16v-1.494H3.101v-6.479L16 1.555V0L0 7.227v1.554l1.606-0.721z" />,<path d="M8.981 10.264H11.245v2.024c0 0.332 0.268 0.601 0.601 0.6s0.597-0.268 0.596-0.6V10.264c0.18 0 0.2-0.116 0.201-0.252V8.501l-1.895-0.925H6.722l-0.517-0.295c-0.168-0.094-0.38-0.034-0.472 0.13a0.344 0.344 0 0 0 0.131 0.473l0.818 0.469v3.935a0.6 0.6 0 0 0 0.601 0.601c0.329 0 0.597-0.268 0.596-0.601v-1.543l1.082 1.835c0.172 0.284 0.541 0.377 0.821 0.208a0.601 0.601 0 0 0 0.209-0.821l-1.01-1.703z m1.951-3.101l1.707 0.813v-0.32h1.386l0.509-1.098-3.602-1.715z" /></svg>