<svg xmlns="http://www.w3.org/2000/svg" fill="currentColor" width="1em" height="1em" viewBox="0 0 16 16"><path d="M10.549 7.445l2.631-2.72-0.08 0.706 1.289 0.866a0.444 0.444 0 0 1 0.171 0.61 0.439 0.439 0 0 1-0.466 0.218l-0.106-0.021a1.156 1.156 0 0 1-1.426 0.836l-0.983 2.003L11.573 12.693a0.427 0.427 0 0 1-0.853 0V9.876H8.562l-0.386 0.663 0.807 1.932a0.427 0.427 0 1 1-0.741 0.423L7.294 10.667v-0.704l-0.423 0.663V12.693a0.427 0.427 0 0 1-0.859 0V10.304l0.356-0.551V7.876l-0.356 0.538v1.565h-0.675v-1.583c0-0.524 0.427-0.951 0.953-0.951h4.259z m3.207-0.385L13.067 6.933l-0.397 0.79a0.91 0.91 0 0 0 1.088-0.663z" />,<path d="M2.324 6.677l-1.392 0.534v-1.351L14.804 0.569v1.347l-11.188 4.267 0.004 7.858h11.182v1.292h-12.48v-8.657z" /></svg>