<svg xmlns="http://www.w3.org/2000/svg" fill="currentColor" width="1em" height="1em" viewBox="0 0 16 16"><path d="M0.004 3.988L0 1.202l6.565 0.842 0.004 1.112L0.004 3.988zM16 1.202v2.786l-6.565-0.84V2.037L16 1.202z m-10.321 0.102a0.101 0.101 0 0 0-0.06 0.094c0 0.056 0.044 0.1 0.102 0.1H10.277a0.102 0.102 0 0 0 0.104-0.1c0-0.042-0.025-0.075-0.06-0.094L8 0 5.679 1.304zM11.534 15.175l-1.552-11.096h0.399c0.117 0 0.211-0.094 0.211-0.206 0-0.117-0.094-0.211-0.211-0.211H5.619c-0.117 0-0.212 0.094-0.211 0.211 0 0.112 0.094 0.206 0.211 0.206h0.398l-1.552 11.096H11.534z" /></svg>