<svg xmlns="http://www.w3.org/2000/svg" fill="currentColor" width="1em" height="1em" viewBox="0 0 16 16"><path d="M5.741 11.464a1.129 1.129 0 0 0 1.129-1.128 1.129 1.129 0 0 0-2.258 0 1.129 1.129 0 0 0 1.129 1.128z m9.513-1.61a0.897 0.897 0 0 1 0.899 0.89l0.004 2.371H9.149V9.854h6.105z" />,<path d="M1.623 15.405h14.538V13.896H3.132V8.18L16.161 2.293V0.727L0 8.022v1.57l1.623-0.728z" />,<path d="M7.424 12.003h-2.025a0.558 0.558 0 0 0-0.556 0.558c0 0.304 0.249 0.554 0.556 0.554h2.578a0.557 0.557 0 0 0 0.556-0.554V10.327a0.555 0.555 0 0 0-1.111 0l0.002 1.676z" /></svg>