<svg xmlns="http://www.w3.org/2000/svg" fill="currentColor" width="1em" height="1em" viewBox="0 0 16 16"><path d="M5.556 4.951h4.422V3.21H5.556v1.741z m3.942 4.073l-1.067 1.295L10.284 12.579l-0.786-3.554z m-0.283-1.286L8.873 6.182H6.662l-0.341 1.552 1.448 1.777 1.447-1.774z m-3.971 4.839L7.098 10.32l-1.069-1.295-0.785 3.552z m-0.495 2.232l-0.186 0.858-1.225-0.006 2.098-9.472-1.211-0.012v-3.447L7.767 1.137l3.541 1.589v3.447l-1.212 0.015 2.095 9.469-1.222 0.006-0.186-0.853L7.767 11.136 4.749 14.807z" fill-rule="evenodd" /></svg>