<svg xmlns="http://www.w3.org/2000/svg" fill="currentColor" width="1em" height="1em" viewBox="0 0 16 16"><path d="M0.608 0.571a0.105 0.105 0 0 1 0.042-0.142L1.412 0.013a0.104 0.104 0 0 1 0.143 0.042l0.305 0.558c1.157-0.347 2.439 0.146 3.041 1.249l-1.478 0.807c0.244 0.447 0.079 1.009-0.369 1.254a0.926 0.926 0 0 1-1.255-0.368L0.32 4.361C-0.283 3.259-0.006 1.915 0.914 1.13L0.608 0.571z m10.416 10.055H16V15.77H11.024z m-0.57 2.571H6.435c-0.7 0-1.27-0.569-1.27-1.269 0-0.702 0.57-1.27 1.27-1.27h4.019v2.539z m-8.664 1.03a0.515 0.515 0 0 1 0.514-0.514h8.15V15.77h-8.664v-1.543z" />,<path d="M1.81 11.665a1.535 1.532 0 1 0 3.07 0 1.535 1.532 0 1 0-3.07 0" />,<path d="M13.27 7.373l-0.863-2.458c-0.167-0.463-0.489-0.825-1.397-0.825H7.024c-0.908 0-1.23 0.362-1.397 0.825l-0.863 2.458c-0.064 0.159-0.098 0.516 0.254 0.754l2.03 1.337a0.642 0.642 0 1 0 0.708-1.072l-0.976-0.643-0.635-0.419 0.453-1.251h0.628l-0.368 1.015 1.223 0.806a1.222 1.222 0 0 1 0.529 0.781 1.222 1.222 0 0 1-0.178 0.927 1.24 1.24 0 0 1-0.261 0.282H9.864a1.26 1.26 0 0 1-0.261-0.282 1.226 1.226 0 0 1-0.179-0.927 1.225 1.225 0 0 1 0.529-0.781l1.224-0.806-0.369-1.014h0.628l0.454 1.25-0.635 0.42-0.976 0.642c-0.296 0.195-0.379 0.595-0.183 0.891s0.595 0.378 0.892 0.182l2.029-1.337c0.351-0.239 0.318-0.596 0.254-0.755zM9.414 1.684a0.607 0.607 0 0 1-0.551 0.352 0.608 0.608 0 0 1-0.552-0.352h-1.112a1.688 1.688 0 0 0-0.029 0.3c0 0.937 0.761 1.696 1.699 1.696 0.938 0 1.699-0.759 1.699-1.696 0-0.103-0.011-0.203-0.029-0.3h-1.125zM8.273 1.283a0.608 0.608 0 0 1 0.59-0.459A0.607 0.607 0 0 1 9.451 1.283h0.963c-0.267-0.587-0.858-0.996-1.545-0.996-0.687 0-1.278 0.409-1.546 0.996h0.95z" /></svg>