<svg xmlns="http://www.w3.org/2000/svg" fill="currentColor" width="1em" height="1em" viewBox="0 0 16 16"><path d="M8.221 6.211a0.931 0.931 0 0 1 1.171 0.604c0.156 0.489-0.114 1.013-0.604 1.171l-2.532 0.809a0.932 0.932 0 0 1-0.858-0.153l-1.047-0.819L6.625 16H0V5.61a1.111 1.111 0 0 1 1.111-1.111h1.657c0.236 0 0.454 0.075 0.633 0.215L6.158 6.87l2.063-0.659zM4.174 9.344h-1.005v-1.006h-1.199v1.006H0.969v1.203h1.001v1.001h1.199V10.547h1.005V9.344zM2.159 3.999c1.104 0 1.999-0.894 1.999-2C4.158 0.896 3.262 0 2.158 0S0.159 0.896 0.159 1.999c0 1.106 0.896 2 2 2m11.766 0.007c1.105 0 2.002-0.896 2.003-2.001C15.928 0.898 15.03 0 13.925 0c-1.106 0-2.003 0.898-2.002 2.005 0 1.105 0.896 2.002 2.002 2.001" />,<path d="M13.32 4.544c-0.819 0-1.191 0.28-1.502 0.766l-0.202 0.387-1.169-0.342 0.049-0.319-2.795-0.626-0.077 0.349-0.523-0.116 0.078-0.35-0.209-0.047-0.24 1.071 0.209 0.047 0.08-0.35 0.522 0.117-0.078 0.35 2.795 0.626 0.091-0.328 1.132 0.183-2.918 5.609a0.912 0.912 0 0 0 0.408 1.224c0.451 0.227 0.999 0.043 1.227-0.407l2.434-4.724h0.399v8.335h2.869V4.544H13.32z" /></svg>