<svg xmlns="http://www.w3.org/2000/svg" fill="currentColor" width="1em" height="1em" viewBox="0 0 16 16"><path d="M13.82 13.722c0.417-0.509 0.563-1.217 0.321-1.881l-0.22-0.607h1.332V0H0.8v11.234h7.773l0.847 2.326a1.922 1.922 0 0 0 1.455 1.234l0.399 1.206 3.335 0-0.789-2.278z m-1.212-6.07c-0.712 0.259-1.08 1.048-0.821 1.762l0.514 1.402H1.218V0.419h13.618v10.396h-1.07l-1.158-3.163z" />,<path d="M8.649 6.424v0.802H10.992c0.098 0 0.241 0.087 0.241 0.241 0 1.365-0.172 2.01-0.891 2.01-0.748 0-0.901-1.619-1.693-1.724v1.547h-1.253V7.75c-0.832 0.062-0.966 1.726-1.742 1.727-0.719 0-0.852-0.645-0.852-2.01 0-0.153 0.143-0.241 0.241-0.241h2.353v-0.802H4.96c-0.14 0-0.254-0.113-0.255-0.253s0.114-0.253 0.255-0.253h2.436V5.115h-2.742a0.254 0.254 0 0 1 0-0.507h2.742v-0.802h-2.574c-0.139 0-0.253-0.114-0.253-0.254 0-0.14 0.114-0.254 0.253-0.254h2.574V2.496h-2.016a0.254 0.254 0 0 1 0-0.508h2.016v-0.443h1.253v0.443h2.016c0.14 0 0.254 0.115 0.254 0.255S10.805 2.496 10.665 2.496h-2.016v0.802H11.23a0.254 0.254 0 0 1 0 0.508H8.649v0.802h2.75a0.254 0.254 0 0 1 0 0.507h-2.75v0.802h2.437a0.253 0.253 0 0 1 0 0.507h-2.437z" /></svg>