<svg xmlns="http://www.w3.org/2000/svg" fill="currentColor" width="1em" height="1em" viewBox="0 0 16 16"><path d="M2.115 12.192a1.05 1.05 0 1 1 0-2.1 1.05 1.05 0 0 1 0 2.1zM0 16V13.942c0-0.742 0.61-1.344 1.352-1.344h1.45c0.743 0 1.406 0.603 1.406 1.345V16H0z m13-3.897a1.051 1.051 0 0 0 1.05-1.05 1.05 1.05 0 0 0-2.099 0 1.05 1.05 0 0 0 1.051 1.049zM15.114 16V13.942c0-0.742-0.61-1.344-1.353-1.344h-1.448c-0.744 0-1.406 0.603-1.407 1.345V16h4.208z" />,<path d="M6.494 11.133a1.062 1.053 0 1 0 2.124 0 1.062 1.053 0 1 0-2.124 0" />,<path d="M4.998 16l0.836-2.277c0.335-1.163 1.31-1.128 1.309-1.127h0.828s0.974-0.036 1.309 1.127L10.116 16h-5.118z m2.558-7.25v-2.491l-0.414-0.414v2.49H0.885V0.414h6.257V4.483l0.414 0.414V0H0.474v8.75z" />,<path d="M3.953 2.116a0.558 0.558 0 0 0 0.558-0.558 0.558 0.558 0 0 0-0.558-0.558 0.558 0.558 0 0 0-0.558 0.558 0.558 0.558 0 0 0 0.559 0.558z m1.843 2.321l-0.458-1.557c-0.182-0.605-0.693-0.587-0.694-0.588H3.262s-0.511-0.018-0.693 0.588l-0.458 1.556a0.238 0.238 0 0 0 0.457 0.135l0.437-1.489v0l0.195 0V4.776l-0.77 2.642a0.326 0.326 0 0 0 0.313 0.418c0.142 0 0.272-0.092 0.314-0.235l0.76-2.608h0.27l0.76 2.608a0.326 0.326 0 0 0 0.405 0.222 0.327 0.327 0 0 0 0.221-0.405l-0.769-2.64v-1.696l0.194 0.001 0.001 0 0.437 1.489a0.238 0.238 0 0 0 0.457-0.135z m7.2-0.235a1.049 1.049 0 0 1-1.048-1.048c0-0.579 0.47-1.049 1.048-1.049a1.047 1.047 0 0 1 1.047 1.048 1.046 1.046 0 0 1-1.048 1.048z m0 1.559s0.254 0.033 0.409-0.183c0.141-0.197 0.151-0.85 0.153-0.968H12.432c-0.004 0.47 0.051 0.812 0.163 0.985 0.114 0.176 0.4 0.166 0.401 0.166z" />,<path d="M8.428 6.685c-0.038 0.063-0.099 0.192-0.099 0.274a0.441 0.441 0 0 0 0.442 0.441h1.454c0.165 0 0.382-0.066 0.474-0.205 0.314-0.464 0.643-0.952 0.741-1.099v2.749h3.661V6.026c0-0.737-0.576-1.4-1.256-1.401 0.002 0.346-0.044 0.92-0.247 1.172-0.211 0.257-0.461 0.235-0.461 0.235v1.072a0.365 0.365 0 0 1-0.139 0.703 0.365 0.365 0 0 1-0.365-0.366 0.365 0.365 0 0 1 0.224-0.337v-1.077s-0.218 0.018-0.423-0.188c-0.274-0.286-0.284-1.096-0.284-1.228h-0.066a1.343 1.343 0 0 0-1.119 0.598l-0.871 1.313-1.32-0.001L6.907 4.656a0.179 0.179 0 0 0-0.254 0 0.18 0.18 0 0 0 0 0.254l1.774 1.775z" /></svg>