<svg xmlns="http://www.w3.org/2000/svg" fill="currentColor" width="1em" height="1em" viewBox="0 0 16 16"><path d="M9.992 5.121c0 1.164-0.945 2.107-2.11 2.107-1.163 0-2.106-0.943-2.106-2.107 0-1.164 0.944-2.107 2.107-2.107 1.165 0 2.11 0.943 2.111 2.107z" />,<path d="M7.885 0c0.935 0 2.466 0.393 3.32 1.326L10.056 3.532a2.735 2.735 0 0 0-2.171-1.066 2.734 2.734 0 0 0-2.152 1.044L4.561 1.375C5.548 0.389 6.91 0 7.885 0z m-0.332 2.113h0.655V1.568h0.546V0.912h-0.546v-0.547h-0.655v0.547h-0.546V1.568h0.546v0.545z m-2.44 8.903h0.54L4.883 13.658h6.023l-0.768-2.642h0.54l0.772 2.641h1.773L12.013 9.654c-0.189-0.661-1.018-1.824-2.448-1.859l-3.287-0.003c-1.462 0.007-2.308 1.193-2.5 1.863L2.545 13.658h1.798l0.77-2.643zM0 14.5h15.767V16H0z" /></svg>