<svg xmlns="http://www.w3.org/2000/svg" fill="currentColor" width="1em" height="1em" viewBox="0 0 16 16"><path d="M2.325 8.986a1.069 1.069 0 0 1 1.071-1.07 1.07 1.07 0 0 1 0 2.14 1.07 1.07 0 0 1-1.071-1.07m10.341-0.655c0.471 0 0.851 0.369 0.856 0.837l0.001 2.257H4.93V8.333l7.737-0.002zM3.941 11.424a0.527 0.527 0 0 0 0.527-0.527 0.527 0.527 0 0 0-0.527-0.527H2.418a0.526 0.526 0 0 0-0.526 0.527 0.526 0.526 0 0 0 0.526 0.526h1.523z" />,<path d="M14.033 13.645V16h1.394V8.531a0.696 0.696 0 0 0-0.695-0.696 0.698 0.698 0 0 0-0.699 0.696v3.428H1.512V7.123c0-0.384-0.336-0.697-0.721-0.698C0.406 6.426 0.104 6.738 0.104 7.123V16h1.407V13.645h12.522zM9.614 0c0.446 0 1.177 0.187 1.583 0.632L10.65 1.685a1.305 1.305 0 0 0-1.036-0.509 1.303 1.303 0 0 0-1.027 0.499l-0.559-1.019C8.499 0.185 9.149 0 9.614 0M9.456 1.06h0.312V0.748h0.313V0.436h-0.313V0.123H9.456v0.313h-0.313v0.312H9.456v0.312z" />,<path d="M10.617 2.552a1.006 1.006 0 0 1-1.006 1.006 1.005 1.005 0 0 1-1.004-1.006c0-0.556 0.45-1.005 1.004-1.005s1.006 0.45 1.006 1.005M8.645 3.844c-0.703 0.004-1.11 0.574-1.202 0.897l-0.857 2.81h0.867l0.631-2.157h0.449L7.904 7.551h3.41L10.69 5.395h0.448l0.649 2.157h0.854L11.781 4.741c-0.091-0.318-0.49-0.878-1.178-0.895l-1.958-0.002z m-6.408 0.647C1.003 4.491 0 3.487 0 2.253 0 1.019 1.003 0.015 2.237 0.015S4.475 1.019 4.475 2.253c0 1.235-1.005 2.238-2.238 2.238m0-0.554c0.928 0 1.685-0.755 1.685-1.685 0-0.928-0.757-1.684-1.685-1.684-0.928 0-1.683 0.756-1.683 1.684 0 0.93 0.755 1.684 1.683 1.685" />,<path d="M2.248 2.548a0.166 0.166 0 0 1-0.16-0.012 0.168 0.168 0 0 1-0.076-0.116L2.01 1.12a0.168 0.168 0 0 1 0.337 0v1.009l0.863-0.406a0.167 0.167 0 0 1 0.224 0.079c0.04 0.085 0.003 0.185-0.08 0.225l-1.105 0.521z" /></svg>