<svg xmlns="http://www.w3.org/2000/svg" fill="currentColor" width="1em" height="1em" viewBox="0 0 16 16"><path d="M0.004 9.454h10.114v0.948H0.004zM7.942 7.461a1.2 1.2 0 0 1 1.2-1.2c0.661 0 1.2 0.537 1.2 1.2 0 0.661-0.539 1.2-1.2 1.2-0.662 0-1.2-0.539-1.2-1.2z m-1.534-1.242H2.389L0 6.585V8.659l1.206 0.001a1.006 1.006 0 0 1-0.154-0.53 1.016 1.016 0 0 1 1.015-1.015h2.201l1.784-0.373 0.099 0.474-1.833 0.383H2.067a0.531 0.531 0 0 0-0.531 0.531 0.53 0.53 0 0 0 0.524 0.53l4.358 0c0.674-0.005 1.214-0.548 1.214-1.219a1.222 1.222 0 0 0-1.224-1.222z" />,<path d="M8.488 12.947c2.681 0 4.854-2.173 4.853-4.855 0-2.681-2.173-4.854-4.853-4.854-1.752 0-3.284 0.933-4.138 2.326h2.033a3.285 3.285 0 0 1 2.117-0.77c1.822 0 3.299 1.477 3.299 3.299 0 1.822-1.477 3.299-3.299 3.299a3.282 3.282 0 0 1-1.439-0.334H4.651c0.888 1.147 2.274 1.889 3.836 1.889z" />,<path d="M8.488 0.56C5.166 0.56 2.35 2.717 1.358 5.706l0.926-0.144 1.502 0.001C4.688 3.89 6.455 2.754 8.488 2.754c2.949 0 5.339 2.39 5.338 5.339S11.436 13.432 8.488 13.432c-1.851 0-3.482-0.943-4.44-2.375H1.594c1.154 2.663 3.806 4.528 6.893 4.528 4.149 0 7.513-3.363 7.513-7.513C16 3.924 12.636 0.56 8.488 0.56zM10.192 2.268a0.238 0.238 0 0 1-0.288 0.174 5.833 5.833 0 0 0-2.808 0c-0.127 0.034-0.257-0.046-0.289-0.173a0.238 0.238 0 0 1 0.174-0.289 6.3 6.3 0 0 1 3.038 0 0.238 0.238 0 0 1 0.173 0.288z" /></svg>