<svg xmlns="http://www.w3.org/2000/svg" fill="currentColor" width="1em" height="1em" viewBox="0 0 16 16"><path d="M7.357 2.676c0.737 0.058 1.384-0.493 1.442-1.229 0.057-0.738-0.495-1.384-1.231-1.443A1.34 1.34 0 0 0 7.357 2.677m0.367 2.686c0.418 0.078 0.732 0.448 0.733 0.89a0.906 0.906 0 0 1-0.906 0.906H4.615a0.575 0.575 0 0 1-0.575-0.575c0-0.077 0.016-0.151 0.043-0.218L4.4 5.624l3.535-2.532h-1.684c-0.647-0.018-1.101 0.207-1.363 0.717-0.177 0.343-1.115 2.439-1.115 2.439a0.906 0.906 0 0 0 0.842 1.242h1.147l-0.338 2.224L3.644 14.857a0.867 0.867 0 0 0 0.55 1.094c0.453 0.151 0.944-0.097 1.094-0.551L7.334 9.598c0.399 0.649 1.194 1.811 1.329 2.031 0.031 0.365 0.317 3.582 0.317 3.582a0.867 0.867 0 0 0 0.939 0.786c0.476-0.041 0.828-0.464 0.786-0.939L10.368 11.271a0.854 0.854 0 0 0-0.126-0.378L8.771 8.508l0.234-2.992s0.348 1.184 0.375 1.27c0.075 0.244 0.244 0.42 0.416 0.56 0.101 0.08 1.818 1.25 1.818 1.249 0.096 0.044 0.174 0.083 0.277 0.09a0.604 0.604 0 0 0 0.65-0.554 0.608 0.608 0 0 0-0.236-0.53s-1.711-1.175-1.781-1.226c-0.057-0.043-0.102-0.118-0.113-0.157L9.733 3.779c-0.11-0.369-0.482-0.687-0.952-0.687h-0.202l-0.855 2.271z" />,<path d="M7.551 6.828a0.575 0.575 0 0 0 0.575-0.576c0-0.296-0.226-0.538-0.514-0.568l-0.42 1.147 0.359-0.003z" /></svg>