<svg xmlns="http://www.w3.org/2000/svg" fill="currentColor" width="1em" height="1em" viewBox="0 0 16 16"><path d="M7.634 3.849c0.822 0 1.487-0.665 1.487-1.485S8.456 0.88 7.634 0.88c-0.821 0-1.487 0.664-1.488 1.484s0.666 1.485 1.488 1.485zM12.166 13.885H0.308c-0.334 0-0.3 0.262-0.3 0.262v0.437s-0.03 0.568 0.553 0.568h14.848c0.587 0 0.555-0.555 0.555-0.555v-1.209s-0.05-0.383-0.5-0.383h-1.448c-0.496 0-0.906 0.88-1.851 0.88z m1.153-2.681c0 0.738 0.6 1.337 1.34 1.336 0.739 0 1.341-0.599 1.341-1.336 0-0.74-0.602-1.338-1.341-1.338-0.74 0-1.34 0.597-1.34 1.338zM8.939 8.653a0.953 0.953 0 0 1-0.573 0.596L7.173 9.691l0.44 0.437h2.015l-0.002-3.083-0.674 1.59c-0.003 0.008-0.009 0.012-0.013 0.018z" />,<path d="M11.832 10.861H7.667l-1.004-0.981-0.699 0.258c-0.518 0.185-1.15-0.098-1.345-0.613-0.115-0.32-0.099-0.677 0.093-0.937-0.086-0.004-2.526 0-2.526 0-0.406 0-0.736 0.326-0.736 0.731 0 0.406 0.33 0.723 0.736 0.723h2.484l0.986 1.491-5.087 0.409A0.734 0.734 0 0 0 0 12.657a0.734 0.734 0 0 0 0.733 0.736l5.707 0a1.044 1.044 0 0 1-0.159-0.549 1.054 1.054 0 0 1 1.053-1.054h2.283l1.852-0.386 0.102 0.491-1.901 0.397H7.335a0.551 0.551 0 0 0-0.551 0.552 0.55 0.55 0 0 0 0.54 0.549l4.518 0.001c0.699-0.005 1.26-0.569 1.26-1.266a1.267 1.267 0 0 0-1.27-1.267z" />,<path d="M5.876 9.678a0.582 0.582 0 0 1-0.767-0.299 0.582 0.582 0 0 1 0.299-0.768l2.12-0.796 0.656-1.563-0.427-0.158L7.2 7.433l-1.614 0.595V6.392l-1.578 1.723-1.786-0.002s3.125-3.426 3.223-3.528c0.13-0.129 0.426-0.342 0.984-0.341h2.006c1.14 0 1.36 1.137 1.127 1.724L8.512 8.513a0.591 0.591 0 0 1-0.338 0.319l-2.298 0.846z" /></svg>