<svg xmlns="http://www.w3.org/2000/svg" fill="currentColor" width="1em" height="1em" viewBox="0 0 16 16"><path d="M1.21 12.396C0.087 12.396 0 11.186 0 11.186V3.6h14.879S16 3.548 16 4.58c0 1.085-0.969 1.026-0.969 1.026H11.059a1.374 1.374 0 0 0-0.316-0.077L7.494 5.118l-3.592-1.035a0.216 0.216 0 0 0-0.268 0.147c-0.033 0.115 0.032 0.24 0.147 0.274l3.664 1.056a0.978 0.978 0 0 1 0.588 0.47 0.972 0.972 0 0 1 0.084 0.746 0.975 0.975 0 0 1-0.47 0.589 0.976 0.976 0 0 1-0.743 0.086c-0.002 0-0.003 0-0.005 0l-1.542-0.447c-0.8-0.251-1.395 0.001-2.026 0.267-0.486 0.206-0.989 0.417-1.672 0.463a3.776 3.776 0 0 1-0.274 0.01 0.215 0.215 0 0 0-0.218 0.213c-0.002 0.12 0.098 0.224 0.219 0.224 0.916 0 1.554-0.27 2.117-0.508 0.602-0.254 1.078-0.456 1.729-0.251 0.002 0 0.136 0.04 0.324 0.093-0.432 0.199-0.755 0.608-0.819 1.113-0.073 0.579 0.215 1.122 0.687 1.402a1.286 1.286 0 0 0-0.556 0.905c-0.089 0.704 0.413 1.391 1.117 1.459H1.21z" />,<path d="M12.965 11.475h1.968v-0.495H12.965v0.495z m0.738-2.902v0.728h-0.738v0.495h0.738v0.72h0.494v-0.72h0.736v-0.495h-0.736v-0.728H13.702z m0.247 3.886c-1.207 0-1.795-0.985-1.795-1.861 0-1.288 1.795-4.137 1.795-4.137s1.795 2.85 1.795 4.138c0 0.877-0.587 1.861-1.795 1.86M11.542 7.062c-0.068 0.538-0.561 0.922-1.1 0.853l-2.382-0.3a1.404 1.404 0 0 0 0.48-0.718 1.407 1.407 0 0 0-0.222-1.233l2.37 0.299a0.985 0.985 0 0 1 0.854 1.099M10.39 9.341a0.98 0.98 0 0 1-0.373 0.654 0.977 0.977 0 0 1-0.726 0.199L6.026 9.782a0.984 0.984 0 0 1-0.853-1.099 0.976 0.976 0 0 1 0.373-0.654 0.976 0.976 0 0 1 0.727-0.2l3.264 0.413a0.985 0.985 0 0 1 0.853 1.099M8.868 11.44a0.853 0.853 0 0 1-0.952 0.738l-1.875-0.237a0.852 0.852 0 0 1-0.737-0.951 0.852 0.852 0 0 1 0.951-0.737l1.874 0.237a0.852 0.852 0 0 1 0.745 0.843c0 0.037-0.001 0.072-0.006 0.107" /></svg>