<svg xmlns="http://www.w3.org/2000/svg" fill="currentColor" width="1em" height="1em" viewBox="0 0 16 16"><path d="M8.564 1.79a0.892 0.892 0 0 0 0.892-0.892A0.892 0.892 0 0 0 8.564 0.006a0.892 0.892 0 0 0 0 1.784z m-4.837 0.006c-0.5 0-0.904-0.402-0.904-0.899C2.824 0.402 3.227 0 3.728 0c0.5 0 0.905 0.402 0.905 0.898s-0.405 0.898-0.905 0.897z" />,<path d="M12.368 4.611a0.625 0.625 0 1 0 1.251 0 0.625 0.625 0 1 0-1.251 0" />,<path d="M13.9 5.546H12.212c-0.008 0-0.564-0.051-0.564-0.051l-0.707-2.464C10.656 2.04 9.824 2.07 9.824 2.07H7.538s-0.83-0.03-1.116 0.961l-0.348 1.213-0.348-1.213c-0.286-0.991-1.115-0.961-1.116-0.961h-1.769s-0.831-0.03-1.115 0.961L1.013 5.514c-0.068 0.232 0.059 0.409 0.262 0.467 0.203 0.058 0.41-0.044 0.463-0.229l0.693-2.42 0.339 0-1.013 4.189h0.895v2.975a0.443 0.443 0 0 0 0.443 0.445 0.446 0.446 0 0 0 0.446-0.445V7.521h0.376v2.975a0.444 0.444 0 0 0 0.443 0.445 0.445 0.445 0 0 0 0.445-0.445V7.52h0.88l-1.002-4.189 0.337 0.001 0.685 2.394c0.011 0.041 0.03 0.078 0.053 0.111 0.067 0.101 0.185 0.158 0.316 0.153 0.13 0.004 0.247-0.052 0.314-0.152a0.325 0.325 0 0 0 0.058-0.123l0.682-2.382 0.312-0.001v7.079a0.525 0.525 0 0 0 0.526 0.523 0.523 0.523 0 0 0 0.523-0.523v-4.028h0.387v4.028a0.523 0.523 0 0 0 0.522 0.523c0.29 0 0.526-0.234 0.526-0.523v-7.079l0.339 0.001 0.664 2.419c0.035 0.12 0.136 0.198 0.254 0.228 0.005 0.001 0.008 0.005 0.013 0.005 0.106 0.024 0.593 0.162 0.952 0.265v4.39a0.368 0.368 0 0 0 0.736 0v-2.194h0.287v2.193c0 0.203 0.164 0.368 0.367 0.368s0.369-0.165 0.369-0.368v-4.1h0.283v1.39c0 0.151 0.123 0.275 0.273 0.275 0.151 0 0.27-0.124 0.271-0.275V6.347c0-0.442-0.389-0.802-0.832-0.801z m-1.914 8.699a46.749 46.749 0 0 1-0.521-0.411c-0.146-0.116-0.293-0.233-0.44-0.348-0.882-0.688-1.798-1.316-2.817-1.407a2.815 2.815 0 0 0-0.255-0.012c-0.086 0-0.171 0.011-0.255 0.018-1.022 0.093-1.942 0.717-2.826 1.408l0.093 0.073c0.108 0.085 0.213 0.168 0.32 0.252 0.878-0.681 1.734-1.242 2.668-1.242 0.93 0 1.784 0.558 2.66 1.236a35.098 35.098 0 0 1 0.533 0.421c0.141 0.113 0.283 0.226 0.426 0.338C12.531 15.32 13.53 16 14.658 16c0.437 0 0.854-0.104 1.256-0.273v-0.557c-0.409 0.197-0.825 0.32-1.257 0.32-0.934 0-1.792-0.563-2.672-1.245z" />,<path d="M11.574 13.496c0.029 0.023 0.059 0.046 0.088 0.07 0.109 0.087 0.216 0.17 0.325 0.256 0.318-0.246 0.635-0.476 0.952-0.67v1.37c0.17 0.111 0.34 0.214 0.51 0.301V12.878c0.315-0.147 0.634-0.248 0.96-0.283v2.537c0.078 0.01 0.157 0.018 0.237 0.018 0.091 0 0.183-0.009 0.273-0.021v-2.537c0.34 0.037 0.67 0.144 0.996 0.3v-0.555c-0.401-0.167-0.816-0.27-1.251-0.27-1.128 0-2.13 0.68-3.09 1.429z m-7.248 1.08c-0.034-0.027-0.068-0.053-0.102-0.08-0.104-0.083-0.207-0.162-0.31-0.245-0.877 0.678-1.733 1.238-2.665 1.238C0.82 15.49 0.407 15.36 0 15.152v0.562C0.401 15.891 0.815 16 1.249 16c1.124 0 2.122-0.677 3.077-1.423z" />,<path d="M0.989 15.133c0.084 0.011 0.17 0.019 0.254 0.02 0.086 0 0.171-0.008 0.256-0.02V12.592c0.329 0.035 0.65 0.136 0.967 0.285-0.002 0.012-0.007 0.023-0.007 0.036v1.903a5.818 5.818 0 0 0 0.51-0.303V13.152c0.487 0.3 0.971 0.684 1.467 1.08C5.525 15.101 6.652 16 7.948 16c1.123 0 2.121-0.675 3.078-1.42l-0.106-0.084c-0.103-0.082-0.205-0.161-0.306-0.242-0.313 0.242-0.622 0.466-0.934 0.658v-1.348a5.816 5.816 0 0 0-0.511-0.303v1.894c0 0.011 0.003 0.019 0.005 0.03-0.317 0.149-0.637 0.251-0.966 0.288V12.938a1.97 1.97 0 0 0-0.267-0.021c-0.082 0-0.163 0.008-0.243 0.018V15.475c-0.33-0.035-0.652-0.135-0.969-0.283 0.002-0.013 0.007-0.024 0.007-0.038v-1.905a5.549 5.549 0 0 0-0.51 0.301v1.368c-0.49-0.3-0.976-0.686-1.474-1.084-1.089-0.869-2.214-1.768-3.51-1.767-0.432 0-0.844 0.096-1.244 0.251v0.55c0.324-0.144 0.652-0.244 0.989-0.277v2.542z" /></svg>