<svg xmlns="http://www.w3.org/2000/svg" fill="currentColor" width="1em" height="1em" viewBox="0 0 16 16"><path d="M7.717 12.464a0.453 0.453 0 0 0-0.64 0L4.945 14.594l-0.265-0.265 2.859-2.855a0.453 0.453 0 1 0-0.641-0.64L4.04 13.69l-0.265-0.266 3.325-3.322a0.453 0.453 0 0 0 0.001-0.641 0.452 0.452 0 0 0-0.64 0L3.135 12.783l-0.265-0.265L5.48 9.91a0.453 0.453 0 0 0 0-0.64 0.452 0.452 0 0 0-0.64 0L1.482 12.621c-0.002-0.324-0.005-0.908-0.005-1.435 0-0.732-0.925-0.84-0.971-0.79C0.461 10.45 0 15.533 0 15.533h5.294l0.294-0.295-0.003-0.003 2.132-2.131a0.453 0.453 0 0 0 0-0.642z" />,<path d="M10.099 0C7.423 0 4.956 2.008 4.443 4.219c-0.115 0.493-0.244 1.777-0.244 1.777l-1.23 3.1c-0.024 0.057-0.037 0.119-0.037 0.185a0.475 0.475 0 0 0 0.475 0.475h0.42l0.75-0.75a0.826 0.826 0 0 1 1.167 0.001 0.826 0.826 0 0 1 0.226 0.42l0.23-0.229a0.824 0.824 0 0 1 1.166 0c0.316 0.316 0.32 0.823 0.016 1.147a0.825 0.825 0 0 1 0.422 1.392l-0.24 0.239a0.818 0.818 0 0 1 0.418 0.224 0.826 0.826 0 0 1 0 1.166l-0.531 0.532v1.635H13.747V10.529C15.117 9.451 16 7.776 16 5.896 16 2.639 13.36 0 10.099 0z m-4.448 7.173a0.658 0.658 0 0 1 0-1.316 0.658 0.658 0 0 1 0.658 0.659 0.658 0.658 0 0 1-0.658 0.658z m3.08 1.534c0.164 0 0.3 0.135 0.3 0.298a0.301 0.301 0 0 1-0.3 0.3 0.3 0.3 0 0 1-0.3-0.3c0-0.164 0.134-0.299 0.3-0.298zM8.552 10.579a0.3 0.3 0 0 1 0-0.6 0.301 0.301 0 0 1 0.3 0.301 0.3 0.3 0 0 1-0.3 0.299z m0.64 1.289a0.45 0.45 0 0 1-0.412-0.486 0.45 0.45 0 0 1 0.487-0.408 0.448 0.448 0 0 1 0.408 0.485c-0.022 0.248-0.238 0.432-0.483 0.409z m0.432-1.795c-0.251 0-0.45-0.201-0.45-0.449s0.199-0.446 0.45-0.446c0.246 0 0.446 0.2 0.446 0.448s-0.2 0.448-0.446 0.448z m0.637 0.939a0.3 0.3 0 0 1-0.303-0.3 0.301 0.301 0 0 1 0.301-0.298 0.299 0.299 0 0 1 0 0.598z m0.668-1.741h-0.105V8.736l0.103-0.001c0.668-0.001 1.212-0.545 1.215-1.212-0.002-0.667-0.547-1.211-1.214-1.213l-0.104-0.001V5.776h0.105c0.965 0 1.749 0.783 1.748 1.747s-0.784 1.747-1.748 1.747z" /></svg>