<svg xmlns="http://www.w3.org/2000/svg" fill="currentColor" width="1em" height="1em" viewBox="0 0 16 16"><path d="M2.861 5.341a3.628 3.628 0 0 0-0.678-2.495A3.632 3.632 0 0 0 0.021 1.427 3.627 3.627 0 0 0 0.698 3.923a3.629 3.629 0 0 0 2.163 1.419z m-0.354-2.73a4.106 4.106 0 0 1 0.364 0.61 4.12 4.12 0 0 1 0.363-0.61 4.035 4.035 0 0 1 0.537-0.6A3.625 3.625 0 0 0 2.878 0a3.628 3.628 0 0 0-0.893 2.023 4.082 4.082 0 0 1 0.522 0.588z m3.213-1.184a3.632 3.632 0 0 0-2.162 1.419 3.657 3.657 0 0 0-0.478 0.902 4.027 4.027 0 0 1 0.186 1.485 3.624 3.624 0 0 0 1.778-1.308 3.627 3.627 0 0 0 0.676-2.497z m4.541 0.818a1.473 1.473 0 0 0-1.473 1.473c0 0.813 0.659 1.473 1.473 1.473s1.472-0.659 1.472-1.472a1.473 1.473 0 0 0-1.474-1.472z m3.817 6.152l-0.748-2.135c-0.145-0.402-0.425-0.716-1.212-0.716H8.661c-0.787 0-1.067 0.314-1.212 0.716l-0.748 2.135c-0.057 0.138-0.085 0.448 0.219 0.655l1.76 1.161a0.558 0.558 0 0 0 0.773-0.157 0.559 0.559 0 0 0-0.159-0.775l-0.846-0.559-0.552-0.363L8.291 7.273h0.545l-0.319 0.881 1.061 0.7a1.062 1.062 0 0 1 0.459 0.678 1.065 1.065 0 0 1-0.155 0.805 1.086 1.086 0 0 1-0.227 0.245h1.469a1.081 1.081 0 0 1-0.226-0.245 1.064 1.064 0 0 1-0.156-0.804 1.06 1.06 0 0 1 0.459-0.679l1.061-0.699-0.32-0.882h0.545l0.394 1.086-0.551 0.364-0.845 0.558a0.558 0.558 0 1 0 0.614 0.931l1.762-1.161c0.305-0.208 0.275-0.517 0.219-0.656z m-0.624 3.217c0-0.748 0.606-1.353 1.353-1.353S16.162 10.866 16.162 11.614c0 0.746-0.608 1.354-1.355 1.354s-1.353-0.608-1.353-1.354zM0.303 14.327a0.302 0.302 0 0 0-0.302 0.302v0.405s-0.03 0.574 0.559 0.573H15.564c0.592 0 0.562-0.56 0.562-0.559V13.825s-0.051-0.391-0.506-0.391h-1.464c-0.501 0-0.914 0.894-1.87 0.893H0.302z" />,<path d="M11.944 11.269H7.735l-1.751 0.268 0.08-1.731h-0.293l0.082 1.751-1.223 0.188 0.091-1.903h-0.296l0.089 1.92-1.665 0.255 0.087-1.913h-0.287l0.087 1.931-1.996 0.305c-0.014 0-0.027 0.003-0.042 0.005l0.084-1.798H0.493l0.082 1.815a0.741 0.741 0 0 0-0.574 0.721c0 0.411 0.331 0.743 0.74 0.743l5.755 0.001a1.053 1.053 0 0 1-0.16-0.556 1.063 1.063 0 0 1 1.063-1.063h2.305L11.572 11.817l0.103 0.497-1.92 0.4H7.397a0.556 0.556 0 0 0-0.007 1.112l4.564 0c0.705-0.006 1.272-0.575 1.272-1.277a1.28 1.28 0 0 0-1.282-1.28z" /></svg>