<svg xmlns="http://www.w3.org/2000/svg" fill="currentColor" width="1em" height="1em" viewBox="0 0 16 16"><path d="M13.856 7.297c1.344 0 2.144 0.801 2.144 2.027v5.74c0 0.444-0.04 0.805-0.04 0.804H9.822V10.29h-0.25l-1.139 1.7c-0.186 0.253-0.562 0.376-0.863 0.375H4.896a0.804 0.804 0 0 1-0.805-0.804c0-0.443 0.36-0.793 0.805-0.793h2.432L9.016 8.216c0.405-0.617 1.155-0.911 1.832-0.911 0 1.795 0.448 2.554 1.256 2.554v2.983a0.64 0.64 0 0 0-0.387 0.588 0.632 0.632 0 0 0 0.634 0.635c0.353 0 0.636-0.291 0.636-0.644 0-0.264-0.16-0.49-0.387-0.588V9.85c0.808 0 1.256-0.759 1.256-2.554" />,<path d="M13.352 7.297c-0.014 1.84-0.332 2.082-1 2.082-0.667 0-0.986-0.242-1-2.082h2z m-1.012-4.144c1.014 0 1.836 0.822 1.836 1.837 0 1.013-0.822 1.836-1.837 1.835-1.014 0-1.837-0.822-1.837-1.836S11.325 3.152 12.339 3.152m-4.512 0.251c0.224 0 0.406-0.182 0.407-0.406s-0.182-0.406-0.407-0.407a0.406 0.406 0 0 0 0 0.814M4.922 1.163a0.579 0.579 0 0 0 0.579-0.579c0-0.32-0.259-0.58-0.579-0.58a0.58 0.58 0 0 0-0.58 0.58c0 0.32 0.259 0.579 0.58 0.579m-3.146 0.004c0.325 0 0.589-0.261 0.589-0.584 0-0.322-0.264-0.583-0.589-0.583C1.452 0 1.189 0.261 1.189 0.583c0 0.322 0.263 0.584 0.588 0.584" />,<path d="M7.276 6.914a0.24 0.24 0 0 0 0.241 0.238c0.131 0 0.237-0.107 0.236-0.238v-1.427h0.187v1.426c0 0.131 0.107 0.238 0.238 0.239s0.24-0.107 0.24-0.239V4.246h0.184v0.904a0.178 0.178 0 0 0 0.178 0.178 0.176 0.176 0 0 0 0.176-0.178v-1.027c0-0.288-0.253-0.522-0.54-0.522 0 0-1.103 0.001-1.108 0.002l-0.357-0.035-0.459-1.598c-0.185-0.645-0.725-0.624-0.724-0.625h-1.487s-0.54-0.021-0.725 0.625l-0.24 0.837-0.24-0.837c-0.185-0.645-0.725-0.624-0.725-0.624h-1.15s-0.54-0.021-0.725 0.624L0.013 3.584c-0.045 0.15 0.029 0.291 0.161 0.329 0.132 0.037 0.276-0.054 0.311-0.174l0.45-1.573h0.22l-0.658 2.723H1.078v1.934a0.288 0.288 0 0 0 0.288 0.289c0.16 0 0.29-0.129 0.29-0.289v-1.935h0.245v1.935a0.289 0.289 0 0 0 0.578 0v-1.935h0.572L2.398 2.166h0.22l0.45 1.573c0.03 0.104 0.126 0.189 0.24 0.179 0.113 0.01 0.229-0.075 0.258-0.179l0.45-1.573h0.203v4.601a0.341 0.341 0 0 0 0.342 0.339c0.187 0 0.34-0.152 0.34-0.339V4.149h0.251v2.618a0.341 0.341 0 0 0 0.682 0V2.166h0.22l0.418 1.52c0.026 0.092 0.121 0.18 0.222 0.211l0.584 0.163V6.914z" /></svg>