<svg xmlns="http://www.w3.org/2000/svg" fill="currentColor" width="1em" height="1em" viewBox="0 0 16 16"><path d="M3.383 2.561c0.535-0.297 1.038-0.379 1.493-0.246 0.472 0.138 0.823 0.482 1.034 0.742-0.538 0.403-0.87 1.044-0.883 1.741-0.001 0.045 0.007 0.086 0.015 0.127 0.032 0.178 0.141 0.314 0.327 0.394 0.011 0.004 0.042 0.014 0.11 0.014 0.185 0 0.41-0.074 0.412-0.075l2.983-0.845c0.229-0.067 0.348-0.19 0.363-0.378l0.003-0.03V4c0.024-0.136-0.12-0.366-0.245-0.435a32.666 32.666 0 0 1-0.531-0.305c-0.608-0.354-1.048-0.61-1.491-0.61a1.184 1.184 0 0 0-0.148 0.012C6.568 2.291 6.013 1.64 5.16 1.386 4.442 1.173 3.686 1.282 2.912 1.712 2.611 1.879 1.074 2.648 0.007 1.687v1.164c1.43 0.698 3.025-0.095 3.376-0.291z" />,<path d="M12.339 4.828c-0.427-0.099-1.541-0.211-1.541-0.211l-0.968-0.384c-0.056 0.246-0.232 0.614-0.782 0.775l-2.985 0.845c-0.099 0.03-0.344 0.099-0.584 0.099-0.129 0-0.239-0.019-0.337-0.058-0.274-0.117-0.474-0.301-0.595-0.531a2.002 2.002 0 0 0-0.455 1.269l0.001 0.8-0.802 0C2.533 6.384 1.354 5.661 0 5.518v9.297c1.358-0.144 2.54-0.872 3.297-1.926H6.867c0.935 1.188 2.389 1.953 4.019 1.953C13.71 14.842 15.999 12.554 16 9.73c0-2.32-1.742-4.458-3.661-4.902z m-2.062 0.787c0-0.151 0.126-0.26 0.26-0.259 0.151 0 0.26 0.109 0.259 0.259v1.122c0 0.134-0.109 0.26-0.259 0.26-0.134 0-0.26-0.126-0.26-0.26v-1.122z m0.745 4.775c0 0.851-0.69 1.544-1.538 1.544-0.85 0-1.541-0.693-1.542-1.544v-0.117h0.518v0.117c0.001 0.564 0.46 1.024 1.023 1.025 0.562-0.002 1.021-0.462 1.021-1.025v-0.117h0.517v0.117z" /></svg>