<svg xmlns="http://www.w3.org/2000/svg" fill="currentColor" width="1em" height="1em" viewBox="0 0 16 16"><path d="M0.01 10.187H13.166v1.036H0.011z" />,<path d="M9.787 12.984c0-0.69-3.039-0.621-3.039 0.009v2.336c-0.03 0.322 0.203 0.637 0.526 0.637h8.14a0.585 0.585 0 0 0 0.586-0.585L16 7.986C16 3.339 12.011-0.397 7.276 0.034a0.586 0.586 0 0 0-0.53 0.636v2.517h3.041V1.404c2.907 0.78 5.042 3.434 5.044 6.58-0.01 3.144-2.134 5.81-5.042 6.585v-1.585z" />,<path d="M10.812 8.003a1.31 1.31 0 0 1 1.31-1.31c0.723 0 1.312 0.586 1.312 1.31 0 0.722-0.589 1.311-1.312 1.311-0.724 0-1.31-0.589-1.31-1.311zM9.136 6.647H4.745L0 7.373V9.312l3.452 0.001a1.099 1.099 0 0 1-0.168-0.58c0-0.611 0.498-1.109 1.108-1.108h2.405l1.949-0.407 0.109 0.517-2.003 0.418h-2.459a0.58 0.58 0 0 0-0.008 1.159H9.146c0.738-0.006 1.328-0.599 1.328-1.332a1.335 1.335 0 0 0-1.338-1.335z" /></svg>