<svg xmlns="http://www.w3.org/2000/svg" fill="currentColor" width="1em" height="1em" viewBox="0 0 16 16"><path d="M14.704 13.605c0 0.355-0.294 0.64-0.646 0.64H3.52v0.432h10.536a1.075 1.075 0 0 0 1.082-1.069l-0.432-0.003z m-3.147-9.808A1.059 1.059 0 1 0 11.552 1.68a1.059 1.059 0 0 0 0.005 2.118M4.848 12.912L1.323 9.376v0.619l3.28 3.29c0.376 0.408 1.021-0.064 1.021-0.064l-0.309-0.331s-0.304 0.2-0.464 0.032l-0.006-0.012z m0.112-6.664H1.355v0.432H4.96v-0.432z m9.744-1.029l0.411 0.173L11.024 13.629h-0.454L14.704 5.219z" />,<path d="M7.912 4.584l-1.648 1.901a0.531 0.531 0 1 1-0.765-0.736l1.776-2.045a0.533 0.533 0 0 1 0.41-0.192H10.256a0.688 0.688 0 0 1 0.485 0.195L12.379 5.344l1.36-1.355a0.549 0.549 0 0 1 0.779 0.768L12.88 6.411c-0.496 0.496-0.896 0.074-0.896 0.074l-1.008-1.008-1.568 1.814 1.44 1.44s0.301 0.282 0.128 0.842L10.17 13.168a0.688 0.688 0 1 1-1.333-0.31l0.662-2.949-1.632-1.591-1.408 1.568s-0.229 0.28-0.832 0.26l-2.851 0.006a0.688 0.688 0 0 1-0.68-0.536 0.672 0.672 0 0 1 0.685-0.832l2.453 0.011 3.632-4.208-0.949-0.003z" /></svg>