<svg xmlns="http://www.w3.org/2000/svg" fill="currentColor" width="1em" height="1em" viewBox="0 0 16 16"><path d="M14.159 8.927V5.732c0-0.453 0.371-0.822 0.828-0.822a0.822 0.822 0 0 1 0.821 0.822V10.107c0 0.605-0.218 1.189-0.608 1.646L12.472 14.65c-0.271 0.255-0.337 0.481-0.337 0.823V16h-2.97l-0.003-1.255c0-0.478-0.039-1.117 0.559-1.743l3.462-3.476a0.654 0.654 0 0 1 0.456-0.184 0.657 0.657 0 0 1 0.657 0.655c0 0.156-0.055 0.308-0.156 0.427l-1.67 1.789c-0.108 0.127-0.291 0.366-0.382 0.659-0.049 0.152-0.063 0.301-0.066 0.47h0.537c0.002-0.121 0.011-0.218 0.04-0.308 0.053-0.169 0.157-0.321 0.237-0.419l1.694-1.86c0.213-0.215 0.33-0.493 0.33-0.786 0-0.439-0.264-0.843-0.7-1.042z m-12.51 0V5.732c0-0.453-0.371-0.822-0.827-0.822A0.822 0.822 0 0 0 0 5.732V10.107c0 0.605 0.218 1.189 0.608 1.646l2.729 2.897c0.27 0.255 0.337 0.481 0.337 0.822V16h2.969l0.003-1.255c0-0.478 0.039-1.117-0.559-1.743L2.626 9.526a0.654 0.654 0 0 0-0.457-0.184 0.657 0.657 0 0 0-0.5 1.083l1.669 1.788c0.108 0.127 0.291 0.366 0.382 0.659 0.049 0.152 0.063 0.301 0.066 0.471h-0.537c-0.002-0.121-0.011-0.219-0.04-0.309-0.053-0.169-0.157-0.321-0.236-0.418L1.278 10.755c-0.213-0.215-0.33-0.493-0.33-0.786 0-0.439 0.264-0.843 0.701-1.042z m6.568-7.512a0.705 0.705 0 0 0 0-1.41 0.705 0.705 0 0 0 0 1.41z m-3.825 0.004c-0.395 0-0.715-0.317-0.715-0.71 0-0.392 0.32-0.709 0.715-0.709s0.716 0.317 0.716 0.709c0 0.393-0.321 0.71-0.716 0.71z" />,<path d="M11.225 3.646a0.494 0.494 0 1 0 0.988 0 0.494 0.494 0 1 0-0.988 0" />,<path d="M12.435 4.384h-1.334c-0.006 0-0.446-0.04-0.446-0.04l-0.559-1.947c-0.225-0.784-0.883-0.76-0.882-0.76h-1.808s-0.657-0.024-0.882 0.76l-0.276 0.959-0.275-0.959c-0.226-0.784-0.882-0.76-0.881-0.76H3.693s-0.658-0.024-0.883 0.76l-0.563 1.962c-0.053 0.184 0.047 0.323 0.208 0.369 0.16 0.046 0.324-0.035 0.365-0.181l0.549-1.913 0.267 0L2.835 5.946h0.708v2.352c0 0.194 0.156 0.352 0.35 0.351 0.194 0 0.352-0.158 0.352-0.351v-2.352h0.297v2.352c0 0.194 0.156 0.352 0.35 0.351a0.352 0.352 0 0 0 0.352-0.351v-2.352h0.696l-0.793-3.312 0.266 0.001 0.543 1.892c0.009 0.032 0.023 0.062 0.042 0.087 0.053 0.08 0.146 0.125 0.249 0.122 0.103 0.003 0.195-0.041 0.249-0.12 0.022-0.028 0.037-0.061 0.046-0.098l0.54-1.884 0.246 0v5.595a0.415 0.415 0 0 0 0.415 0.414 0.413 0.413 0 0 0 0.413-0.414V5.046h0.306v3.183a0.413 0.413 0 0 0 0.413 0.414 0.415 0.415 0 0 0 0.417-0.414v-5.595l0.267 0 0.525 1.913c0.028 0.094 0.107 0.156 0.202 0.18 0.004 0.001 0.006 0.003 0.009 0.004 0.083 0.019 0.469 0.128 0.753 0.209v3.47a0.291 0.291 0 0 0 0.581 0V6.676h0.228v1.734c0 0.16 0.13 0.29 0.29 0.29s0.292-0.13 0.292-0.29v-3.242h0.223v1.098c0 0.12 0.098 0.218 0.217 0.218 0.119 0 0.214-0.097 0.214-0.218v-1.249c0-0.35-0.308-0.634-0.658-0.634z" /></svg>