<svg xmlns="http://www.w3.org/2000/svg" fill="currentColor" width="1em" height="1em" viewBox="0 0 16 16"><path d="M0.97 1.031h5.981v0.58h-0.58v0.639L0.97 2.719V1.031z m8.491 1.728a1.375 1.375 0 0 0 1.378-1.378c0-0.761-0.616-1.381-1.378-1.381a1.382 1.382 0 0 0-1.381 1.381c0 0.764 0.618 1.378 1.381 1.378" />,<path d="M10.505 2.682a1.014 1.014 0 0 1 1.426 0l2.984 2.98a0.627 0.627 0 0 1 0.184 0.444v8.943c0 0.616-0.496 1.113-1.113 1.113s-1.121-0.496-1.121-1.113V7.672L10.083 4.888l-1.112 1.112a0.685 0.685 0 0 1-0.53 0.249 0.685 0.685 0 0 1-0.505-0.223l-1.916-1.92c-0.244-0.29-0.223-0.73 0.065-0.975 0.29-0.244 0.722-0.203 0.966 0.086l1.457 1.462L10.505 2.682z m-5.802 0.423a0.29 0.29 0 0 0-0.569 0.009l-0.466 2.663v10.316h3.938v-1.463H5.189l-0.016-8.853-0.47-2.672z" /></svg>