<svg xmlns="http://www.w3.org/2000/svg" fill="currentColor" width="1em" height="1em" viewBox="0 0 16 16"><path d="M9.772 3.249c0.894 0 1.621-0.726 1.625-1.624C11.392 0.73 10.666 0.003 9.771 0c-0.898 0.003-1.624 0.73-1.624 1.625 0 0.898 0.726 1.624 1.625 1.624zM6.045 1.946c0.919-0.474 2.204 0.395 2.215 1.347v3.094l1.469 1.626c0.675 0.756-0.393 1.797-1.139 1.042L6.931 7.221c-0.107-0.102-0.185-0.223-0.183-0.504v-1.477l-2.902 1.563v7.863c0.001 1.776-2.405 1.776-2.406 0.017V5.36c0.002-0.519 0.207-1.025 0.72-1.32L6.045 1.946z" />,<path d="M12.066 9.922h2.554V5.274l-5.143-0.009c-0.658 0-0.906 0.745-0.496 1.217l3.084 3.44z m-1.478-4.865a0.205 0.205 0 0 0 0.2-0.2 0.205 0.205 0 0 0-0.2-0.2c-0.111 0.002-0.2 0.09-0.2 0.2s0.089 0.199 0.2 0.2z m0.53 0.034a0.203 0.203 0 0 0 0.2-0.199 0.203 0.203 0 0 0-0.2-0.2 0.203 0.203 0 0 0-0.2 0.2c0.002 0.109 0.09 0.198 0.2 0.199z m0.035-0.59c0.109 0.003 0.197-0.086 0.2-0.192-0.003-0.114-0.091-0.202-0.2-0.2-0.11-0.002-0.199 0.086-0.2 0.2a0.195 0.195 0 0 0 0.2 0.192z m-0.53-0.035c0.109 0.001 0.198-0.088 0.2-0.2-0.002-0.107-0.091-0.196-0.2-0.2-0.11 0.004-0.198 0.093-0.199 0.2 0.001 0.112 0.09 0.201 0.199 0.2z m0.174-0.539c0.113-0.004 0.206-0.098 0.209-0.208-0.002-0.118-0.096-0.211-0.209-0.208-0.117-0.003-0.21 0.09-0.209 0.209-0.002 0.112 0.092 0.205 0.209 0.209z m0.643 0.105c0.116-0.004 0.209-0.098 0.209-0.209 0.001-0.118-0.093-0.211-0.209-0.208-0.114-0.003-0.206 0.09-0.208 0.208 0.002 0.112 0.094 0.205 0.21 0.209z m-0.226-0.54c0.118-0.002 0.216-0.1 0.218-0.216-0.002-0.125-0.099-0.223-0.217-0.227-0.123 0.003-0.221 0.101-0.216 0.226-0.004 0.117 0.094 0.214 0.217 0.216zM11.961 3.84c0.119-0.002 0.217-0.1 0.217-0.217a0.224 0.224 0 0 0-0.217-0.226c-0.123 0.003-0.221 0.101-0.217 0.226-0.003 0.117 0.094 0.215 0.218 0.217z m-0.243-0.538c0.124-0.003 0.222-0.1 0.226-0.218a0.232 0.232 0 0 0-0.226-0.226c-0.117 0.003-0.216 0.101-0.217 0.226a0.224 0.224 0 0 0 0.218 0.218z m0.591 0a0.244 0.244 0 0 0 0.243-0.244c0-0.133-0.108-0.241-0.243-0.243a0.252 0.252 0 0 0-0.243 0.243c0.004 0.134 0.112 0.242 0.243 0.244z m0.191 0.747c0.131-0.002 0.239-0.11 0.243-0.243-0.004-0.133-0.112-0.241-0.243-0.244a0.245 0.245 0 0 0-0.243 0.244 0.245 0.245 0 0 0 0.243 0.243z m0.365-0.461c0.142-0.003 0.255-0.116 0.252-0.252 0.003-0.142-0.109-0.256-0.251-0.259-0.138 0.003-0.251 0.117-0.251 0.261 0.001 0.136 0.114 0.25 0.251 0.253z m0.486 0.487a0.27 0.27 0 0 0 0.27-0.261c-0.003-0.151-0.123-0.27-0.269-0.269-0.147-0.001-0.266 0.118-0.269 0.269 0.003 0.143 0.122 0.262 0.27 0.261zM12.891 4.544a0.268 0.268 0 0 0 0.27-0.261c-0.003-0.15-0.122-0.27-0.27-0.269a0.259 0.259 0 0 0-0.26 0.269c-0.005 0.144 0.114 0.262 0.26 0.261z" /></svg>