<svg xmlns="http://www.w3.org/2000/svg" fill="currentColor" width="1em" height="1em" viewBox="0 0 16 16"><path d="M4.83 7.808l-1.579 1.253-2.019 1.547c-0.576 0.452-1.048-0.092-1.048-0.092-0.448-0.588 0.067-0.973 0.066-0.973l2.517-1.968s0.275-0.287 0.999-0.081l1.064 0.315m2.949-2.516c-0.79 0-1.427-0.637-1.427-1.427s0.637-1.434 1.427-1.433 1.432 0.643 1.432 1.433-0.641 1.427-1.432 1.427M4.24 13.121a0.765 0.765 0 0 0-0.765-0.765 0.764 0.764 0 0 0-0.765 0.765 0.764 0.764 0 0 0 0.765 0.765 0.764 0.764 0 0 0 0.765-0.765m7.083 0a0.765 0.765 0 0 0-0.765-0.765c-0.421 0-0.763 0.342-0.763 0.765a0.764 0.764 0 1 0 1.528 0m-8.782-1.504c-0.098-0.271-0.14-0.566-0.073-0.865a1.55 1.55 0 0 1 0.508-0.824l10.582-8.423C13.816 1.316 14.132 1.2 14.476 1.2A1.522 1.522 0 0 1 16 2.726c0 0.492-0.224 0.928-0.58 1.209-0.126 0.11-0.31 0.096-0.417-0.031a0.298 0.298 0 0 1 0.034-0.427c0.228-0.167 0.372-0.442 0.372-0.751 0-0.515-0.419-0.934-0.932-0.934-0.219 0-0.411 0.073-0.569 0.19L10.833 4.432l-1.609 4.656 0.976 2.319c0.114-0.026 0.236-0.047 0.358-0.047 0.975 0 1.764 0.79 1.763 1.761 0 0.977-0.788 1.762-1.763 1.762a1.758 1.758 0 0 1-1.76-1.762 1.744 1.744 0 0 1 0.828-1.49L8.923 9.952l-0.059 0.179c-0.214 0.659-0.926 1.019-1.584 0.8l-3.266-1.077-0.638 0.509a0.95 0.95 0 0 0-0.316 0.507c-0.043 0.19-0.012 0.373 0.051 0.537 0.114-0.022 0.24-0.047 0.364-0.048 0.971 0 1.76 0.79 1.76 1.762 0 0.978-0.789 1.762-1.76 1.762s-1.764-0.785-1.764-1.762c0.001-0.637 0.323-1.196 0.83-1.504" /></svg>