<svg xmlns="http://www.w3.org/2000/svg" fill="currentColor" width="1em" height="1em" viewBox="0 0 16 16"><path d="M8.489 8.848c1.018 0 1.842-0.824 1.842-1.842s-0.824-1.842-1.842-1.842-1.844 0.824-1.844 1.842c0 1.018 0.826 1.842 1.844 1.842z" />,<path d="M6.753 13.326c0 0.198 0.159 0.458 0.359 0.458l0.002-0.003h0.848l0.002 0.003c0.2 0 0.458-0.256 0.457-0.454v-1.568c0-0.198-0.258-0.45-0.457-0.45H7.112c-0.187 0-0.339 0.238-0.359 0.418 1.225 0 1.218 1.596 0 1.596z m-0.773-3.889a1.088 1.088 0 0 1 0.758-0.304H10.371l3.657-3.665c0.782-0.787 1.807 0.234 1.024 1.021l-4.008 4.021 0.001 5.49H6.236V13.334H4.063a0.82 0.82 0 0 1-0.82-0.82 0.826 0.826 0 0 1 0.177-0.513l2.56-2.564zM0.17 2.282l0.447 0.446 2.157-2.204-0.447-0.447-0.977 0.37L0.901 0 0 0.897l0.447 0.451z m3.322 7.005a0.481 0.481 0 0 0 0.41 0.553c0.267 0.044 0.52-0.15 0.553-0.409 0.04-0.271-0.143-0.517-0.412-0.554-0.266-0.04-0.516 0.143-0.551 0.411z m0.423-1.113c0.037-0.256-0.137-0.491-0.392-0.527s-0.489 0.139-0.526 0.392a0.459 0.459 0 0 0 0.392 0.524 0.461 0.461 0 0 0 0.526-0.389z m-0.541-1.256c0.033-0.242-0.13-0.465-0.371-0.502a0.44 0.44 0 0 0-0.498 0.373 0.436 0.436 0 0 0 0.37 0.499c0.242 0.04 0.467-0.135 0.5-0.37z m-0.539-1.256a0.416 0.416 0 0 0-0.352-0.473 0.415 0.415 0 0 0-0.473 0.352c-0.033 0.231 0.124 0.436 0.352 0.472s0.442-0.128 0.473-0.351z m-0.541-1.256c0.031-0.216-0.117-0.418-0.331-0.447-0.218-0.029-0.414 0.117-0.445 0.333-0.031 0.22 0.115 0.41 0.33 0.447a0.394 0.394 0 0 0 0.446-0.333zM1.024 3.043c-0.031 0.205 0.11 0.384 0.311 0.418s0.39-0.114 0.419-0.312c0.029-0.202-0.11-0.392-0.311-0.417-0.207-0.029-0.392 0.11-0.419 0.311z m4.286 4.472c0.013-0.264 0.24-0.472 0.506-0.458a0.483 0.483 0 0 1 0.457 0.509c-0.009 0.268-0.238 0.469-0.505 0.454-0.266-0.008-0.472-0.235-0.458-0.505z m-0.304-0.524a0.455 0.455 0 0 1-0.436-0.483 0.461 0.461 0 0 1 0.482-0.436 0.46 0.46 0 0 1 0.436 0.483c-0.011 0.256-0.227 0.447-0.482 0.436zM4.246 5.958c-0.24-0.011-0.427-0.212-0.414-0.454s0.216-0.428 0.458-0.413a0.437 0.437 0 0 1 0.414 0.457c-0.009 0.238-0.216 0.425-0.457 0.41z m-0.762-1.029a0.41 0.41 0 0 1-0.392-0.432 0.415 0.415 0 0 1 0.435-0.392 0.413 0.413 0 0 1 0.392 0.432 0.41 0.41 0 0 1-0.434 0.392z m-0.759-1.029c-0.214-0.011-0.383-0.194-0.37-0.41 0.011-0.212 0.192-0.377 0.408-0.37a0.391 0.391 0 0 1 0.37 0.411c-0.009 0.212-0.194 0.381-0.408 0.369z m-1.11-1.414a0.366 0.366 0 0 1 0.384-0.347 0.362 0.362 0 0 1 0.348 0.381c-0.009 0.202-0.183 0.363-0.384 0.347-0.202-0.011-0.359-0.179-0.348-0.38zM6.63 5.442c-0.268 0.015-0.5-0.19-0.509-0.458a0.484 0.484 0 0 1 0.463-0.509 0.482 0.482 0 0 1 0.502 0.465c0.016 0.26-0.189 0.491-0.456 0.502z m-0.58-1.263c0.013 0.245-0.178 0.458-0.429 0.468s-0.467-0.18-0.477-0.428c-0.011-0.253 0.183-0.461 0.433-0.476 0.247-0.011 0.459 0.18 0.472 0.436z m-1.037-0.762a0.421 0.421 0 0 1-0.402 0.439c-0.234 0.011-0.438-0.168-0.447-0.399a0.426 0.426 0 0 1 0.406-0.447c0.231-0.011 0.43 0.168 0.443 0.407z m-1.036-0.762c0.009 0.216-0.157 0.403-0.375 0.41-0.218 0.011-0.406-0.157-0.416-0.373a0.398 0.398 0 0 1 0.379-0.414c0.214-0.011 0.401 0.158 0.412 0.377zM2.208 1.93a0.365 0.365 0 0 1 0.35-0.385 0.366 0.366 0 0 1 0.383 0.348c0.009 0.202-0.147 0.374-0.349 0.381-0.202 0.011-0.377-0.146-0.384-0.344z m0.907-0.978a0.371 0.371 0 0 1 0.419 0.312c0.03 0.202-0.11 0.392-0.313 0.417-0.202 0.033-0.39-0.11-0.419-0.311a0.372 0.372 0 0 1 0.313-0.418z m1.741 0.85a0.387 0.387 0 0 1-0.33 0.439c-0.213 0.033-0.412-0.117-0.441-0.326-0.029-0.212 0.119-0.413 0.329-0.443 0.211-0.029 0.41 0.118 0.442 0.33z m1.322 0.534c0.033 0.227-0.123 0.432-0.346 0.466s-0.434-0.124-0.466-0.345c-0.031-0.223 0.125-0.432 0.346-0.465s0.432 0.121 0.466 0.345z m1.32 0.539c0.035 0.234-0.128 0.45-0.362 0.487-0.233 0.033-0.454-0.128-0.486-0.362-0.033-0.234 0.128-0.454 0.361-0.488a0.428 0.428 0 0 1 0.487 0.363z m1.322 0.538a0.451 0.451 0 0 1-0.379 0.509c-0.243 0.037-0.474-0.136-0.507-0.377-0.035-0.245 0.134-0.476 0.377-0.513a0.453 0.453 0 0 1 0.509 0.381z m1.322 0.539a0.468 0.468 0 0 1-0.395 0.531c-0.254 0.036-0.496-0.143-0.531-0.396-0.037-0.256 0.139-0.498 0.393-0.535 0.256-0.037 0.496 0.143 0.533 0.4z m0.768 0.12a0.494 0.494 0 0 1 0.554 0.418c0.04 0.264-0.148 0.513-0.412 0.553-0.265 0.04-0.518-0.147-0.552-0.414-0.038-0.268 0.144-0.516 0.41-0.557z" /></svg>