<svg xmlns="http://www.w3.org/2000/svg" fill="currentColor" width="1em" height="1em" viewBox="0 0 16 16"><path d="M7.671 2.184a1.063 1.063 0 0 0 1.065-1.063c0-0.586-0.477-1.064-1.065-1.064a1.065 1.065 0 0 0-1.065 1.064 1.062 1.062 0 0 0 1.065 1.063M14.346 14.389a2.295 2.295 0 0 0-0.97-0.216c-0.34 0-0.671 0.08-0.97 0.216-0.284 0.124-0.603 0.2-0.938 0.2-0.334 0-0.658-0.076-0.943-0.2a2.296 2.296 0 0 0-0.97-0.216c-0.345 0-0.676 0.08-0.969 0.216-0.288 0.124-0.607 0.2-0.942 0.201-0.335 0-0.654-0.076-0.943-0.201a2.307 2.307 0 0 0-0.969-0.216c-0.342 0-0.673 0.08-0.969 0.216-0.286 0.124-0.605 0.2-0.938 0.201-0.335 0-0.658-0.076-0.943-0.201a2.309 2.309 0 0 0-0.969-0.216c-0.346 0-0.677 0.08-0.969 0.216-0.291 0.124-0.61 0.201-0.944 0.201V16c0.334 0 0.653-0.072 0.944-0.2a2.267 2.267 0 0 1 0.969-0.218c0.344 0 0.675 0.08 0.968 0.218A2.294 2.294 0 0 0 3.824 16c0.333 0 0.652-0.072 0.938-0.2a2.294 2.294 0 0 1 0.969-0.218c0.344 0 0.675 0.08 0.97 0.218A2.31 2.31 0 0 0 7.643 16c0.334 0 0.654-0.072 0.942-0.2a2.28 2.28 0 0 1 0.97-0.218c0.346 0 0.677 0.08 0.969 0.218A2.307 2.307 0 0 0 11.468 16c0.335 0 0.654-0.072 0.938-0.2a2.309 2.309 0 0 1 0.97-0.218c0.347 0 0.677 0.08 0.97 0.218a2.325 2.325 0 0 0 0.944 0.2v-1.411c-0.335 0-0.654-0.076-0.944-0.201" />,<path d="M14.369 0.014a0.207 0.207 0 0 0-0.22 0.046L10.271 3.942a0.483 0.483 0 0 0-0.198-0.043H8.602c-0.251-0.255-1.58-1.584-1.581-1.584-0.068-0.068-0.156-0.107-0.243-0.131-0.306-0.264-0.765-0.261-1.056 0.032L3.422 4.512a0.478 0.478 0 0 0-0.14 0.339v1.687H0.051v0.535H3.282v3.768a0.857 0.857 0 0 0 0.856 0.858c0.471 0 0.864-0.384 0.864-0.859V7.074H7.605v4.996H0.051v0.911h8.091V7.074h0.927v-0.536H5.002V6.059l2.143-2.145 0.874 0.875c0.096 0.098 0.23 0.15 0.37 0.15h1.684a0.52 0.52 0 0 0 0.522-0.52c0-0.068-0.016-0.134-0.039-0.195L14.091 0.691v12.306h0.404V0.204c0-0.083-0.051-0.156-0.126-0.19" /></svg>