<svg xmlns="http://www.w3.org/2000/svg" fill="currentColor" width="1em" height="1em" viewBox="0 0 16 16"><path d="M6.827 4.508H3.888c-0.711 0-0.711 0.924 0 0.925H6.827c0.704 0 0.704-0.924 0-0.925" />,<path d="M6.827 4.508H3.888c-0.711 0-0.711 0.924 0 0.925H6.827c0.704 0 0.704-0.924 0-0.925M6.485 4.272a1.234 1.234 0 1 0 0-2.476 1.234 1.234 0 0 0 0 2.476" />,<path d="M6.773 4.587H3.689c-0.747 0-0.747 0.967 0 0.967H6.773c0.741 0 0.741-0.967 0-0.967" />,<path d="M12.018 4.587H8.027c0.732-0.729 2.101-2.101 2.803-2.8 0.676 0.791 1.084 1.767 1.184 2.8z m0 0.967a5.092 5.092 0 0 1-1.182 2.787c-0.622-0.615-1.76-1.76-2.525-2.524v-0.263H12.018z m-5.095 4.924v-0.041l0.003 0.022-0.003 0.023z m5.724-5.411c0-1.369-0.492-2.679-1.387-3.711 0.004-0.004-0.226-0.249-0.225-0.248L7.556 4.587l-0.061 0.057c0.011 0.018 0.027 0.027 0.036 0.044a0.681 0.681 0 0 1 0.089 0.441 0.741 0.741 0 0 1-0.066 0.267l-0.006 0.008-0.021 0.054-0.023 0.028a0.844 0.844 0 0 1-0.732 0.374h-1.698v4.533l0.003 0.009-0.96 4.814a0.693 0.693 0 1 0 1.36 0.267l0.992-4.989V10.489h0.452V10.489l0.992 4.99a0.693 0.693 0 0 0 1.36-0.267l-0.967-4.86V6.293l2.727 2.726 0.231-0.249c0.889-1.031 1.381-2.34 1.381-3.703z" /></svg>