<svg xmlns="http://www.w3.org/2000/svg" fill="currentColor" width="1em" height="1em" viewBox="0 0 16 16"><path d="M0 1.36l2.539 2.624 0.975-0.885L2.631 1.368z m11.445 7.35c0.48 0.133 0.996-0.141 1.133-0.634 0.131-0.485-0.149-0.995-0.632-1.132l-0.377-0.106-0.487 1.763 0.363 0.109z m-0.295-1.985L8.111 5.859c-0.2-0.052-0.4 0.069-0.456 0.271l-0.285 1.027c-0.056 0.202 0.053 0.409 0.257 0.47l3.039 0.856 0.484-1.757z" />,<path d="M11.63 9.644c-0.232-0.223-0.52-0.4-0.856-0.494L7.09 8.108 4.826 4.048c-0.119-0.21-0.311-0.377-0.56-0.445-0.496-0.141-1.012 0.154-1.148 0.655a0.93 0.93 0 0 0 0.072 0.688l2.832 5.02s0.232 0.377 0.815 0.571l5.149 1.459L14.373 14.446c0.079 0.084 0.183 0.149 0.308 0.185 0.36 0.101 0.736-0.116 0.841-0.476 0.068-0.255-0.013-0.523-0.192-0.688L11.63 9.644z m2.747 1.014l0.535 0.707L16 10.165l-0.918-0.517c0.086-0.651-0.312-1.281-0.953-1.464-0.704-0.197-1.436 0.215-1.631 0.927-0.2 0.716 0.212 1.452 0.916 1.649 0.334 0.097 0.675 0.044 0.963-0.102z" /></svg>