<svg xmlns="http://www.w3.org/2000/svg" fill="currentColor" width="1em" height="1em" viewBox="0 0 16 16"><path d="M12.31 3.67a1.204 1.204 0 0 0 0-2.407 1.204 1.204 0 0 0 0 2.407M9.367 6.912l2.554-1.26L14.298 7.84c0.105 0.102 0.247 0.166 0.407 0.166a0.577 0.577 0 0 0 0.379-1.008L11.69 3.881a1.312 1.312 0 0 0-0.39-0.262L8.655 2.673 7.457 0.934a0.579 0.579 0 0 0-1.04 0.273c-0.015 0.134 0.02 0.262 0.088 0.368l1.227 1.775c0.055 0.073 0.127 0.131 0.213 0.17l1.419 0.561-2.336 1.193a1.276 1.276 0 0 0-0.622 0.896l0.014 2.134-2.157 0.972a0.746 0.746 0 1 0 0.643 1.345l2.643-1.193a0.749 0.749 0 0 0 0.374-0.501l-0.007-1.327L9.753 9.236l-0.339 2.803-0.003 0.051a0.746 0.746 0 0 0 1.484 0.134l0.395-3.193c0.004-0.015 0.004-0.029 0.005-0.043a0.737 0.737 0 0 0-0.233-0.572L9.367 6.912z" />,<path d="M1.382 8.975a0.756 0.756 0 0 0-0.477 0.96c0.218 0.655 0.717 1.171 1.36 1.416l10.103 3.84c0.646 0.247 1.36 0.193 1.955-0.148a0.753 0.753 0 1 0-0.754-1.309 0.771 0.771 0 0 1-0.663 0.046L2.803 9.935a0.781 0.781 0 0 1-0.466-0.483 0.756 0.756 0 0 0-0.957-0.477" /></svg>