<svg xmlns="http://www.w3.org/2000/svg" fill="currentColor" width="1em" height="1em" viewBox="0 0 16 16"><path d="M7.394 7.981c-0.294 0.274-2.653 2.562-2.653 2.562l0.629 0.621S7.466 9.23 7.78 8.938c0.078-0.072 0.21-0.21 0.454-0.21h7.147V7.739H7.986c-0.216 0-0.421 0.085-0.592 0.242zM11.628 2.602c0.838 0 1.295-0.58 1.295-1.295 0-0.715-0.58-1.294-1.295-1.295a1.295 1.295 0 0 0 0 2.59zM9.707 4.828h0.434l-0.636 2.286H13.75l-0.636-2.286h0.434l0.66 2.286h1.123L14.429 4.08c-0.119-0.419-0.649-1.161-1.567-1.161H10.392c-0.917 0-1.446 0.742-1.566 1.161l-0.901 3.034h1.123l0.659-2.286zM6.035 6.994l-0.55-1.026-0.59-1.1s-0.067-0.101-0.191-0.041c-0.112 0.054-0.061 0.18-0.061 0.18l0.378 0.722 0.235 0.449-0.271-0.122c-0.481-0.217-0.746-0.309-0.852-0.357-0.019-0.009-0.112-0.06-0.157-0.157-0.126-0.282-0.664-1.643-0.784-1.944-0.102-0.255-0.354-0.616-0.871-0.745-0.589-0.146-1.182 0.226-1.323 0.817l-0.803 3.386C0.123 7.329 0 8.068 0 8.38s0.005 6.615 0.005 6.614c0.004 0.558 0.407 1.008 0.964 1.006 0.557-0.002 0.938-0.456 0.936-1.013 0 0 0-3.602-0.001-5.604l0.857-3.617c0.1 0.244 0.224 0.542 0.264 0.614 0.097 0.169 0.192 0.285 0.387 0.377 0 0 1.122 0.464 1.556 0.662a0.622 0.622 0 0 0 0.71-0.197l0.06-0.124 0.021 0.04s0.128 0.225 0.317 0.235c0.054-0.172-0.04-0.379-0.041-0.379z" />,<path d="M1.711 1.295a1.296 1.296 0 1 0 2.591 0 1.296 1.296 0 1 0-2.591 0" />,<path d="M4.885 9.748l2.524-2.349-0.328-0.352L4.557 9.396z" /></svg>