<svg xmlns="http://www.w3.org/2000/svg" fill="currentColor" width="1em" height="1em" viewBox="0 0 16 16"><path d="M13.093 1.608c0.425 0.002 0.773-0.346 0.777-0.776-0.003-0.428-0.351-0.776-0.777-0.777a0.785 0.785 0 0 0-0.785 0.777 0.782 0.782 0 0 0 0.785 0.778z m-7.825 12.503c-0.075 0.51 0.099 1.428 0.466 1.763 0.379 0.347 0.829-0.097 0.646-0.458-0.19-0.357-0.428-0.552-0.226-1.406l-0.886 0.101z m2.704-12.223h-2.331c-0.421 0.002-0.406 0.625 0 0.622h2.331v0.318h-2.331c-0.419-0.003-0.404 0.62 0 0.622h2.331v0.326h-2.331c-0.419 0-0.404 0.623 0 0.622h2.331v0.311h-2.331c-0.41 0.003-0.404 0.626 0 0.629h2.331v0.311h-2.331c-0.41-0.002-0.412 0.622 0 0.622h2.331v0.312h-2.331c-0.41 0.002-0.412 0.626 0 0.621h2.331v0.319h-2.331c-0.41-0.003-0.412 0.62 0 0.622h2.331v0.31h-2.331c-0.41 0-0.404 0.624 0 0.622h2.331v6.052c0.001 0.922 1.411 0.906 1.415 0V0.964c-0.004-0.421-0.352-0.954-0.925-0.957h-2.821c-0.421 0.001-0.406 0.624 0 0.623l2.331 0.007v0.31h-2.331c-0.421-0.002-0.405 0.622 0 0.623h2.331v0.318zM12.976 6.542v2.689c-0.002 0.493-0.735 0.493-0.738 0V6.558h-0.979l1.049-3.652h-0.163L11.531 4.973c-0.143 0.445-0.76 0.261-0.622-0.218l0.684-2.238c0.071-0.257 0.394-0.71 0.956-0.707h1.066c0.555-0.003 0.88 0.453 0.963 0.707l0.685 2.231c0.132 0.484-0.48 0.683-0.622 0.217l-0.614-2.059h-0.179l1.064 3.652H13.925v2.68c-0.003 0.485-0.733 0.483-0.731 0V6.542H12.976z" />,<path d="M4.53 11.135V7.017L3.745 0.226C3.727 0.045 3.616 0.003 3.512 0c-0.106 0.004-0.218 0.046-0.241 0.226l-0.761 6.791v4.118C1.078 10.385 0.001 11.551 0 12.611c0.001 0.943 0.696 1.719 1.686 1.717 0.996 0.002 1.676-0.867 1.678-1.717V8.47h0.319V12.611c-0.002 0.982 0.792 1.708 1.647 1.71 1.066-0.002 1.747-0.756 1.749-1.702-0.002-1.077-1.11-2.235-2.548-1.485zM1.678 13.466c-0.468-0.003-0.846-0.381-0.847-0.847a0.85 0.85 0 0 1 0.847-0.848c0.464 0.002 0.843 0.381 0.847 0.846-0.005 0.466-0.382 0.844-0.848 0.848z m3.722 0a0.853 0.853 0 0 1-0.847-0.847c0.003-0.467 0.381-0.846 0.847-0.848a0.851 0.851 0 0 1 0.847 0.846 0.851 0.851 0 0 1-0.847 0.848z" /></svg>