<svg xmlns="http://www.w3.org/2000/svg" fill="currentColor" width="1em" height="1em" viewBox="0 0 16 16"><path d="M3.236 14.219c1.457 0 2.639-1.182 2.639-2.641 0-1.454-1.182-2.637-2.639-2.637-1.453 0-2.636 1.182-2.636 2.638 0 1.459 1.182 2.641 2.636 2.642zM0 11.578c0-1.787 1.452-3.234 3.236-3.234 1.789 0 3.239 1.446 3.239 3.234 0 1.79-1.45 3.237-3.239 3.237C1.452 14.815 0 13.367 0 11.578z m12.764 2.671c1.453 0 2.636-1.18 2.636-2.639 0-1.457-1.182-2.637-2.636-2.637-1.457 0-2.639 1.181-2.639 2.638 0 1.459 1.182 2.64 2.639 2.64zM9.525 11.61c0-1.789 1.452-3.236 3.239-3.236 1.784 0 3.236 1.446 3.236 3.236s-1.452 3.237-3.236 3.237c-1.788 0-3.239-1.448-3.239-3.237z m0.009-7.898c0.672 0 1.218-0.542 1.218-1.214S10.206 1.28 9.534 1.28s-1.218 0.546-1.218 1.218 0.546 1.214 1.218 1.214z" />,<path d="M9.584 6.666c-0.176 0.004-0.366-0.084-0.506-0.306l-0.791-1.235-1.631 1.614 1.513 0.795c0.622 0.298 0.528 0.844 0.528 0.844v3.424c0 0.388-0.312 0.704-0.701 0.704s-0.701-0.316-0.7-0.704V9.062l-2.623-1.457a1.02 1.02 0 0 1-0.525-0.889 1.003 1.003 0 0 1 0.262-0.683l2.573-2.577c0.32-0.362 0.765-0.304 0.765-0.304 0.539 0 0.823 0.47 0.823 0.47l1.337 2.095 2.03-0.004c0.729 0 0.729 0.952 0 0.952h-2.353z" /></svg>