<svg xmlns="http://www.w3.org/2000/svg" fill="currentColor" width="1em" height="1em" viewBox="0 0 16 16"><path d="M2.817 7.889c-0.294 0-0.535 0.241-0.535 0.539a0.534 0.534 0 1 0 0.534-0.539M10.252 3.425a1.164 1.164 0 0 0 0-2.324 1.164 1.164 0 0 0 0 2.327M4.047 5.795a0.844 0.844 0 0 1-0.553 0.33 1.373 1.373 0 0 1-1.018-0.266 1.396 1.396 0 0 1-0.589-0.876l-0.015-0.167c0-0.175 0.048-0.332 0.145-0.465 0.305-0.433 1.012-0.463 1.576-0.064 0.557 0.399 0.764 1.076 0.454 1.509m11.2 7.99L13.361 11.555 12.771 8.102l-0.09-0.39c0.004 0.004-0.237-1.087-0.422-1.939l0.574 0.329c0.015 0.033 1.004 1.911 1.004 1.911a0.592 0.592 0 1 0 1.047-0.553l-1.085-2.062s-0.044-0.073-0.097-0.131c-0.079-0.077-0.25-0.175-0.25-0.175L11.35 3.898a1.271 1.271 0 0 0-1.218 0.025c-0.015 0.004-0.48 0.209-0.749 0.844L8.305 6.938l-1.701 0.33c-0.015 0.004-0.026 0.006-0.038 0.015L5.027 6.196c-0.343-0.241-0.387-0.967-0.393-0.995-0.041-0.497-0.324-0.966-0.778-1.288a1.876 1.876 0 0 0-1.363-0.342 1.295 1.295 0 0 0-0.848 0.516 1.245 1.245 0 0 0-0.228 0.73l0.02 0.236c0.079 0.458 0.361 0.883 0.771 1.178 0.416 0.294 0.909 0.419 1.364 0.342l0.107-0.023c0.012-0.007 0.694-0.218 1.025 0.01 0 0.006 1.149 0.815 1.455 1.033a0.531 0.531 0 0 0-0.085 0.272 0.591 0.591 0 0 0 0.704 0.574l2.037-0.397s0.175-0.055 0.247-0.107c0.097-0.067 0.169-0.209 0.169-0.21l0.538-1.079 0.374 1.774c-0.044 0.044-1.673 1.775-1.673 1.775l-0.029 0.032c-0.16 0.148-0.247 0.339-0.248 0.541v3.665a0.71 0.71 0 0 0 1.417 0V11.375c0.15-0.16 1.396-1.475 1.731-1.824l0.361 2.065a0.829 0.829 0 0 0 0.222 0.431c0 0.004 2.244 2.653 2.245 2.653a0.708 0.708 0 0 0 1.079-0.917" /></svg>