<svg xmlns="http://www.w3.org/2000/svg" fill="currentColor" width="1em" height="1em" viewBox="0 0 16 16"><path d="M8.053 1.907h-2.355c-0.425 0.001-0.41 0.631 0 0.628h2.355v0.322h-2.355c-0.423-0.003-0.408 0.627 0 0.628h2.355V3.814h-2.355c-0.423 0-0.408 0.63 0 0.628h2.355v0.314h-2.355c-0.414 0.002-0.408 0.632 0 0.635h2.355v0.314h-2.355c-0.414-0.002-0.416 0.628 0 0.627h2.355v0.313h-2.355c-0.414 0.002-0.416 0.632 0 0.628h2.355V7.596h-2.355c-0.414-0.003-0.416 0.627 0 0.628h2.355v0.314h-2.355c-0.414-0.001-0.408 0.629 0 0.627h2.355v6.116c0.001 0.931 1.425 0.915 1.429 0V0.973C9.478 0.548 9.126 0.01 8.548 0.008h-2.85c-0.426 0-0.41 0.63 0 0.628l2.355 0.008v0.314h-2.355c-0.425-0.003-0.409 0.627 0 0.627h2.355v0.322z m-2.731 12.346c-0.075 0.515 0.1 1.443 0.47 1.782 0.383 0.35 0.839-0.098 0.653-0.463-0.192-0.359-0.432-0.556-0.227-1.421l-0.895 0.102z" />,<path d="M4.576 11.248v-4.16L3.783 0.227C3.765 0.046 3.652 0.003 3.548 0c-0.108 0.003-0.22 0.046-0.244 0.227l-0.769 6.86v4.16C1.09 10.49 0.001 11.667 0 12.739c0.001 0.953 0.704 1.736 1.703 1.734 1.007 0.002 1.693-0.876 1.696-1.735V8.554h0.321v4.185c-0.002 0.992 0.8 1.725 1.664 1.727 1.077-0.002 1.765-0.763 1.766-1.72-0.001-1.087-1.123-2.256-2.574-1.498zM1.695 13.602c-0.473-0.002-0.855-0.384-0.855-0.856 0.001-0.471 0.383-0.853 0.856-0.855 0.47 0.002 0.852 0.384 0.856 0.855-0.003 0.472-0.385 0.854-0.855 0.856z m3.76 0a0.861 0.861 0 0 1-0.856-0.856 0.86 0.86 0 0 1 0.855-0.855 0.859 0.859 0 0 1 0.855 0.855 0.859 0.859 0 0 1-0.855 0.856z m7.763-11.93A0.802 0.802 0 0 0 14.019 0.871c0-0.444-0.359-0.803-0.801-0.801A0.797 0.797 0 0 0 12.417 0.871c-0.001 0.441 0.357 0.8 0.801 0.801z m-0.856 0.172c-0.57 0.004-1.027 0.467-1.028 1.044v2.457c0.002 0.482 0.702 0.482 0.698 0v-2.245h0.173v6.161c-0.004 0.636 0.929 0.618 0.926 0V5.682h0.165v3.579c-0.002 0.618 0.935 0.636 0.934 0V3.1h0.165v2.245c-0.002 0.485 0.695 0.485 0.691 0V2.904c0.003-0.534-0.411-1.055-1.037-1.052l-1.685-0.008z" /></svg>