<svg xmlns="http://www.w3.org/2000/svg" fill="currentColor" width="1em" height="1em" viewBox="0 0 16 16"><path d="M10.891 2.655a1.328 1.328 0 0 0 1.327-1.328C12.219 0.593 11.624-0.002 10.891 0a1.324 1.324 0 0 0-1.328 1.327c-0.002 0.733 0.594 1.328 1.328 1.328zM9.181 5.099l0.008 10.145c0.002 1.012 1.495 1.003 1.491-0.024l0.008-5.903h0.289v5.896c-0.003 1.032 1.507 1.058 1.507 0.031V5.052h0.266v3.64c-0.004 0.875 1.181 0.875 1.179 0.015V4.733c0.003-1.073-0.794-1.703-1.632-1.703h-2.367c-0.56 0-0.967 0.221-1.312 0.711l-1.195 1.741H5.354c-0.837 0-0.79 1.182-0.015 1.18H7.728c0.186 0.003 0.414-0.067 0.547-0.266l0.905-1.296zM5.284 11.315v-0.968H4.315v0.968z m0.531-2.155l-0.711-0.703-0.711 0.703 0.711 0.711z m-0.664-1.335l-0.711-0.703-0.703 0.703 0.703 0.71z" />,<path d="M6.619 15.993l1.265-6.708h-0.952L5.83 15.056H4.19L3.105 9.285H2.16l1.234 6.709z" /></svg>