<svg xmlns="http://www.w3.org/2000/svg" fill="currentColor" width="1em" height="1em" viewBox="0 0 16 16"><path d="M6.764 3.252l-0.16 0.349a0.646 0.646 0 0 1-0.582 0.367H5.644A1.213 1.213 0 0 0 7.84 3.273V3.215h-1.018a0.058 0.058 0 0 0-0.058 0.04" />,<path d="M6.022 3.661a0.335 0.335 0 0 0 0.305-0.189l0.16-0.349c0.058-0.131 0.185-0.221 0.335-0.221h1.251a1.488 1.488 0 1 0-2.877 0.759h0.829zM7.059 7.913l3.229-0.146 0.266 1.029c-1.318 0.189-3.025 0.218-3.834 0.218l0.339-1.101z m0.596-1.961l2.138-0.087 0.175 0.654c-0.582 0.029-1.61 0.081-2.528 0.136l0.215-0.703z m2.479 4.218c1.114-0.038 4.022-0.308 4.823-1.076-0.361-1.108-1.782-1.181-3.086-0.617a4.218 4.218 0 0 1-0.859 0.24l-0.269-1.028a0.625 0.625 0 0 0 0.342-0.588 0.625 0.625 0 0 0-0.65-0.602l-0.195-0.756a0.631 0.631 0 0 0-0.518-1.12s-2.758 0.026-3.622 0.258S4.945 6.563 4.945 6.563L4.189 9.018H0.596v1.152h9.536z" />,<path d="M13.091 11.626s1.953-0.025 1.953-1.934c0-0.079-0.007-0.148-0.014-0.221-1.222 0.887-4.479 1.028-4.89 1.042H0.596v1.506c0.233 0 0.47-0.052 0.68-0.146 0.343-0.16 0.727-0.247 1.105-0.247 0.375 0 0.756 0.087 1.091 0.243a1.677 1.677 0 0 0 1.373 0.003 2.604 2.604 0 0 1 2.202-0.004 1.651 1.651 0 0 0 1.372 0.004 2.593 2.593 0 0 1 2.196-0.004c0.221 0.102 0.46 0.15 0.691 0.149 0.029 0 0.054-0.004 0.082-0.004l0.285 1.091c-0.122 0.023-0.244 0.038-0.37 0.038-0.313 0-0.615-0.068-0.883-0.189a2.144 2.144 0 0 0-1.811 0 2.129 2.129 0 0 1-1.76 0 2.145 2.145 0 0 0-1.809 0 2.127 2.127 0 0 1-1.754 0c-0.272-0.128-0.582-0.204-0.905-0.204-0.32 0-0.628 0.076-0.902 0.204-0.269 0.121-0.567 0.189-0.88 0.189v1.318c0.314 0 0.611-0.07 0.882-0.189 0.273-0.128 0.582-0.204 0.902-0.204 0.323 0 0.633 0.076 0.904 0.204a2.128 2.128 0 0 0 1.754 0c0.276-0.128 0.585-0.204 0.907-0.204 0.324 0 0.633 0.076 0.906 0.204a2.124 2.124 0 0 0 1.76 0c0.272-0.128 0.579-0.204 0.902-0.204 0.324 0 0.634 0.076 0.906 0.204a2.141 2.141 0 0 0 1.76 0 2.145 2.145 0 0 1 1.809 0c0.268 0.119 0.567 0.189 0.882 0.189v-1.318c-0.313 0-0.614-0.068-0.882-0.189a2.145 2.145 0 0 0-1.811 0c-0.022 0.009-0.044 0.015-0.064 0.024L11.84 11.927a3.68 3.68 0 0 0 0.145-0.055c0.345-0.16 0.727-0.247 1.106-0.247" /></svg>