<svg xmlns="http://www.w3.org/2000/svg" fill="currentColor" width="1em" height="1em" viewBox="0 0 16 16"><path d="M9.164 2.888c0.912 0 1.281 0.751 1.419 1.165l1.12 3.681c0.223 0.792-0.784 1.12-1.024 0.348l-1.007-3.38h-0.294L11.125 10.715H9.516v4.687c0 0.799-1.202 0.795-1.203 0V10.684h-0.49L7.824 15.395c0 0.806-1.207 0.806-1.207 0l0-4.68H5.002l1.733-6.013h-0.271l-1.008 3.392c-0.24 0.739-1.256 0.436-1.023-0.356L5.552 4.053c0.12-0.42 0.487-1.165 1.407-1.165h2.205z" />,<path d="M6.762 1.306a1.306 1.306 0 1 0 2.612 0 1.306 1.306 0 1 0-2.612 0" /></svg>