<svg xmlns="http://www.w3.org/2000/svg" fill="currentColor" width="1em" height="1em" viewBox="0 0 16 16"><path d="M11.063 3.332A1.177 1.177 0 1 0 11.058 0.978a1.177 1.177 0 0 0 0.005 2.354z" />,<path d="M5.182 6.316a0.59 0.59 0 1 1-0.85-0.817l1.974-2.272a0.592 0.592 0 0 1 0.455-0.214H9.618a0.764 0.764 0 0 1 0.538 0.217L11.977 5.049l1.511-1.506a0.61 0.61 0 0 1 0.866 0.853L12.533 6.235c-0.551 0.551-0.996 0.082-0.995 0.081l-1.12-1.12-1.742 2.016 1.6 1.6s0.334 0.313 0.142 0.936L9.522 13.742a0.764 0.764 0 1 1-1.481-0.345l0.736-3.276-1.813-1.767-1.565 1.742s-0.254 0.309-0.924 0.284l-3.168 0.009A0.764 0.764 0 0 1 0.551 9.796a0.747 0.747 0 0 1 0.761-0.925l2.725 0.013 4.036-4.676-1.053-0.004-1.834 2.112z" /></svg>