<svg xmlns="http://www.w3.org/2000/svg" fill="currentColor" width="1em" height="1em" viewBox="0 0 16 16"><path d="M5.876 2.963c0.233-0.778-0.203-1.601-0.983-1.839-0.776-0.24-1.601 0.196-1.842 0.977-0.238 0.781 0.203 1.603 0.98 1.841 0.781 0.241 1.605-0.198 1.845-0.979" />,<path d="M8.637 7.498l-0.559-3.452L11.494 2.048c0.162-0.09 0.289-0.236 0.343-0.42A0.712 0.712 0 0 0 11.358 0.748a0.708 0.708 0 0 0-0.573 0.079L5.916 3.686c-0.171 0.09-0.319 0.217-0.446 0.365l-2.054 2.756-2.827-0.337a0.707 0.707 0 0 0-0.416 0.383 0.704 0.704 0 0 0 0.365 0.929 0.669 0.669 0 0 0 0.462 0.037l2.878 0.327a0.724 0.724 0 0 0 0.276-0.189l1.168-1.467 0.559 3.167A1.58 1.58 0 0 0 6.706 10.707l2.509 0.749 0.371 2.883a0.922 0.922 0 0 0 0.601 0.732c0.478 0.171 1.003-0.083 1.169-0.562 0.053-0.143 0.062-0.3 0.041-0.446l-0.453-3.527a0.931 0.931 0 0 0-0.455-0.624l-1.562-0.469 2.585-1.566L14.671 9.276c0.02 0.009 0.039 0.018 0.058 0.028 0.478 0.166 1.002-0.083 1.169-0.562a0.92 0.92 0 0 0-0.478-1.136l-3.602-1.606c-0.019-0.005-0.03-0.014-0.048-0.018-0.259-0.09-0.534-0.058-0.753 0.062l-2.381 1.454h0.001z" /></svg>