<svg xmlns="http://www.w3.org/2000/svg" fill="currentColor" width="1em" height="1em" viewBox="0 0 16 16"><path d="M12.835 2.565c0.709 0 1.285-0.572 1.285-1.281 0-0.708-0.576-1.284-1.284-1.284-0.708 0-1.28 0.576-1.281 1.284a1.279 1.279 0 0 0 1.28 1.281z m-3.524 3.075h-1.931c-0.766 0-0.766 1.007 0 1.008l2.208-0.004c0.164 0 0.333-0.087 0.463-0.291l1.11-1.75-0.003 10.401c0 0.397 0.323 0.72 0.72 0.72a0.719 0.719 0 0 0 0.719-0.72v-6.033h0.484l-0.003 6.033a0.72 0.72 0 0 0 1.44 0V4.603h0.478v3.833c0 0.773 1.007 0.773 1.004 0V4.523c0-0.852-0.66-1.689-1.66-1.689h-2.368c-0.576 0-1.077 0.294-1.372 0.746l-1.289 2.06z" />,<path d="M1.606 12.08c1.155 0 2.091 0.936 2.091 2.091l-0.019 1.421h2.463l2.227-6.284 0.012-2.129-7.478 0.003-0.003 4.894 0.707 0.004z" />,<path d="M0 14.171c0-0.871 0.708-1.579 1.58-1.579 0.872 0 1.58 0.708 1.579 1.58 0 0.872-0.708 1.58-1.579 1.579C0.708 15.751 0 15.043 0 14.171z m1.58 0.685a0.686 0.686 0 1 0 0.001-1.371 0.686 0.686 0 0 0-0.002 1.371z m5.421-10.893l-0.296 0.144-0.139-0.292-0.292 0.141-0.141-0.293-0.291 0.141-0.144-0.292h0.004l-0.296 0.144-0.14-0.296v0.004l-0.292 0.141-0.139-0.3-0.887 2.526c-0.072 0.205 0.039 0.432 0.242 0.501l1.433 0.496a0.393 0.393 0 0 0 0.5-0.242l0.878-2.523zM5.747 1.402l-0.413-0.349L0.474 6.812l0.416 0.347z" /></svg>