<svg xmlns="http://www.w3.org/2000/svg" fill="currentColor" width="1em" height="1em" viewBox="0 0 16 16"><path d="M11.159 0c-0.758 0-1.375 0.625-1.376 1.392 0 0.772 0.617 1.394 1.376 1.394 0.762 0 1.383-0.622 1.383-1.394C12.541 0.625 11.921 0 11.159 0M0.753 9.609c-0.12-0.195-0.37-0.253-0.56-0.131-0.193 0.119-0.25 0.372-0.131 0.567a0.409 0.409 0 0 0 0.564 0.13 0.415 0.415 0 0 0 0.127-0.566m0.283 1.137c-0.118-0.191-0.368-0.249-0.563-0.127a0.412 0.412 0 0 0-0.126 0.564 0.4 0.4 0 0 0 0.557 0.13 0.415 0.415 0 0 0 0.132-0.567m0.282 1.14c-0.118-0.195-0.375-0.253-0.561-0.132-0.195 0.12-0.25 0.373-0.132 0.567 0.118 0.191 0.374 0.249 0.562 0.129a0.411 0.411 0 0 0 0.131-0.564m0.279 1.138a0.405 0.405 0 0 0-0.558-0.133 0.415 0.415 0 0 0-0.131 0.567c0.118 0.195 0.368 0.253 0.563 0.133 0.187-0.12 0.247-0.374 0.126-0.567M8.213 15.341a0.416 0.416 0 0 0-0.268 0.519c0.072 0.22 0.301 0.336 0.513 0.27a0.42 0.42 0 0 0 0.268-0.519c-0.071-0.217-0.3-0.336-0.514-0.27m1.158 0.009c-0.214 0.065-0.33 0.297-0.262 0.514 0.069 0.22 0.3 0.34 0.512 0.27a0.415 0.415 0 0 0 0.263-0.519c-0.07-0.215-0.296-0.336-0.513-0.265m1.166 0.004a0.409 0.409 0 0 0-0.267 0.518c0.069 0.216 0.298 0.338 0.514 0.266 0.212-0.066 0.333-0.299 0.26-0.52a0.4 0.4 0 0 0-0.507-0.264m1.155 0.004a0.415 0.415 0 0 0-0.261 0.52c0.071 0.214 0.3 0.334 0.512 0.264a0.408 0.408 0 0 0 0.263-0.513 0.409 0.409 0 0 0-0.514-0.27M14.463 6.174h-2.408l-1.108-2.533a0.834 0.834 0 0 0-0.052-0.121c-0.004-0.007-0.008-0.012-0.008-0.016l-0.018-0.046-0.004 0.004c-0.206-0.44-0.636-0.755-1.146-0.775a1.003 1.003 0 0 0-0.279 0.024L3.39 4.147a0.684 0.684 0 0 0-0.508 0.824c0.082 0.371 0.442 0.599 0.808 0.516l4.039-0.971-3.069 5.118H1.375l0.728 2.892c0.025 0.087 0.025 0.106 0.052 0.152 0.103 0.17 0.32 0.224 0.485 0.12 0.09-0.052 0.147-0.145 0.164-0.239l0.435-1.34 0.016-0.055 2.024-0.007c0.403 0 0.748-0.112 0.953-0.454l0.93-1.558 2.072 2.085-0.879 3.496H11.397a0.358 0.358 0 0 0 0.357-0.354c0-0.154-0.095-0.263-0.214-0.329l-1.311-0.733 0.629-2.514s0.157-0.531-0.34-1.021l-1.695-1.716s0.907-1.506 1.488-2.473l0.675 1.548a0.668 0.668 0 0 0 0.251 0.294c0 0.004 0.007 0.004 0.007 0.009 0.107 0.069 0.235 0.112 0.373 0.112h2.832c0.379 0.004 0.682-0.309 0.685-0.685a0.68 0.68 0 0 0-0.672-0.69" /></svg>