<svg xmlns="http://www.w3.org/2000/svg" fill="currentColor" width="1em" height="1em" viewBox="0 0 16 16"><path d="M6.227 3.92a1.056 1.056 0 1 0 0-2.115 1.056 1.056 0 0 0 0 2.112M7.472 12.464h5.032s0.325 0.021 0.971-0.496l1.104-0.843v0.95l-1.126 0.84s-0.336 0.272-0.896 0.336H7.05l0.422-0.789z m-7.008 0.784h5.034l0.419-0.784H0.842l-0.42 0.784H0.464z m6.307-8.042a1.059 1.059 0 0 0-2.118 0v2.592c0 0.326 0.16 0.634 0.397 0.828H2.678l-1.28 2.328a0.389 0.389 0 0 0 0.344 0.56h8.736s0.378 0.064 0.944-0.384l2.266-1.668-0.856-1.496s-0.192-0.363-0.915-0.472l-1.712-0.288-0.919-1.536-0.011-0.016a0.368 0.368 0 0 0-0.517-0.035v0.005a0.365 0.365 0 0 0-0.089 0.406l0.681 1.136v0.012l-0.854 1.452-1.725-0.656V7.328h1.36a0.496 0.496 0 0 0 0.487-0.678 0.496 0.496 0 0 0-0.46-0.32l-1.392-0.005v-1.114" fill-rule="evenodd" /></svg>