<svg xmlns="http://www.w3.org/2000/svg" fill="currentColor" width="1em" height="1em" viewBox="0 0 16 16"><path d="M5.066 2.64a1.326 1.326 0 1 0 0-2.648 1.326 1.326 0 0 0 0 2.65M5.92 14.01A3.932 3.932 0 0 1 1.98 10.076c0-1.192 0.54-2.254 1.38-2.976l-0.072-1.23A4.952 4.952 0 0 0 0.94 10.076a4.976 4.976 0 0 0 4.98 4.976c2.02 0 3.752-1.22 4.53-2.952l-0.7-1.212c-0.376 1.78-1.94 3.12-3.832 3.12" />,<path d="M13.734 11.666h-0.92L10.58 7.806a0.76 0.76 0 0 0-0.64-0.376H6.626l-0.036-1H9c0.33-0.02 0.6-0.272 0.6-0.606a0.6 0.6 0 0 0-0.6-0.6H6.524l-0.086-1.14a1.288 1.288 0 0 0-1.35-1.2 1.284 1.284 0 0 0-1.208 1.35l0.232 4.02c0.06 0.704 0.652 1.208 1.35 1.204H9.76l1.756 3.036a0.792 0.792 0 0 0 0.68 0.36v0.014h1.54c0.332-0.02 0.6-0.27 0.6-0.604a0.6 0.6 0 0 0-0.6-0.6" /></svg>