<svg xmlns="http://www.w3.org/2000/svg" fill="currentColor" width="1em" height="1em" viewBox="0 0 16 16"><path d="M11.505 5.555a2.856 2.856 0 0 1-1.362-3.81 2.862 2.862 0 0 1 3.808-1.358 2.865 2.865 0 0 1 1.36 3.812 2.858 2.858 0 0 1-3.806 1.357z m2.665 3.985a1446.144 1446.144 0 0 1-2.095 4.411c-0.845 1.779-2.981 2.541-4.769 1.703-0.579-0.282-1.024-0.71-1.398-1.178-0.566-0.717-0.946-2.624-0.945-2.624-0.595 0.417-2.114 1.376-2.743 1.824a1.271 1.271 0 0 1-1.766-0.307 1.266 1.266 0 0 1 0.301-1.766 533.613 533.613 0 0 1 3.411-2.339 1.683 1.683 0 0 1 2.349 0.406l1.064 2.163 1.696-3.42-1.479-0.433a1.233 1.233 0 0 1-0.751-0.619l-1.446-2.784a1.235 1.235 0 1 1 2.189-1.142l1.209 2.325c0.796 0.234 4.038 1.178 4.039 1.178 0.175 0.054 0.323 0.154 0.455 0.268a1.832 1.832 0 0 1 0.677 2.33v0.001z" fill-rule="evenodd" /></svg>