<svg xmlns="http://www.w3.org/2000/svg" fill="currentColor" width="1em" height="1em" viewBox="0 0 16 16"><path d="M15.436 11.546a2.153 2.153 0 0 1-0.882-0.189 2.121 2.121 0 0 0-1.808 0c-0.269 0.116-0.567 0.189-0.88 0.189-0.31 0-0.611-0.073-0.877-0.189a2.113 2.113 0 0 0-1.806 0 2.127 2.127 0 0 1-1.76 0 2.102 2.102 0 0 0-1.807 0 2.118 2.118 0 0 1-1.757 0c-0.276-0.131-0.582-0.204-0.902-0.204-0.326 0-0.631 0.073-0.908 0.204-0.269 0.116-0.567 0.189-0.88 0.189v-1.318c0.313 0 0.611-0.073 0.879-0.192 0.276-0.124 0.582-0.198 0.905-0.197 0.32 0 0.625 0.073 0.904 0.197a2.121 2.121 0 0 0 1.758 0 2.182 2.182 0 0 1 0.901-0.197c0.32 0 0.63 0.073 0.905 0.197a2.129 2.129 0 0 0 1.76 0c0.271-0.124 0.582-0.198 0.902-0.197 0.32 0 0.63 0.073 0.902 0.197 0.268 0.121 0.567 0.192 0.878 0.192 0.313 0 0.611-0.073 0.88-0.192 0.276-0.124 0.582-0.198 0.908-0.197 0.317 0 0.625 0.073 0.902 0.197 0.265 0.121 0.567 0.192 0.88 0.192v1.318zM11.849 6.044l2.592 0.2-0.197-1.323L12.339 4.785c-0.512-0.025-0.436 0.49-0.436 0.491l-0.054 0.768zM7.04 5.741a0.858 0.858 0 0 0 0-1.716 0.858 0.858 0 0 0 0 1.716" />,<path d="M1.731 9.053c0.113-0.033 0.218-0.073 0.32-0.121a2.131 2.131 0 0 1 1.809 0 2.121 2.121 0 0 0 1.756 0 2.103 2.103 0 0 1 1.809 0 2.128 2.128 0 0 0 1.76 0 2.115 2.115 0 0 1 1.804 0c0.268 0.122 0.567 0.193 0.879 0.194 0.313 0 0.611-0.073 0.881-0.192a2.119 2.119 0 0 1 1.807 0c0.266 0.122 0.564 0.193 0.877 0.193l-0.291-2.349L4.364 5.873 5.988 4.233 5.274 4.167 3.651 5.811l-3.53-0.291C0.102 6.729 1.44 8.727 1.731 9.056" /></svg>