<svg xmlns="http://www.w3.org/2000/svg" fill="currentColor" width="1em" height="1em" viewBox="0 0 16 16"><path d="M13.113 6.956a0.719 0.719 0 1 0 1.437 0 0.719 0.719 0 1 0-1.437 0" />,<path d="M8.74 3.712a1.025 1.025 0 0 0 1.025-1.025A1.026 1.026 0 0 0 8.74 1.663a1.025 1.025 0 0 0 0 2.049z m-5.559 0.007c-0.575 0-1.04-0.462-1.04-1.032C2.143 2.117 2.606 1.655 3.182 1.655c0.574 0 1.04 0.462 1.04 1.032s-0.466 1.032-1.04 1.032z m11.692 4.31h-1.94c-0.009 0-0.648-0.058-0.648-0.058l-0.813-2.832C11.145 4 10.189 4.035 10.189 4.035H7.56s-0.954-0.035-1.281 1.104l-0.401 1.395-0.4-1.395c-0.328-1.139-1.282-1.105-1.282-1.104h-2.034s-0.955-0.035-1.282 1.104L0.061 7.993c-0.078 0.267 0.068 0.47 0.301 0.537 0.233 0.067 0.471-0.051 0.532-0.264l0.798-2.78 0.389-0.001-1.164 4.815h1.029v3.42a0.509 0.509 0 0 0 0.509 0.511 0.512 0.512 0 0 0 0.511-0.511V10.3h0.431v3.42a0.51 0.51 0 0 0 0.509 0.511 0.512 0.512 0 0 0 0.512-0.512V10.299h1.011l-1.152-4.815 0.387 0.001L5.453 8.237c0.013 0.047 0.034 0.089 0.061 0.128 0.077 0.116 0.211 0.182 0.363 0.176 0.15 0.005 0.284-0.059 0.361-0.175a0.373 0.373 0 0 0 0.067-0.141l0.785-2.74 0.358 0v8.136a0.603 0.603 0 0 0 0.604 0.601 0.601 0.601 0 0 0 0.6-0.601v-4.629h0.445v4.629a0.601 0.601 0 0 0 0.601 0.601c0.333 0 0.605-0.269 0.605-0.601v-8.136l0.389 0 0.764 2.781c0.04 0.137 0.155 0.228 0.292 0.262 0.006 0.002 0.009 0.006 0.015 0.005 0.12 0.028 0.681 0.186 1.094 0.304V13.883a0.423 0.423 0 0 0 0.845 0V11.362H14.032v2.521c0 0.233 0.189 0.423 0.422 0.423s0.424-0.189 0.424-0.423V9.17h0.326v1.598c0 0.174 0.142 0.316 0.314 0.316 0.174 0 0.311-0.142 0.311-0.316V8.951c0-0.509-0.447-0.921-0.956-0.922z" /></svg>