<svg xmlns="http://www.w3.org/2000/svg" fill="currentColor" width="1em" height="1em" viewBox="0 0 16 16"><path d="M3.224 10.08c0.778-0.002 1.409-0.634 1.413-1.412-0.004-0.78-0.635-1.412-1.413-1.414a1.411 1.411 0 0 0-1.412 1.413c-0.001 0.779 0.631 1.411 1.412 1.413z" />,<path d="M4.732 8.997v1.222H2.565c-1.048 0.007-1.05 1.353 0 1.352h2.843c0.416 0.002 0.676-0.333 0.676-0.711V8.997c0-1.019-1.35-1.019-1.352 0z m1.535-0.728H11.909c0.831-0.002 1.319 0.531 1.317 1.248v2.037H6.267V8.269z" />,<path d="M1.542 7.09c-0.002-1.112-1.544-1.112-1.542 0V16h1.577V13.703H13.573v2.28h1.534V9.101c0.004-1.172-1.555-1.172-1.551 0v2.747H1.542V7.09z" />,<path d="M7.523 0C5.594 0.002 4.026 1.585 4.03 3.537c-0.004 1.953 1.563 3.535 3.493 3.536 1.936-0.001 3.503-1.583 3.502-3.536C11.026 1.585 9.458 0.002 7.523 0z m0 6.258c-1.484-0.001-2.69-1.219-2.687-2.722C4.834 2.035 6.039 0.818 7.523 0.814c1.49 0.003 2.696 1.22 2.696 2.723 0 1.502-1.205 2.72-2.696 2.721z" />,<path d="M7.159 4.784h0.789v-0.615c0.004-0.165 0.082-0.322 0.286-0.459 0.211-0.135 0.789-0.411 0.789-1.136 0-0.726-0.607-1.225-1.118-1.334-0.511-0.102-1.064-0.032-1.456 0.398-0.353 0.385-0.427 0.69-0.425 1.361h0.788v-0.156c-0.003-0.357 0.038-0.736 0.555-0.841 0.275-0.054 0.537 0.033 0.693 0.182 0.177 0.177 0.178 0.569-0.104 0.763l-0.442 0.303c-0.262 0.166-0.351 0.35-0.355 0.624V4.784z m0 1.118v-0.805h0.797v0.806h-0.797z" /></svg>