<svg xmlns="http://www.w3.org/2000/svg" fill="currentColor" width="1em" height="1em" viewBox="0 0 16 16"><path d="M10.336 4.978a1.109 1.109 0 0 0-0.8-0.333h-2.834a1.09 1.09 0 0 0-0.8 0.333L3.063 7.822a0.693 0.693 0 1 0 0.999 0.955l2.205-2.206v2.949H3.794c-0.457 0-0.823 0.366-0.823 0.823 0 0.233 0.091 0.443 0.252 0.594l2.784 2.789a0.839 0.839 0 0 0 1.417-0.892l-1.586-1.588 0.032 0.004h4.564l-1.593 1.587c-0.229 0.4-0.091 0.914 0.306 1.147a0.846 0.846 0 0 0 1.12-0.256l2.782-2.789a0.8 0.8 0 0 0 0.252-0.594c0-0.457-0.366-0.823-0.823-0.823H10.011V6.606l2.165 2.176a0.69 0.69 0 0 0 0.999-0.956L10.336 4.978zM8.146 4.354a1.353 1.353 0 1 0 0-2.706 1.353 1.353 0 0 0 0 2.709" /></svg>