<svg xmlns="http://www.w3.org/2000/svg" fill="currentColor" width="1em" height="1em" viewBox="0 0 16 16"><path d="M8.027 4.518c1.248-0.001 2.26-1.013 2.26-2.259 0-1.25-1.012-2.262-2.259-2.259-1.249-0.003-2.261 1.009-2.26 2.259-0.001 1.246 1.011 2.258 2.259 2.259z m0 4.728H5.632V7.513L3.808 9.355c-0.826 0.826-1.945-0.232-1.116-1.061l3.021-3.031c0.247-0.241 0.515-0.396 0.944-0.4h2.713c0.423 0.003 0.711 0.154 0.962 0.4l3.058 3.067c0.787 0.783-0.362 1.852-1.116 1.052L10.396 7.504v1.742h-2.368z m2.359 0.89L8.59 11.932l1.325 1.315-1.352 1.353c-0.8 0.795 0.3 1.936 1.125 1.115l2.132-2.222c0.462-0.47 0.588-1.334 0.1-1.824-0.005-0.003-1.533-1.534-1.533-1.534z m-4.754 0l1.796 1.796-1.315 1.316 1.352 1.352c0.795 0.796-0.305 1.937-1.126 1.116L4.198 13.493c-0.457-0.47-0.584-1.334-0.09-1.824 0-0.003 1.525-1.533 1.525-1.533z" /></svg>