<svg xmlns="http://www.w3.org/2000/svg" fill="currentColor" width="1em" height="1em" viewBox="0 0 16 16"><path d="M2.457 6.907a1.47 1.47 0 0 0-0.149 0.652l0.053 3.502L1.156 13.662a0.786 0.786 0 0 0 0.572 1.156 0.782 0.782 0 0 0 0.805-0.398l1.33-2.848a0.811 0.811 0 0 0 0.071-0.32l-0.012-2.162 2.044 0.889 0.329 2.115a0.788 0.788 0 0 0 1.55-0.266L7.442 9.28a0.795 0.795 0 0 0-0.441-0.569L5.173 7.9l1.165-2.023 0.576 0.733a0.604 0.604 0 0 0 0.22 0.156l2.198 0.64a0.622 0.622 0 0 0 0.705-0.37 0.622 0.622 0 0 0-0.341-0.808l-0.03-0.011-1.91-0.562-1.44-1.724a1.433 1.433 0 0 0-2.266 0.218l-1.595 2.759z" />,<path d="M8.764 11.924l-0.142 1.048-3.779 0.92 0.035 0.65h9.223c0.325 0 0.59-0.267 0.591-0.59L14.681 1.52 13.419 1.227l-0.729 3.265-1.213 0.511L10.4 8.018l1.024 2.306-0.288 0.885-2.373 0.715zM6.196 3.33A1.179 1.179 0 1 0 6.192 0.974a1.179 1.179 0 0 0 0.004 2.356M3.852 3.515a0.338 0.338 0 0 0-0.124-0.459l-0.569-0.334a0.338 0.338 0 0 0-0.462 0.124L0.942 5.879a0.338 0.338 0 0 0 0.125 0.459l0.572 0.329c0.16 0.094 0.363 0.039 0.457-0.121l1.756-3.031z" /></svg>