<svg xmlns="http://www.w3.org/2000/svg" fill="currentColor" width="1em" height="1em" viewBox="0 0 16 16"><path d="M7.716 2.715c0.733 0.002 1.327-0.592 1.326-1.326 0-0.729-0.593-1.322-1.326-1.319-0.73-0.003-1.323 0.59-1.327 1.319 0.003 0.735 0.596 1.328 1.327 1.326z m4.897 10.976h0.579c0.407 0 0.617-0.323 0.616-0.617 0 0 0-3.246 0-3.263 0-0.294-0.231-0.621-0.616-0.624h-0.579v4.504z" />,<path d="M12.304 9.186H11.456v-0.609c0.003-0.235-0.135-0.358-0.378-0.355 0 0-0.149-0.003-0.393 0v-3.501c-0.002-0.807-0.695-1.66-1.612-1.658H6.134L3.342 0.21C2.728-0.411 1.83 0.488 2.448 1.104l3.563 3.633V15.234c0.004 1.037 1.516 1.007 1.519 0V9.186h0.247v6.047c0.004 1.008 1.528 1.037 1.527 0v-1.542h3V9.186zM9.574 8.577v0.609h-0.27v-4.049h0.27v3.44z" /></svg>