<svg xmlns="http://www.w3.org/2000/svg" fill="currentColor" width="1em" height="1em" viewBox="0 0 16 16"><path d="M8.579 0C5.824 0 3.283 2.068 2.755 4.347c-0.119 0.507-0.25 1.83-0.25 1.829L1.236 9.37A0.488 0.488 0 0 0 1.2 9.561a0.491 0.491 0 0 0 0.491 0.489h0.814v1.697c0 1.323 1.072 2.395 2.394 2.396h0.951V16h6.478V10.847c1.413-1.111 2.32-2.838 2.32-4.775C14.648 2.718 11.93 0 8.579 0z m-4.583 7.387c-0.372 0-0.675-0.304-0.675-0.679a0.677 0.677 0 0 1 0.675-0.677c0.375 0 0.68 0.303 0.68 0.677a0.68 0.68 0 0 1-0.68 0.679z" /></svg>