<svg xmlns="http://www.w3.org/2000/svg" fill="currentColor" width="1em" height="1em" viewBox="0 0 16 16"><path d="M1.811 9.858c1.002 0 1.815-0.813 1.815-1.816 0-1-0.813-1.811-1.815-1.81C0.811 6.232 0 7.042 0 8.043c0 1.002 0.811 1.815 1.811 1.815m10.166 3.116c0.084-0.057 0.196-0.041 0.258 0.042l0.335 0.463c0.057 0.08 0.038 0.196-0.041 0.258L10.068 15.525c-0.08 0.059-0.196 0.041-0.258-0.038l-0.336-0.466c-0.057-0.08-0.039-0.194 0.041-0.258L11.976 12.974zM9.193 10.668l-0.977-1.712-0.512 0.374 0.976 1.722 0.513-0.384zM6.914 6.668L3.117 0l-0.727 0.004L6.396 7.046l0.518-0.378z" />,<path d="M10.49 10.196c0.215-0.155 0.461-0.276 0.742-0.277l3.528 0.005c0.685 0 1.24 0.557 1.24 1.24a1.238 1.238 0 0 1-1.24 1.24l-2.943-0.005L8.056 15.052c-1.324 0.954-2.128-0.094-2.128-0.093L2.978 12.006c-0.493-0.594-0.388-1.722 0.205-2.219l4.083-2.909a0.966 0.966 0 0 1 1.352 0.116c0.34 0.406 0.286 1.011-0.121 1.352l-2.613 1.914L7.762 12.114l2.728-1.918z" /></svg>