<svg xmlns="http://www.w3.org/2000/svg" fill="currentColor" width="1em" height="1em" viewBox="0 0 16 16"><path d="M6.515 16c0.255 0 0.46-0.208 0.46-0.466a0.461 0.461 0 0 0-0.46-0.463c-0.254 0-0.459 0.208-0.459 0.463 0 0.257 0.205 0.466 0.459 0.466z m3.718-0.01c0.255 0 0.461-0.21 0.461-0.47 0-0.257-0.206-0.466-0.461-0.466-0.253 0-0.458 0.209-0.458 0.466 0 0.26 0.205 0.47 0.458 0.471z m-4.626-1.376s-0.27-0.014-0.27-0.295v-0.026c0-0.277 0.27-0.296 0.27-0.295h5.516s0.271 0.026 0.271 0.295v0.026c0 0.27-0.271 0.295-0.271 0.295H5.607z m3.832-12.146c0.674 0 1.222-0.554 1.222-1.236C10.661 0.55 10.113 0 9.439 0c-0.674 0-1.222 0.55-1.222 1.232 0 0.682 0.548 1.237 1.222 1.236zM2.81 13.266A0.78 0.78 0 0 0 2.72 13.633c0 0.434 0.349 0.788 0.782 0.788 0.31 0 0.577-0.182 0.704-0.445l2.667-4.634-1.108-1.118L2.81 13.266z" />,<path d="M8.165 13.058c-0.116 0.263-0.361 0.445-0.648 0.445-0.396 0-0.718-0.354-0.717-0.787 0-0.136 0.03-0.26 0.083-0.37l1.069-2.062-2.086-2.275c-0.801-0.883-0.23-1.837-0.23-1.837l1.123-2.177-2.979 0.004c-0.33 0-0.591-0.292-0.591-0.649 0-0.354 0.262-0.645 0.591-0.645H12.797c0.326 0 0.588 0.292 0.588 0.649 0 0.357-0.263 0.645-0.588 0.645H9.357L7.716 7.152l1.671 1.812c0.585 0.616 0.206 1.309 0.206 1.309L8.165 13.058z" /></svg>