<svg xmlns="http://www.w3.org/2000/svg" fill="currentColor" width="1em" height="1em" viewBox="0 0 16 16"><path d="M6.309 2.72c-0.666 0-1.202 0.531-1.202 1.186 0 0.656 0.537 1.186 1.202 1.186 0.661 0 1.199-0.53 1.2-1.186 0-0.654-0.538-1.185-1.2-1.186z" />,<path d="M12.402 5.065c-0.045-0.256-0.255-0.401-0.267-0.41L5.075 0 4.42 0.95a0.402 0.402 0 0 0 0.118 0.558 0.399 0.399 0 0 0 0.556-0.114L5.479 0.845l5.734 3.784-4.698 0.845c-0.333 0.056-0.573 0.389-0.499 0.715l1.022 3.952L3.732 15.1c-0.198 0.339-0.078 0.773 0.264 0.967a0.724 0.724 0 0 0 0.981-0.262s3.449-5.186 3.462-5.219 0.178 0.72 0.178 0.724l-0.518 3.89c-0.065 0.387 0.198 0.749 0.589 0.815 0.391 0.065 0.762-0.194 0.827-0.58l0.535-4.002c0.016-0.102-0.005-0.327-0.028-0.426l-1.178-4.686 3.069-0.552a0.609 0.609 0 0 0 0.492-0.704z" /></svg>