<svg xmlns="http://www.w3.org/2000/svg" fill="currentColor" width="1em" height="1em" viewBox="0 0 16 16"><path d="M9.531 2.655a1.328 1.328 0 0 0 1.327-1.328C10.859 0.593 10.264-0.002 9.531 0a1.324 1.324 0 0 0-1.328 1.327c-0.002 0.733 0.594 1.328 1.328 1.328zM7.821 5.099l0.008 10.145c0.002 1.012 1.495 1.003 1.491-0.024l0.008-5.903h0.289v5.896c-0.003 1.032 1.507 1.058 1.507 0.031V5.052h0.266v3.64c-0.004 0.875 1.181 0.875 1.179 0.015V4.733c0.003-1.073-0.794-1.703-1.632-1.703h-2.367c-0.56 0-0.967 0.221-1.312 0.711l-1.195 1.741H3.994c-0.837 0-0.79 1.182-0.015 1.18H6.368c0.186 0.003 0.414-0.067 0.547-0.266l0.905-1.296z" fill-rule="evenodd" /></svg>