<svg xmlns="http://www.w3.org/2000/svg" fill="currentColor" width="1em" height="1em" viewBox="0 0 16 16"><path d="M7.626 3.541A1.056 1.056 0 1 0 7.622 1.424a1.056 1.056 0 0 0 0.004 2.117m-1.786 0.176a0.304 0.304 0 0 0-0.224-0.368l-0.88-0.208a0.301 0.301 0 0 0-0.368 0.217L3.632 6.421a0.304 0.304 0 0 0 0.224 0.368l0.883 0.211c0.16 0.04 0.325-0.059 0.362-0.224L5.84 3.712z m4.064 10.902v0.016a0.243 0.243 0 0 0 0.483 0.032l1.776-9.629v-0.022a0.24 0.24 0 0 0-0.24-0.24c-0.123 0-0.218 0.093-0.243 0.211L9.904 14.618zM4 13.987a0.741 0.741 0 0 0 1.443 0.363l1.28-5.292 1.219 5.259a0.741 0.741 0 0 0 1.447-0.346L7.715 6.986l0.144-0.616 0.109 0.486c0.099 0.315 0.387 0.347 0.387 0.347l1.722 0.439a0.507 0.507 0 0 0 0.224-0.992l-1.493-0.375-0.41-1.664c-0.197-0.928-1.085-0.906-1.084-0.905-0.864-0.021-1.078 0.885-1.079 0.884L4 13.987z" fill-rule="evenodd" /></svg>