<svg xmlns="http://www.w3.org/2000/svg" fill="currentColor" width="1em" height="1em" viewBox="0 0 16 16"><path d="M5.908 3.529A1.008 1.008 0 1 0 5.911 1.511a1.008 1.008 0 0 0-0.003 2.018M0.267 8.521c0-0.818 0.665-1.486 1.484-1.486h3.129V4.788a1.01 1.01 0 0 1 2.02 0v0.348l1.493 0.379a0.487 0.487 0 1 1-0.213 0.947l-1.28-0.298v0.865h1.504l4.106-4.249-0.124 1.106 2.021 1.342c0.334 0.192 0.455 0.622 0.267 0.957a0.693 0.693 0 0 1-0.733 0.343l-0.16-0.03a1.804 1.804 0 0 1-2.233 1.298L10.009 10.933v4.292a0.667 0.667 0 0 1-1.333 0V10.837h-3.378l-0.605 1.035 1.263 3.013c0.185 0.324 0.071 0.729-0.249 0.911a0.67 0.67 0 0 1-0.914-0.253l-1.476-3.477v-1.108l-0.657 1.038v3.229a0.67 0.67 0 0 1-1.337 0V11.495l0.551-0.866V7.705l-0.551 0.841v2.435H0.27V8.521zM13.404 6.436l-1.07-0.207-0.622 1.236a1.426 1.426 0 0 0 1.692-1.031z" fill-rule="evenodd" /></svg>