<svg xmlns="http://www.w3.org/2000/svg" fill="currentColor" width="1em" height="1em" viewBox="0 0 16 16"><path d="M9.232 8.281a0.793 0.793 0 0 0 1.012-0.494c0.144-0.421-0.076-0.877-0.492-1.023-0.415-0.146-0.867 0.076-1.011 0.496-0.141 0.417 0.076 0.876 0.491 1.021z" />,<path d="M15.745 3.046S13.058 2.72 7.478 2.72C3.362 2.72 0 3.046 0 3.046s1.394 0.621 1.152 2.545 2.001-0.241 2.838 1.492l3.758-1.152-0.246 2.535-1.588 0.393a0.805 0.805 0 0 0-0.357 0.19L2.07 12.453c-0.206 0.197-0.21 0.529-0.012 0.734 0.195 0.208 0.523 0.216 0.726 0.019l2.626-2.557 3.213-0.795-0.023 0.006 0.536-0.137 0.491 0.565a0.406 0.406 0 0 0 0.299 0.136l1.731 0.006c0.217 0 0.397-0.179 0.397-0.403 0-0.194-0.133-0.344-0.31-0.388L10.453 5.104 15.824 3.459c0.256-0.112 0.236-0.377-0.079-0.413z m-4.389 6.576c-0.394 0-1.05-0.003-1.249-0.003-0.188-0.216-0.933-1.066-0.933-1.066-0.01-0.016-0.029-0.019-0.039-0.029-0.189-0.223-0.488-0.338-0.787-0.266l-0.466 0.116 0.249-2.56 1.968-0.602 1.257 4.41z" /></svg>