<svg xmlns="http://www.w3.org/2000/svg" fill="currentColor" width="1em" height="1em" viewBox="0 0 16 16"><path d="M9.327 13.591a2.121 2.121 0 0 1 1.218 0.179c0.265 0.116 0.563 0.189 0.876 0.189s0.615-0.073 0.883-0.189a2.116 2.116 0 0 1 1.804 0c0.268 0.116 0.567 0.189 0.878 0.189v1.317c-0.31 0-0.611-0.073-0.877-0.194-0.273-0.125-0.582-0.199-0.902-0.199-0.323 0-0.631 0.073-0.904 0.198a2.095 2.095 0 0 1-1.76 0 2.199 2.199 0 0 0-0.902-0.2c-0.32 0-0.63 0.073-0.906 0.198a2.109 2.109 0 0 1-1.755 0c-0.272-0.125-0.582-0.199-0.904-0.199s-0.633 0.073-0.907 0.198c-0.266 0.121-0.564 0.192-0.875 0.192s-0.608-0.073-0.876-0.194a2.225 2.225 0 0 0-0.905-0.199c-0.324 0-0.633 0.073-0.906 0.198-0.266 0.121-0.564 0.192-0.875 0.192v-1.318c0.313 0 0.611-0.073 0.877-0.189a2.121 2.121 0 0 1 1.812 0c0.265 0.116 0.563 0.189 0.873 0.189s0.611-0.073 0.877-0.189c0.157-0.07 0.32-0.128 0.49-0.16L13.968 12.131c0.271-0.065 0.636-0.253 0.764-0.576 0.025-0.061 0.113-0.079 0.189-0.076 0.134 0.007 0.233 0.124 0.232 0.259 0 0.214-0.163 0.81-1.072 0.994l-4.753 0.858zM2.116 3.148A1.201 1.201 0 1 0 2.119 0.745a1.201 1.201 0 0 0-0.003 2.403" />,<path d="M5.612 12.864c0.061 0.266 0.384 0.524 0.72 0.524 0.422 0 0.765-0.337 0.765-0.765l-0.015-0.124-0.916-3.932a1.023 1.023 0 0 0-0.563-0.59l-1.347-0.809-0.614-2.65L7.43 4.509c0.31 0 0.559-0.247 0.558-0.553s-0.247-0.563-0.558-0.563H1.964c-0.548 0-0.8 0.39-0.735 0.731l0.774 3.512c0.058 0.332 0.276 0.608 0.567 0.754l0.019 0.007 2.252 1.324 0.771 3.142zM15.005 4.102h-6.691v0.416h6.691V4.102z" /></svg>