<svg xmlns="http://www.w3.org/2000/svg" fill="currentColor" width="1em" height="1em" viewBox="0 0 16 16"><path d="M15.752 16h-1.433V13.579H1.447V16H0V6.874c0-0.394 0.311-0.715 0.707-0.716v0c0.395 0 0.74 0.321 0.74 0.716v4.972h12.872V8.322c0-0.395 0.322-0.715 0.717-0.715a0.716 0.716 0 0 1 0.716 0.715V16z" />,<path d="M3.385 7.689c0.608 0 1.101 0.492 1.101 1.1a1.1 1.1 0 0 1-1.101 1.101 1.101 1.101 0 0 1-1.102-1.101c0-0.608 0.493-1.1 1.102-1.1m1.101 3.065c0 0.299-0.243 0.542-0.543 0.543h-1.565a0.542 0.542 0 0 1-0.542-0.543 0.541 0.541 0 0 1 0.543-0.54h1.564a0.542 0.542 0 0 1 0.542 0.54m8.429-2.637c0.484 0 0.875 0.379 0.879 0.86l0.002 2.32H4.962V8.117l7.952 0z m-5.234-0.503V2.59a0.981 0.981 0 0 0-0.98-0.979 0.975 0.975 0 0 0-0.974 0.974c0 0.091-0.074 0.166-0.165 0.165-0.091 0-0.165-0.075-0.165-0.166a0.217 0.217 0 0 0-0.434 0 0.6 0.6 0 0 0 1.198 0c0-0.298 0.242-0.539 0.54-0.539 0.3 0 0.544 0.244 0.544 0.545v5.023h0.436z" />,<path d="M5.855 6.09h0.553s0.109-0.471 0.109-1.222-0.109-1.222-0.109-1.222h-1.413s-0.127 0.38-0.127 1.222c0 0.842 0.126 1.222 0.127 1.222h0.562c0 0.001-0.001 0.003-0.001 0.005 0 0.009 0.018 0.916-0.577 1.519h0.392c0.493-0.66 0.484-1.46 0.484-1.524m3.922-0.396h5.976V0H9.777v5.694zM10.288 1.294c0-0.42 0.339-0.76 0.761-0.76h3.435a0.76 0.76 0 0 1 0.761 0.76V3.358H14.784l-0.285-0.776a0.121 0.121 0 0 0-0.227 0.002s-0.081 0.229-0.159 0.453c-0.122-0.508-0.377-1.58-0.378-1.58a0.12 0.12 0 0 0-0.124-0.092 0.12 0.12 0 0 0-0.113 0.106S13.302 3.218 13.246 3.718c-0.102-0.154-0.204-0.307-0.204-0.307a0.121 0.121 0 0 0-0.1-0.053h-0.464a444.072 444.072 0 0 0-0.285-0.776 0.122 0.122 0 0 0-0.114-0.078 0.118 0.118 0 0 0-0.112 0.08l-0.161 0.453c-0.121-0.507-0.377-1.58-0.377-1.58a0.12 0.12 0 0 0-0.237 0.015c0 0-0.196 1.747-0.252 2.246l-0.204-0.307a0.12 0.12 0 0 0-0.1-0.053H10.288V1.293z m4.196 3.926h-3.435a0.76 0.76 0 0 1-0.761-0.762v-0.859h0.281c0.059 0.088 0.351 0.528 0.352 0.528a0.121 0.121 0 0 0 0.22-0.053s0.13-1.153 0.213-1.891c0.139 0.586 0.312 1.307 0.311 1.307a0.119 0.119 0 0 0 0.111 0.092c0.054 0.003 0.102-0.03 0.12-0.08 0 0 0.098-0.278 0.185-0.523 0.092 0.251 0.2 0.541 0.2 0.541a0.118 0.118 0 0 0 0.112 0.079h0.483c0.059 0.088 0.351 0.528 0.352 0.528a0.12 0.12 0 0 0 0.128 0.05 0.119 0.119 0 0 0 0.091-0.103s0.13-1.153 0.213-1.891c0.139 0.586 0.311 1.307 0.312 1.307a0.119 0.119 0 0 0 0.11 0.092c0.054 0.003 0.102-0.03 0.12-0.08 0 0 0.099-0.278 0.185-0.523 0.092 0.251 0.199 0.541 0.199 0.541a0.12 0.12 0 0 0 0.112 0.079h0.546v0.859a0.76 0.76 0 0 1-0.76 0.762" /></svg>