<svg xmlns="http://www.w3.org/2000/svg" fill="currentColor" width="1em" height="1em" viewBox="0 0 16 16"><path d="M4.012 2.502a1.248 1.248 0 0 0 1.251-1.251C5.264 0.562 4.704 0.002 4.012 0c-0.69 0.002-1.25 0.562-1.251 1.251 0.001 0.693 0.561 1.252 1.251 1.251zM0.735 6.942h1.097l0.663-2.422h0.274L2.115 6.942h3.891l-0.702-2.422h0.291l0.371 1.187c0.173 0.501 0.616 0.616 0.96 0.186l1.34-1.623c0.424-0.547-0.337-1.123-0.775-0.646l-0.799 0.953c0.001 0.015-0.154-0.524-0.154-0.525-0.182-0.636-0.787-1.264-1.695-1.267H3.132c-0.811 0.003-1.447 0.709-1.582 1.154L0.735 6.942z" />,<path d="M8.993 3.64V1.146h-1.122v2.494z m3.786-1.122c0.693-0.002 1.253-0.563 1.251-1.251a1.246 1.246 0 0 0-1.251-1.251c-0.689-0.002-1.249 0.558-1.251 1.251 0.002 0.689 0.562 1.249 1.251 1.251z m1.583 11.811v-6.91h0.92V3.649c0.001-0.493-0.441-0.872-1.074-0.872H11.27c-0.584 0-0.726 0.19-0.888 0.347L7.935 6.062c-0.496 0.615 0.389 1.333 0.888 0.759L11.181 4.036v10.309c-0.003 1.036 1.45 1.07 1.453 0.032v-5.853h0.282v5.821c0.004 1.032 1.447 1.036 1.445-0.016z" />,<path d="M16 8.646v-1.421H0v1.421z" /></svg>