<svg xmlns="http://www.w3.org/2000/svg" fill="currentColor" width="1em" height="1em" viewBox="0 0 16 16"><path d="M3.394 6.906c0.819-0.002 1.483-0.667 1.487-1.488-0.004-0.821-0.669-1.486-1.487-1.487a1.485 1.485 0 0 0-1.487 1.487c-0.001 0.82 0.664 1.485 1.487 1.487z" />,<path d="M4.981 5.765v1.286H2.7c-1.103 0.008-1.105 1.425 0 1.423h2.993c0.438 0.002 0.711-0.351 0.712-0.748V5.765c0-1.072-1.421-1.072-1.424 0z m1.615-0.766H12.536c0.875-0.002 1.388 0.559 1.386 1.313v2.144H6.596V4.999z" />,<path d="M1.624 3.758c-0.002-1.17-1.625-1.17-1.624 0V13.137h1.66V10.719H14.287v2.4h1.615V5.875c0.004-1.234-1.637-1.234-1.633 0v2.891H1.624V3.758z" /></svg>