<svg xmlns="http://www.w3.org/2000/svg" fill="currentColor" width="1em" height="1em" viewBox="0 0 16 16"><path d="M6.99 1.997c0.208-0.693-0.181-1.425-0.876-1.637-0.691-0.214-1.425 0.174-1.638 0.87-0.212 0.695 0.181 1.427 0.872 1.638 0.695 0.214 1.429-0.177 1.642-0.871" />,<path d="M9.447 6.033l-0.497-3.072L11.99 1.183c0.144-0.08 0.257-0.21 0.305-0.374A0.634 0.634 0 0 0 11.869 0.026a0.63 0.63 0 0 0-0.51 0.07L7.025 2.64c-0.152 0.08-0.284 0.193-0.397 0.325l-1.827 2.453-2.517-0.3a0.629 0.629 0 0 0-0.37 0.341 0.626 0.626 0 0 0 0.325 0.827 0.596 0.596 0 0 0 0.411 0.033l2.562 0.291a0.645 0.645 0 0 0 0.245-0.168l1.04-1.306 0.497 2.819A1.407 1.407 0 0 0 7.728 8.89l2.234 0.666 0.329 2.566a0.82 0.82 0 0 0 0.535 0.651c0.426 0.152 0.892-0.074 1.041-0.5 0.047-0.127 0.055-0.267 0.036-0.397l-0.403-3.139a0.829 0.829 0 0 0-0.405-0.555l-1.39-0.418 2.301-1.393L14.818 7.616c0.018 0.008 0.035 0.016 0.051 0.024 0.426 0.148 0.892-0.074 1.04-0.499a0.819 0.819 0 0 0-0.425-1.012l-3.206-1.429c-0.017-0.004-0.027-0.012-0.043-0.016-0.23-0.08-0.475-0.051-0.67 0.055l-2.119 1.294z" />,<path d="M3.368 7.178H0v0.919h2.592v2.615H5.288v2.436h2.613V16h3.437v-0.919H8.822V12.229H6.207v-2.438h-2.691V7.178h-0.148z" /></svg>