<svg xmlns="http://www.w3.org/2000/svg" fill="currentColor" width="1em" height="1em" viewBox="0 0 16 16"><path d="M8.828 1.361C8.627 0.58 7.913 0 7.069 0 6.062 0 5.248 0.81 5.248 1.815c0 0.17 0.02 0.324 0.063 0.477h0.73c0.054 0.126 0.112 0.198 0.112 0.198a1.216 1.216 0 0 0 0.999 0.522 1.222 1.222 0 0 0 1.223-1.222c0-0.155 0.04-0.295-0.026-0.428h0.48v-0.001z m-0.051 10.853c-0.191 0.195-0.454 0.342-0.752 0.343V8.603l2.737-0.787 0.685 1.351L8.777 12.214z" />,<path d="M6.48 3.166a0.979 0.979 0 0 0-0.735-0.327c-0.311 0-0.59 0.144-0.769 0.37l-2.171 3.318a0.972 0.972 0 0 0-0.139 0.504 0.984 0.984 0 0 0 0.436 0.819l2.914 1.617V12.218A0.705 0.705 0 0 0 6.72 12.924c0.387 0 0.703-0.316 0.703-0.706V8.782s0.093-0.547-0.529-0.847l-1.817-0.95 1.324-2.022 0.703 1.104c0.14 0.222 0.33 0.31 0.502 0.306l1.806-0.006c0.734 0 0.734-0.954 0-0.951H7.949L6.48 3.166z m7.985 4.511c0.029 0.028 0.047 0.064 0.047 0.11 0 0.086-0.074 0.159-0.16 0.159-0.024 0-0.04 0-0.058-0.007-0.312-0.133-0.51-0.216-0.872-0.216-0.241 0-0.536 0.083-0.878 0.362l-0.317-0.626c0.395-0.119 0.72-0.224 1.058-0.224 0.541 0 0.826 0.112 1.178 0.444z" />,<path d="M2.349 8.158l3.058 1.687 0.007 0.677L1.922 8.599c-0.253-0.13-0.593-0.206-0.834-0.207-0.361 0-0.56 0.083-0.87 0.217-0.019 0.007-0.035 0.007-0.058 0.007A0.161 0.161 0 0 1 0 8.458c0-0.047 0.018-0.083 0.047-0.111 0.354-0.332 0.715-0.444 1.256-0.444 0.277 0 0.614 0.032 1.048 0.256z m0.283 6.204c0.996 0 1.803-0.807 1.804-1.805S3.629 10.752 2.632 10.752c-0.996 0-1.803 0.806-1.802 1.805 0 0.997 0.807 1.805 1.803 1.805zM0.031 12.557c0-1.437 1.166-2.605 2.601-2.605 1.44 0 2.605 1.167 2.605 2.605 0 1.437-1.165 2.604-2.605 2.604C1.197 15.161 0.031 13.994 0.031 12.557z m13.364 1.805A1.803 1.803 0 0 0 15.2 12.557 1.804 1.804 0 0 0 13.395 10.752c-0.993 0-1.8 0.807-1.801 1.805 0 0.998 0.807 1.805 1.801 1.805z m-2.6-1.805c0-1.437 1.163-2.605 2.6-2.605C14.832 9.952 16 11.12 16 12.557s-1.168 2.604-2.605 2.603c-1.437 0-2.6-1.166-2.6-2.603z m2.027-2.975L11.558 7.053a0.981 0.981 0 0 0-0.86-0.512h-0.824a0.293 0.293 0 0 0-0.291 0.295c0 0.163 0.13 0.292 0.292 0.292l0.825-0.005c0.14 0 0.295 0.094 0.353 0.23l1.191 2.429 0.58-0.201z" /></svg>