<svg xmlns="http://www.w3.org/2000/svg" fill="currentColor" width="1em" height="1em" viewBox="0 0 16 16"><path d="M6.136 3.363c0.929-0.003 1.68-0.755 1.681-1.682C7.816 0.754 7.064 0.002 6.136 0 5.21 0.002 4.458 0.754 4.454 1.682c0.004 0.926 0.756 1.678 1.682 1.681z" />,<path d="M4.86 5.4C4.56 3.469 7.346 2.883 7.792 4.862l0.762 3.784h2.832c0.827 0.003 1.257 0.664 1.259 1.276v5.143c-0.002 1.254-1.781 1.247-1.781-0.017-0.001-1.176 0-4.008 0-4.008H7.245c-0.842 0.002-1.372-0.577-1.507-1.242L4.86 5.4z" />,<path d="M9.54 11.379c0.938 0 0.933 1.39 0.008 1.392H6.956c-1.266-0.002-2.525-0.95-2.858-2.419L3.295 6.418c-0.168-0.892 1.118-1.189 1.309-0.273l0.77 3.76c0.212 0.962 0.923 1.474 1.781 1.474H9.539z" /></svg>