<svg xmlns="http://www.w3.org/2000/svg" fill="currentColor" width="1em" height="1em" viewBox="0 0 16 16"><path d="M9.44 4.356c0.657 0 1.191-0.54 1.191-1.206 0-0.664-0.535-1.205-1.191-1.205-0.659 0-1.192 0.541-1.192 1.205 0 0.666 0.532 1.206 1.192 1.206m3.237 10.519L10.919 9.48V5.162c0-0.566-0.56-0.541-0.56-0.541H8.09s-0.095-0.014-0.292 0.148l-1.323 0.781-1.378-1.398c-0.225-0.269-0.623-0.309-0.892-0.081-0.27 0.227-0.284 0.64-0.059 0.913l1.76 1.781c0.119 0.126 0.285 0.214 0.472 0.214a0.648 0.648 0 0 0 0.369-0.117l1.159-0.646v3.166L6.131 14.864a0.892 0.892 0 0 0 0.625 1.095c0.472 0.127 0.958-0.157 1.083-0.633L9.389 10.595l1.579 4.742c0.128 0.478 0.612 0.763 1.083 0.631 0.472-0.127 0.752-0.617 0.626-1.093" />,<path d="M3.833 5.592a0.158 0.158 0 0 0 0.225 0l0.021-0.019c0.059-0.064 0.063-0.165 0-0.227l-0.343-0.359a0.163 0.163 0 0 0-0.229-0.001l-0.018 0.021c-0.063 0.064-0.067 0.166-0.004 0.227l0.348 0.358zM7.13 1.549l-2.034 2.221 0.245 0.255 2.27-1.978 1.509-1.404c0.06-0.069 0.099-0.156 0.099-0.253 0-0.213-0.17-0.388-0.376-0.39-0.102-0.002-0.19 0.038-0.26 0.098L7.131 1.549z" /></svg>