<svg xmlns="http://www.w3.org/2000/svg" fill="currentColor" width="1em" height="1em" viewBox="0 0 16 16"><path d="M1.894 6.319H0.916C0.41 6.319 0 6.75 0 7.28v4.614c0 0.531 0.41 0.961 0.916 0.961h0.978v-6.536z m0 6.536v0.977c0 0.506 0.43 0.916 0.961 0.917h4.614c0.531 0 0.962-0.41 0.962-0.917v-0.977H1.894z m11.542-9.895H10.277l-0.84 0.824h0.84V3.968c0 0.961 0.781 1.74 1.742 1.74C12.981 5.708 13.76 4.929 13.76 3.968v-1.01h-0.323z m0.323-0.55H10.201L9.437 1.28h4.322z m1.325 3.909h-0.168l-4.379 5.559h3.569v0.977H9.62V14.749H16V7.28c0-0.531-0.41-0.961-0.916-0.961z m-1.508 0H9.014v0.002c-0.189-0.004-0.382 0.079-0.545 0.286L4.826 11.213c-0.652 0.824 0.507 2 1.166 1.166l3.445-4.356v3.55L13.576 6.32z" /></svg>