<svg xmlns="http://www.w3.org/2000/svg" fill="currentColor" width="1em" height="1em" viewBox="0 0 16 16"><path d="M9.068 0.773v14.548H7.701V0.773zM3.387 3.037a1.19 1.19 0 0 0 1.198-1.199C4.589 1.179 4.052 0.642 3.387 0.64c-0.659 0.003-1.196 0.539-1.198 1.198 0.003 0.666 0.539 1.202 1.198 1.198z m-0.177 7.606v4.19c0.004 0.756-1.127 0.756-1.128 0V10.643H0.582l1.607-5.565h-0.257L0.99 8.256c-0.224 0.694-1.175 0.41-0.958-0.328l1.047-3.454c0.114-0.395 0.612-1.093 1.474-1.091h1.651c0.852-0.001 1.352 0.702 1.482 1.092l1.047 3.443c0.21 0.743-0.734 1.05-0.959 0.328L4.834 5.078h-0.275L6.174 10.643h-1.5v4.199c0 0.747-1.126 0.743-1.127 0V10.643H3.21z m8.734-7.269c-0.842 0.003-1.521 0.701-1.518 1.571v3.71c-0.003 0.721 1.038 0.721 1.039 0v-3.391h0.248V14.664c-0.003 0.962 1.383 0.933 1.385 0V9.161h0.239V14.664c-0.003 0.933 1.39 0.962 1.393 0V5.265h0.24v3.39c-0.002 0.726 1.033 0.726 1.03 0v-3.683c0.001-0.807-0.613-1.593-1.536-1.589l-2.52-0.009z m1.269-0.337c0.658 0.003 1.195-0.533 1.198-1.199C14.408 1.179 13.871 0.642 13.212 0.64c-0.665 0.003-1.202 0.539-1.197 1.198a1.189 1.189 0 0 0 1.198 1.198z" /></svg>