<svg xmlns="http://www.w3.org/2000/svg" fill="currentColor" width="1em" height="1em" viewBox="0 0 16 16"><path d="M16 13.788a2.347 2.347 0 0 1-0.984-0.217 2.437 2.437 0 0 0-1.014-0.226c-0.364 0-0.71 0.085-1.016 0.225a2.346 2.346 0 0 1-0.984 0.218c-0.35 0-0.686-0.079-0.984-0.218-0.311-0.14-0.658-0.225-1.016-0.225-0.362 0-0.709 0.085-1.017 0.225a2.353 2.353 0 0 1-0.984 0.218c-0.35 0-0.684-0.079-0.986-0.218-0.307-0.14-0.653-0.225-1.012-0.225-0.362 0-0.709 0.085-1.016 0.225a2.359 2.359 0 0 1-0.988 0.218c-0.345 0-0.684-0.079-0.983-0.218-0.307-0.14-0.654-0.225-1.016-0.225-0.36 0-0.705 0.085-1.012 0.225A2.375 2.375 0 0 1 0 13.788v-1.493c0.35 0 0.684-0.082 0.988-0.214a2.386 2.386 0 0 1 1.012-0.229c0.362 0 0.709 0.085 1.016 0.229 0.298 0.133 0.637 0.214 0.982 0.214 0.35 0 0.69-0.082 0.988-0.214a2.394 2.394 0 0 1 1.017-0.229c0.359 0 0.705 0.085 1.011 0.229 0.302 0.133 0.636 0.214 0.987 0.214 0.347 0 0.686-0.082 0.984-0.214a2.396 2.396 0 0 1 1.016-0.229c0.358 0 0.705 0.085 1.016 0.229 0.298 0.133 0.634 0.214 0.984 0.214 0.35 0 0.684-0.082 0.984-0.214a2.386 2.386 0 0 1 1.016-0.229c0.362 0 0.709 0.085 1.015 0.229 0.3 0.133 0.634 0.214 0.984 0.214v1.493z m-2.317-4.224c1.051 0 1.903-0.866 1.903-1.928 0-1.063-0.852-1.925-1.903-1.925-1.053 0-1.904 0.862-1.904 1.925 0 1.063 0.776 1.929 1.904 1.929z" />,<path d="M2.597 10.648c0.148 0.036 0.287 0.088 0.419 0.148a2.38 2.38 0 0 0 0.983 0.218c0.35 0 0.69-0.081 0.988-0.218 0.307-0.141 0.653-0.23 1.016-0.229 0.359 0 0.705 0.089 1.012 0.229 0.302 0.136 0.636 0.218 0.986 0.218 0.347 0 0.686-0.081 0.984-0.218 0.307-0.141 0.654-0.23 1.016-0.229 0.358 0 0.705 0.089 1.016 0.229a2.37 2.37 0 0 0 0.984 0.218 2.429 2.429 0 0 0 0.733-0.117l-3.175-5.794 3.693-0.681c0.542-0.104 0.936-0.535 0.935-1.087 0-0.608-0.49-1.095-1.087-1.095-0.043 0-0.083 0-0.124 0.004l-5.704 1.05c-0.4 0.093-0.931 0.685-0.629 1.413l0.049 0.117 1.489 2.718L2.597 10.648z" /></svg>