<svg xmlns="http://www.w3.org/2000/svg" fill="currentColor" width="1em" height="1em" viewBox="0 0 16 16"><path d="M4.776 3.363c0.929-0.003 1.68-0.755 1.681-1.682C6.456 0.754 5.704 0.002 4.776 0 3.85 0.002 3.098 0.754 3.094 1.682c0.004 0.926 0.756 1.678 1.682 1.681z" />,<path d="M3.5 5.4C3.2 3.469 5.986 2.883 6.432 4.862l0.762 3.784h2.832c0.827 0.003 1.257 0.664 1.259 1.276v5.143c-0.002 1.253-1.781 1.247-1.781-0.017-0.001-1.176 0-4.008 0-4.008H5.885c-0.842 0.002-1.372-0.577-1.507-1.242L3.5 5.4z" />,<path d="M8.18 11.379c0.938 0 0.933 1.39 0.008 1.392H5.596c-1.266-0.002-2.525-0.95-2.858-2.419L1.935 6.418c-0.168-0.892 1.118-1.189 1.309-0.273l0.77 3.76c0.212 0.962 0.923 1.474 1.781 1.474H8.179z m3.511-8.563l1.25-0.604c0.18-0.083 0.062-0.344-0.124-0.257l-1.06 0.472V1.176c-0.004-0.2-0.301-0.191-0.298 0v1.499a0.159 0.159 0 0 0 0.232 0.141z" />,<path d="M11.699 0.075C10.341 0.072 9.242 1.171 9.24 2.526c0.002 1.356 1.101 2.454 2.459 2.451 1.353 0.003 2.451-1.095 2.451-2.451C14.15 1.171 13.052 0.072 11.699 0.075z m0 4.488c-1.128 0.001-2.04-0.912-2.037-2.036-0.003-1.125 0.909-2.038 2.037-2.038 1.122 0 2.035 0.912 2.037 2.038-0.002 1.125-0.915 2.038-2.037 2.036z" />,<path d="M11.691 2.816l1.25-0.604c0.18-0.083 0.062-0.344-0.124-0.257l-1.06 0.472V1.176c-0.004-0.2-0.301-0.191-0.298 0v1.499a0.159 0.159 0 0 0 0.232 0.141z" /></svg>