<svg xmlns="http://www.w3.org/2000/svg" fill="currentColor" width="1em" height="1em" viewBox="0 0 16 16"><path d="M11.573 3.591A1.102 1.102 0 1 0 11.579 1.387a1.102 1.102 0 0 0-0.006 2.204M5.362 7.484l1.63-1.747 1.39-0.644s-0.946 1.417-1.431 3.366L5.648 13.369l0.8 0.041L8.498 8.676l1.788 0.723 0.171 2.695 0.759 0.011 0.299-3.165-2.262-1.63s-0.071-0.1 0.043-0.156l1.79-1.636 2.919 1.449 0.445 0.071 0.112-0.711-0.471-0.135L10.071 3.378s-0.388-0.302-0.83 0.039l-3.035 1.733-1.372 2.006 0.53 0.327z" />,<path d="M1.81 12.476l3.331-5.546 0.306 0.178L2.116 12.663 1.813 12.48zM12.185 14.583l1.689-7.799 0.35 0.071-1.689 7.805-0.348-0.077z" />,<path d="M2.713 12.503l0.165-0.267-1.04-0.629-0.165 0.267 1.038 0.627zM13.022 14.4l0.071-0.306L11.911 13.831l-0.071 0.306 1.182 0.263zM1.111 13.323h8.16s0.83 0.044 1.316-0.427c0 0 0.272-0.089 0.387 0.142 0 0 0.1 0.77-1.145 0.813H0.88l0.231-0.527zM5.404 11.993h8.16s0.83 0.041 1.316-0.43c0 0 0.274-0.089 0.388 0.142 0 0 0.101 0.773-1.145 0.818H5.177l0.231-0.53z" /></svg>