<svg xmlns="http://www.w3.org/2000/svg" fill="currentColor" width="1em" height="1em" viewBox="0 0 16 16"><path d="M14.667 10.461V12.947h1.313V9.231H1.302V3.854A0.652 0.652 0 0 0 0.65 3.2C0.29 3.2 0 3.494 0 3.854V12.947h1.302V10.462h13.365z" />,<path d="M3.306 6.475a1.179 1.179 0 0 0 1.179-1.182c0-0.65-0.527-1.178-1.179-1.177s-1.179 0.528-1.179 1.177a1.179 1.179 0 0 0 1.18 1.182z" />,<path d="M16 8.254l-0.004-1.624c-0.004-0.515-0.437-0.871-0.94-0.932L5.79 4.774c-0.018-0.004-0.035-0.012-0.052-0.012a0.581 0.581 0 0 0-0.58 0.581v1.75H2.735a0.582 0.582 0 0 0-0.584 0.581c0 0.323 0.26 0.581 0.584 0.581H16z" /></svg>