<svg xmlns="http://www.w3.org/2000/svg" fill="currentColor" width="1em" height="1em" viewBox="0 0 16 16"><path d="M5.109 4.103a1.358 1.358 0 1 0 0-2.72 1.358 1.358 0 0 0 0 2.72" />,<path d="M0.1 11.527c0.32 0 0.622-0.071 0.897-0.195a2.196 2.196 0 0 1 1.86 0 2.208 2.208 0 0 0 1.804 0 2.192 2.192 0 0 1 1.86 0 2.215 2.215 0 0 0 1.803 0 2.204 2.204 0 0 1 1.856 0 2.222 2.222 0 0 0 1.806 0 2.24 2.24 0 0 1 1.731-0.057A2.475 2.475 0 0 0 11.893 7.129l-0.275 0.03c-0.302 1.234-1.54 1.287-1.54 1.287H4.427l-0.471-0.277 1.137-1.911 1.248 0.72c0.747 0.484 1.134-0.196 1.135-0.196L8.729 4.747c0.539-0.889-0.613-1.6-1.156-0.711l-0.871 1.431-2.08-1.151c-1.44-0.805-2.053 0.526-2.053 0.527L0.933 7.644c-0.277 0.58-0.028 0.828-0.028 0.829H0.098v3.058z m14.638 2.702c-0.32 0-0.628-0.071-0.9-0.195a2.187 2.187 0 0 0-1.858 0 2.217 2.217 0 0 1-1.804 0 2.197 2.197 0 0 0-1.858 0 2.21 2.21 0 0 1-1.804 0 2.187 2.187 0 0 0-1.858 0 2.21 2.21 0 0 1-1.806 0 2.176 2.176 0 0 0-1.854 0 2.222 2.222 0 0 1-0.898 0.195v-1.351c0.32 0 0.626-0.071 0.901-0.195a2.204 2.204 0 0 1 1.854 0 2.21 2.21 0 0 0 1.807 0 2.21 2.21 0 0 1 1.861 0 2.176 2.176 0 0 0 1.803 0 2.222 2.222 0 0 1 0.929-0.207c0.331 0 0.645 0.076 0.928 0.207a2.194 2.194 0 0 0 1.808 0 2.21 2.21 0 0 1 1.856 0c0.272 0.124 0.58 0.196 0.9 0.195v1.351z" /></svg>