<svg xmlns="http://www.w3.org/2000/svg" fill="currentColor" width="1em" height="1em" viewBox="0 0 16 16"><path d="M5.16 3.78c0.71-0.084 1.215-0.729 1.131-1.44-0.084-0.71-0.73-1.215-1.44-1.131a1.296 1.296 0 0 0-1.131 1.441c0.088 0.71 0.728 1.215 1.44 1.13M15.808 9.886L10.459 7.169l-1.341-1.726-0.016-0.019c-0.182-0.169-0.465-0.154-0.634 0.031v0.003a0.446 0.446 0 0 0-0.049 0.505l0.994 1.284 0.004 0.011-0.825 1.891-2.19-0.546-0.095-0.784 1.799-0.217a0.569 0.569 0 0 0 0.241-0.069 0.613 0.613 0 0 0 0.256-0.825c-0.123-0.23-0.368-0.352-0.609-0.325l-1.835 0.221-0.162-1.36c-0.088-0.706-0.734-1.215-1.442-1.131-0.709 0.089-1.217 0.734-1.132 1.445l0.381 3.144c0.047 0.401 0.286 0.749 0.603 0.951L1.527 9.997 0.629 12.22c0.035-0.015 0.073-0.019 0.104-0.033a2.84 2.84 0 0 1 1.188-0.264c0.407 0 0.816 0.091 1.181 0.26 0.233 0.106 0.489 0.16 0.738 0.16 0.25 0 0.502-0.054 0.731-0.157a2.821 2.821 0 0 1 1.188-0.263c0.405 0 0.814 0.091 1.178 0.26 0.237 0.106 0.493 0.16 0.741 0.16 0.252 0 0.501-0.054 0.733-0.157 0.37-0.172 0.782-0.264 1.188-0.263s0.814 0.091 1.177 0.26c0.088 0.037 0.184 0.065 0.278 0.091 1.471-0.386 4.077-1.131 4.781-1.761 0.205-0.184 0.245-0.492-0.027-0.627M0 14.94c0.336 0 0.661-0.076 0.947-0.206a2.312 2.312 0 0 1 0.974-0.217c0.348 0 0.677 0.08 0.976 0.217A2.278 2.278 0 0 0 3.84 14.94c0.334 0 0.655-0.076 0.944-0.206a2.315 2.315 0 0 1 0.975-0.218c0.345 0 0.677 0.08 0.974 0.218 0.287 0.13 0.608 0.206 0.945 0.206s0.657-0.076 0.947-0.206a2.31 2.31 0 0 1 0.974-0.218c0.345 0 0.677 0.08 0.97 0.218 0.291 0.13 0.612 0.206 0.949 0.206a2.28 2.28 0 0 0 0.943-0.206 2.329 2.329 0 0 1 0.975-0.218c0.348 0 0.68 0.08 0.973 0.218a2.314 2.314 0 0 0 0.95 0.206v-1.417c-0.337 0-0.662-0.076-0.95-0.207a2.294 2.294 0 0 0-0.973-0.213c-0.344 0-0.675 0.076-0.974 0.214a2.28 2.28 0 0 1-0.944 0.206c-0.336 0-0.657-0.076-0.949-0.207a2.292 2.292 0 0 0-0.97-0.213c-0.346 0-0.678 0.076-0.973 0.213a2.318 2.318 0 0 1-0.948 0.206 2.294 2.294 0 0 1-0.944-0.206 2.322 2.322 0 0 0-0.975-0.214c-0.346 0-0.679 0.076-0.974 0.214A2.308 2.308 0 0 1 3.84 13.523a2.277 2.277 0 0 1-0.943-0.207 2.325 2.325 0 0 0-0.976-0.213 2.31 2.31 0 0 0-0.975 0.213A2.296 2.296 0 0 1 0 13.523v1.417z" /></svg>