<svg xmlns="http://www.w3.org/2000/svg" fill="currentColor" width="1em" height="1em" viewBox="0 0 16 16"><path d="M13.858 2.933c0.801 0 1.453-0.657 1.452-1.467C15.31 0.655 14.658 0 13.858 0c-0.803 0-1.452 0.655-1.453 1.466 0 0.81 0.65 1.467 1.452 1.467M9.736 15.446h3.748s0.284 0.03 0.284-0.27v-0.298h0.552s0.128 1.025-0.629 1.123H9.736v-0.554zM0.384 12.515L3.037 15.195s0.178 0.222 0.387 0.01l0.211-0.213 0.389 0.397s-0.627 0.818-1.23 0.347L0 12.909l0.384-0.394zM10.618 11.584l0.004 2.656c0 0.499 0.4 0.904 0.895 0.904 0.452 0 0.893-0.528 0.893-0.904V10.544a0.91 0.91 0 0 0-0.278-0.657L9.987 7.725 12.832 4.85c0.535-0.677 0.253-1.486 0.253-1.486-0.294-0.896-1.302-0.928-1.303-0.928l-7.332-0.002c-0.391 0-0.709 0.32-0.708 0.717s0.318 0.717 0.708 0.716l5.062 0.008L7.381 6.021c-0.305 0.317-0.46 0.672-0.46 1.134 0 0.446 0.176 0.845 0.468 1.135L10.618 11.584z" />,<path d="M6.935 8.695a2.084 2.084 0 0 1-0.186-0.216l-4.23 4.288c-0.322 0.26-0.424 0.716-0.234 1.099 0.222 0.437 0.755 0.61 1.187 0.387a1.098 1.098 0 0 0 0.163-0.111l4.344-4.397-1.043-1.051z" /></svg>