<svg xmlns="http://www.w3.org/2000/svg" fill="currentColor" width="1em" height="1em" viewBox="0 0 16 16"><path d="M10.513 4.344a1.442 1.442 0 0 0 1.443-1.443c0-0.799-0.644-1.446-1.443-1.446a1.446 1.446 0 0 0-1.446 1.446c0 0.795 0.648 1.443 1.446 1.443z m5.647 10.346c-0.341 0-0.671-0.078-0.962-0.205a2.34 2.34 0 0 0-0.989-0.221c-0.349 0-0.686 0.082-0.985 0.221-0.295 0.128-0.621 0.205-0.962 0.205-0.341 0-0.667-0.077-0.958-0.205-0.299-0.139-0.636-0.221-0.989-0.221s-0.69 0.081-0.988 0.221c-0.291 0.128-0.616 0.205-0.958 0.205s-0.667-0.077-0.962-0.205c-0.299-0.139-0.632-0.221-0.985-0.221s-0.69 0.081-0.989 0.221c-0.291 0.128-0.616 0.205-0.958 0.205-0.337 0-0.663-0.077-0.958-0.205a2.337 2.337 0 0 0-0.985-0.221c-0.353 0-0.69 0.081-0.989 0.221a2.38 2.38 0 0 1-0.958 0.205v-1.438c0.341 0 0.667-0.074 0.958-0.206a2.341 2.341 0 0 1 0.989-0.221c0.349 0 0.686 0.081 0.985 0.221 0.295 0.132 0.621 0.205 0.958 0.205 0.341 0 0.667-0.073 0.958-0.205 0.299-0.139 0.636-0.221 0.989-0.221s0.686 0.081 0.985 0.221c0.295 0.132 0.621 0.205 0.961 0.205 0.341 0 0.667-0.073 0.958-0.205 0.299-0.139 0.636-0.221 0.989-0.221s0.69 0.081 0.989 0.221a2.318 2.318 0 0 0 0.958 0.205c0.341 0 0.667-0.073 0.962-0.205a2.337 2.337 0 0 1 0.985-0.221c0.353 0 0.69 0.081 0.988 0.221 0.291 0.132 0.621 0.205 0.962 0.205v1.439zM1.578 11.824a2.303 2.303 0 0 1 0.954-0.205c0.349 0 0.686 0.081 0.985 0.221 0.295 0.128 0.621 0.205 0.958 0.205 0.341 0 0.667-0.078 0.958-0.205 0.299-0.14 0.636-0.221 0.989-0.222s0.686 0.082 0.985 0.221c0.295 0.128 0.621 0.205 0.962 0.206 0.341 0 0.667-0.077 0.958-0.206 0.19-0.089 0.388-0.147 0.596-0.186L12.414 8.807H9.211l1.326-2.276 2.908 1.59c0.962 0.543 1.671-0.71 0.706-1.252L9.986 4.565c-1.532-0.853-2.18 0.562-2.18 0.562L5.658 8.756 0 8.753c0.178 1.035 1.109 2.424 1.578 3.071z" />,<path d="M10.672 11.646a2.358 2.358 0 0 1 0.632 0.194c0.291 0.128 0.617 0.206 0.958 0.205 0.341 0 0.667-0.078 0.962-0.205a2.337 2.337 0 0 1 0.985-0.221c0.353 0 0.69 0.082 0.989 0.221a2.398 2.398 0 0 0 0.961 0.205l-0.007-3.237-3.002-0.004L10.672 11.646z" /></svg>