<svg xmlns="http://www.w3.org/2000/svg" fill="currentColor" width="1em" height="1em" viewBox="0 0 16 16"><path d="M7.996 3.995c-1.111 0-2.014-0.895-2.014-1.998C5.982 0.894 6.884 0 7.996 0c1.112 0 2.013 0.894 2.013 1.997 0 1.103-0.902 1.998-2.013 1.998zM14.03 12.267l-1.585-5.521C11.811 4.539 9.964 4.607 9.964 4.607H6.027s-1.847-0.069-2.48 2.138L1.961 12.267c-0.151 0.516 0.133 0.91 0.584 1.04 0.45 0.129 0.911-0.098 1.03-0.511l1.541-5.382 0.753-0.001L3.405 16H12.586L10.122 7.413l0.752 0.001 1.542 5.382c0.118 0.413 0.579 0.64 1.03 0.511 0.451-0.129 0.736-0.523 0.584-1.04z" fill-rule="evenodd" /></svg>