<svg xmlns="http://www.w3.org/2000/svg" fill="currentColor" width="1em" height="1em" viewBox="0 0 16 16"><path d="M12.73 9.585c-0.323 0-0.633 0.076-0.905 0.204-0.269 0.116-0.567 0.189-0.88 0.189-0.313 0-0.611-0.073-0.881-0.189a2.145 2.145 0 0 0-1.812 0c-0.266 0.116-0.564 0.189-0.877 0.189s-0.611-0.073-0.88-0.189a2.145 2.145 0 0 0-1.811 0c-0.269 0.116-0.567 0.189-0.879 0.189-0.313 0-0.611-0.073-0.881-0.189a2.128 2.128 0 0 0-1.808 0c-0.269 0.116-0.567 0.189-0.88 0.189v1.317c0.313 0 0.611-0.073 0.88-0.19a2.128 2.128 0 0 1 1.808 0c0.227 0.102 0.48 0.16 0.741 0.175l-1.096 1.091a0.899 0.899 0 0 0-1.112 0.125l-1.253 1.254a0.896 0.896 0 0 0 1.265 1.265l1.251-1.254a0.892 0.892 0 0 0 0.16-1.047l1.505-1.505c0.102-0.033 0.204-0.058 0.299-0.102a2.145 2.145 0 0 1 1.811 0c0.268 0.116 0.567 0.189 0.881 0.189s0.611-0.073 0.879-0.189a2.145 2.145 0 0 1 1.81 0c0.271 0.116 0.567 0.189 0.882 0.189 0.311 0 0.611-0.073 0.88-0.189a2.145 2.145 0 0 1 1.811 0c0.268 0.116 0.567 0.189 0.88 0.189V9.978c-0.311 0-0.611-0.073-0.88-0.189-0.276-0.128-0.582-0.204-0.906-0.204M7.508 7.433H7.127l0.767-2.554 1.585 0.586L7.505 7.433z m5.833-4.288l1.251-1.256a0.887 0.887 0 0 0 0-1.265 0.887 0.887 0 0 0-1.263 0l-1.253 1.254a0.892 0.892 0 0 0-0.123 1.108L10.394 4.548l-3.098-1.149a1.28 1.28 0 0 0-1.855 0.742L4.495 7.331a0.454 0.454 0 0 0-0.019 0.102H0.24v1.712c0.23 0 0.468-0.054 0.678-0.146a2.639 2.639 0 0 1 2.199-0.004 1.676 1.676 0 0 0 1.37 0.004 2.604 2.604 0 0 1 2.202-0.004 1.651 1.651 0 0 0 1.371 0.003 2.633 2.633 0 0 1 2.196-0.005 1.673 1.673 0 0 0 1.372 0.005c0.345-0.16 0.727-0.244 1.105-0.245 0.063 0 0.324 0.017 0.579-0.152 0.457-0.199 0.625-0.313 1.024-0.556 0.326-0.201 0.596-0.64-0.116-0.615-0.195 0.007-6.063 0-6.063 0L9.949 5.639l0.243 0.09a0.596 0.596 0 0 0 0.761-0.352 0.593 0.593 0 0 0-0.134-0.608L12.291 3.297c0.337 0.175 0.765 0.131 1.047-0.152z" />,<path d="M7.497 1.725l-0.165 0.349a0.646 0.646 0 0 1-0.576 0.364H6.371a1.212 1.212 0 0 0 2.202-0.691v-0.063h-1.021a0.058 0.058 0 0 0-0.055 0.044" />,<path d="M6.753 2.132a0.335 0.335 0 0 0 0.303-0.189l0.16-0.349c0.061-0.131 0.189-0.221 0.337-0.221h1.251a1.488 1.488 0 1 0-2.875 0.759h0.826z" /></svg>