<svg xmlns="http://www.w3.org/2000/svg" fill="currentColor" width="1em" height="1em" viewBox="0 0 16 16"><path d="M2.816 11.596C7.028 13.367 10.228 14.4 14.735 15.821c0.092 0.015 0.177-0.049 0.192-0.145a0.175 0.175 0 0 0-0.142-0.2A131.354 131.354 0 0 1 0.841 10.193a0.255 0.255 0 0 0-0.335 0.134 0.241 0.241 0 0 0 0.134 0.323c0.316 0.143 0.625 0.281 0.928 0.412L0.567 11.825a0.349 0.349 0 0 0 0.102 0.495c0.127 0.084 0.303 0.073 0.425-0.004l1.722-0.72zM11.238 4.116a1.201 1.201 0 1 0-0.005-2.4 1.201 1.201 0 0 0 0.005 2.4" />,<path d="M8.73 7.037l2.557-1.257 2.371 2.185a0.596 0.596 0 0 0 0.41 0.167 0.577 0.577 0 0 0 0.379-1.008l-3.395-3.112a1.324 1.324 0 0 0-0.389-0.267l-2.638-0.939L6.822 1.068a0.575 0.575 0 0 0-0.954 0.64l1.226 1.774c0.058 0.073 0.128 0.131 0.212 0.172L8.727 4.209l-2.333 1.196a1.258 1.258 0 0 0-0.622 0.89l0.011 2.136-2.158 0.971a0.752 0.752 0 0 0-0.425 0.646 0.742 0.742 0 0 0 1.072 0.698l2.64-1.193a0.736 0.736 0 0 0 0.378-0.5l-0.006-1.326 1.833 1.639-0.337 2.793c0 0.019-0.004 0.038-0.005 0.055a0.746 0.746 0 0 0 1.487 0.131l0.393-3.189 0.004-0.043a0.756 0.756 0 0 0-0.23-0.568L8.73 7.037z" /></svg>