<svg xmlns="http://www.w3.org/2000/svg" fill="currentColor" width="1em" height="1em" viewBox="0 0 16 16"><path d="M15.088 16c-0.331 0-0.646-0.076-0.927-0.204a2.26 2.26 0 0 0-0.957-0.216c-0.342 0-0.666 0.08-0.958 0.216A2.25 2.25 0 0 1 11.316 16c-0.331 0-0.646-0.076-0.926-0.204-0.294-0.136-0.616-0.216-0.958-0.216-0.342 0-0.669 0.08-0.958 0.216A2.25 2.25 0 0 1 7.545 16c-0.33 0-0.646-0.076-0.931-0.204a2.244 2.244 0 0 0-0.954-0.216c-0.342 0-0.669 0.08-0.957 0.216A2.246 2.246 0 0 1 3.776 16c-0.331 0-0.646-0.076-0.931-0.204a2.243 2.243 0 0 0-0.954-0.216c-0.342 0-0.669 0.08-0.957 0.216A2.267 2.267 0 0 1 0 16v-1.408c0.331 0 0.65-0.076 0.933-0.206a2.304 2.304 0 0 1 0.958-0.212c0.338 0 0.666 0.078 0.953 0.211a2.239 2.239 0 0 0 0.932 0.205 2.218 2.218 0 0 0 0.926-0.206 2.306 2.306 0 0 1 0.958-0.212c0.338 0 0.666 0.08 0.954 0.212a2.236 2.236 0 0 0 0.93 0.206c0.331 0 0.646-0.076 0.929-0.206 0.288-0.132 0.614-0.212 0.957-0.212s0.663 0.08 0.958 0.212a2.205 2.205 0 0 0 0.927 0.206c0.331 0 0.646-0.076 0.929-0.206 0.292-0.132 0.616-0.212 0.958-0.212 0.34 0 0.667 0.079 0.957 0.212a2.205 2.205 0 0 0 0.928 0.208v1.408zM4.27 9.094c0.702 0 1.274-0.578 1.273-1.289 0-0.71-0.571-1.283-1.273-1.284-0.7 0-1.271 0.573-1.271 1.284s0.573 1.288 1.272 1.288m0.18 4.451c-0.2 0.344-0.638 0.462-0.979 0.256-0.342-0.2-0.458-0.646-0.259-0.99L6.165 7.672a1.175 1.175 0 0 1 0.454-0.459l3.794-2.325L12.988 0.453C13.232 0.021 13.778-0.128 14.205 0.119c0.425 0.251 0.571 0.801 0.327 1.23L11.445 6.664a1.163 1.163 0 0 1-0.456 0.458L6.512 9.936 4.451 13.544z" /></svg>