<svg xmlns="http://www.w3.org/2000/svg" fill="currentColor" width="1em" height="1em" viewBox="0 0 16 16"><path d="M13.99 10.771c0.839 0 1.522-0.683 1.522-1.525 0-0.839-0.683-1.518-1.522-1.518-0.843 0-1.522 0.679-1.521 1.518 0 0.843 0.679 1.525 1.521 1.525z" />,<path d="M15.077 14.172c0.069 0.023 0.141 0.034 0.217 0.035 0.389 0 0.706-0.316 0.706-0.706a0.706 0.706 0 0 0-0.438-0.652l-2.106-0.819-1.532-2.723s-0.126-0.301-0.568-0.465l-5.026-2.014L3.344 1.768C3.169 1.478 2.852 1.28 2.486 1.28c-0.553 0-0.999 0.45-0.999 1.003 0 0.175 0.046 0.339 0.126 0.484l3.707 6.288-2.35-0.938-0.591 0.355 9.392 3.695h-0.003l0.385 0.61s0.152 0.328 0.606 0.507l1.167 0.454c-0.759 0.758-1.823 0.431-1.823 0.43L0.633 9.562 0 9.94l11.977 4.736c1.392 0.507 2.528-0.71 2.528-0.71v0.004l0.572 0.202z" /></svg>