<svg xmlns="http://www.w3.org/2000/svg" fill="currentColor" width="1em" height="1em" viewBox="0 0 16 16"><path d="M14.668 5.394A1.332 1.332 0 0 0 16 4.062c0-0.735-0.596-1.328-1.332-1.328-0.733 0-1.33 0.594-1.331 1.328s0.597 1.332 1.331 1.332zM14.011 14.984a1.353 1.353 0 0 0 1.855-0.472l-0.465-0.279c-0.228 0.384-0.727 0.506-1.109 0.279L0.275 6.282 0 6.752 14.011 14.984z" />,<path d="M8.937 0.301c-0.81-0.544-1.904-0.33-2.45 0.483-0.301 0.444-0.383 1.006-0.236 1.462l0.931 3.05-2.811 0.896a1.085 1.085 0 0 0-0.67 0.877c-0.073 0.594 0.37 0.987 0.964 1.057 0.135 0.016 0.226-0.024 0.352-0.055l3.837-1.269c0.281-0.102 0.589-0.382 0.619-0.626 0.021-0.177 0.078-0.326 0.042-0.432l-0.584-2.086 2.306 1.371 0.279 2c0.024 0.35 0.183 0.601 0.452 0.751L14.984 9.541a0.683 0.683 0 0 0 0.928-0.275c0.183-0.33 0.059-0.75-0.272-0.932l-2.383-1.391-0.275-3.565a1.453 1.453 0 0 0-0.612-1.045L8.938 0.301z" /></svg>