<svg xmlns="http://www.w3.org/2000/svg" fill="currentColor" width="1em" height="1em" viewBox="0 0 16 16"><path d="M7.789 3.311c0.8 0 1.455-0.655 1.455-1.458 0-0.8-0.655-1.455-1.455-1.454s-1.455 0.655-1.454 1.454c0 0.804 0.655 1.457 1.454 1.458M14.938 15.644a2.124 2.124 0 0 1-0.877-0.189c-0.276-0.127-0.582-0.204-0.905-0.204-0.32 0-0.63 0.077-0.904 0.204a2.115 2.115 0 0 1-1.756 0c-0.276-0.127-0.582-0.204-0.906-0.204-0.32 0-0.628 0.077-0.902 0.204a2.128 2.128 0 0 1-1.757 0c-0.276-0.127-0.585-0.204-0.906-0.204-0.32 0-0.628 0.077-0.905 0.204a2.109 2.109 0 0 1-1.753 0c-0.276-0.127-0.585-0.204-0.906-0.204-0.323 0-0.633 0.077-0.905 0.204-0.268 0.122-0.567 0.189-0.878 0.189V14.327c0.313 0 0.611-0.068 0.878-0.189 0.272-0.127 0.582-0.204 0.905-0.203 0.32 0 0.631 0.077 0.906 0.203a2.118 2.118 0 0 0 1.753 0 2.182 2.182 0 0 1 0.905-0.203c0.32 0 0.631 0.077 0.906 0.203a2.131 2.131 0 0 0 1.756 0c0.276-0.127 0.582-0.204 0.901-0.203 0.324 0 0.633 0.077 0.908 0.203a2.131 2.131 0 0 0 1.756 0c0.276-0.127 0.585-0.204 0.904-0.203 0.32 0 0.63 0.077 0.905 0.203 0.269 0.121 0.567 0.189 0.877 0.189v1.317zM9.363 13.079a2.211 2.211 0 0 0-0.675 0.189 2.182 2.182 0 0 1-0.652 0.175v-3.593l1.327-0.873v4.102z" />,<path d="M4.448 9.987h1.68c0-0.305-0.16-0.57-0.407-0.719a0.461 0.461 0 0 1-0.869 0 0.841 0.841 0 0 0-0.404 0.719z m3.095 3.465c-0.215-0.029-0.422-0.095-0.614-0.181a2.124 2.124 0 0 0-0.734-0.196v-1.14H4.355l-0.397-1.779c-0.007-0.058-0.015-0.111-0.015-0.171A1.353 1.353 0 0 1 4.815 8.727l0.002-3.613c0-0.865 0.684-1.562 1.535-1.562l2.847 0.003c0.934 0 1.556 0.783 1.556 1.581v3.901c0.004 0.723-0.941 0.723-0.941 0v-3.622h-0.448l-0.006 2.52H6.217v-2.517h-0.451v3.317c0.097 0.035 0.189 0.08 0.276 0.138l1.506 0.979-0.006 3.6z" /></svg>