<svg xmlns="http://www.w3.org/2000/svg" fill="currentColor" width="1em" height="1em" viewBox="0 0 16 16"><path d="M13.818 12.056c0.601-0.2 0.926-0.852 0.727-1.46l-0.435 0.142c0.118 0.365-0.079 0.757-0.438 0.877L2.216 15.562l0.148 0.438 11.454-3.944zM3.267 5.236c0.629-0.186 0.988-0.855 0.804-1.492-0.182-0.638-0.845-1.002-1.473-0.815-0.631 0.185-0.994 0.856-0.808 1.493 0.185 0.636 0.843 1.001 1.477 0.814" />,<path d="M2.78 6.905c-0.627-1.21 1.173-2.188 1.835-1.016l1.294 2.483 2.46-0.707c0.406-0.118 0.968 0.331 0.969 0.86l0.015 3.537c0.003 0.877-1.287 0.882-1.288-0.008-0.002-0.822-0.024-2.579-0.024-2.578L5.473 10.256c-0.561 0.164-1.026-0.119-1.247-0.538l-1.446-2.814z" />,<path d="M6.758 7.464V0H6.243v7.608l0.515-0.144zM1.6 8.517c-0.354-0.702 0.557-1.168 0.911-0.466l1.11 2.2c0.242 0.455 0.714 0.764 1.258 0.764 0.17 0 0.328-0.044 0.483-0.077l1.4-0.415c0.743-0.227 1.031 0.763 0.282 0.986l-1.474 0.433c-0.22 0.069-0.457 0.104-0.702 0.104-0.948 0-1.767-0.542-2.171-1.334L1.6 8.517z" /></svg>