<svg xmlns="http://www.w3.org/2000/svg" fill="currentColor" width="1em" height="1em" viewBox="0 0 16 16"><path d="M15.485 16c-0.323 0-0.64-0.076-0.918-0.203a2.213 2.213 0 0 0-0.948-0.215c-0.334 0-0.658 0.078-0.944 0.215-0.282 0.127-0.595 0.203-0.922 0.203s-0.639-0.076-0.917-0.203a2.208 2.208 0 0 0-0.948-0.215c-0.334 0-0.658 0.078-0.947 0.215-0.279 0.127-0.591 0.203-0.917 0.203-0.327 0-0.64-0.076-0.92-0.203-0.288-0.136-0.61-0.214-0.948-0.215-0.336 0-0.658 0.078-0.945 0.215-0.281 0.127-0.593 0.203-0.92 0.203s-0.638-0.076-0.92-0.203a2.21 2.21 0 0 0-0.945-0.215c-0.339 0-0.66 0.078-0.947 0.215C1.199 15.924 0.887 16 0.56 16v-1.395c0.327 0 0.639-0.074 0.919-0.201a2.256 2.256 0 0 1 0.947-0.211c0.335 0 0.659 0.078 0.945 0.211a2.221 2.221 0 0 0 0.92 0.201 2.226 2.226 0 0 0 0.92-0.201 2.264 2.264 0 0 1 0.945-0.211c0.338 0 0.66 0.078 0.948 0.21a2.216 2.216 0 0 0 0.919 0.202c0.327 0 0.638-0.074 0.918-0.202 0.289-0.132 0.612-0.21 0.947-0.21 0.339 0 0.662 0.078 0.948 0.21 0.279 0.128 0.591 0.202 0.917 0.202s0.639-0.074 0.922-0.202a2.259 2.259 0 0 1 0.944-0.21c0.337 0 0.661 0.078 0.947 0.21a2.219 2.219 0 0 0 0.919 0.202V16zM2.162 7.939c0.499 0 0.905-0.41 0.905-0.913 0-0.504-0.406-0.913-0.905-0.914-0.498 0-0.904 0.409-0.904 0.913 0 0.503 0.405 0.914 0.904 0.914zM6.136 12.081H3.55c-0.381 0-0.712-0.229-0.861-0.559L1.733 9.316a0.915 0.915 0 0 1-0.029-0.228c0-0.53 0.425-0.958 0.947-0.958l2.101-0.003 1.441-0.662c0.022-0.016 0.082-0.03 0.145-0.029 0.247 0 0.45 0.207 0.45 0.454 0 0.154-0.077 0.293-0.193 0.375l-1.568 0.714c-0.104 0.083-0.301 0.094-0.301 0.094h-0.944l0.791 1.776h1.748c0.173 0 0.294 0.06 0.4 0.156l1.714 1.644a0.608 0.608 0 0 1 0.03 0.849c-0.227 0.24-0.603 0.256-0.84 0.031L6.136 12.082z m8.059-2.986c0.033 0.057 0.115 0.08 0.19 0.08 0.145 0 0.264-0.12 0.264-0.271 0-0.072-0.035-0.136-0.068-0.196-1.616-3.118-5.979-2.19-6.514-1.987-0.089 0.034-0.142 0.136-0.142 0.237 0 0.147 0.119 0.267 0.264 0.267 0.045 0 0.067-0.004 0.105-0.016 4.281-0.972 5.675 1.492 5.901 1.886zM14.938 9.376L9.464 12.867 4.482 0c4.459 0.597 10.129 4.099 10.456 9.376z" /></svg>