<svg xmlns="http://www.w3.org/2000/svg" fill="currentColor" width="1em" height="1em" viewBox="0 0 16 16"><path d="M11.975 1.996h-3.752l-0.998 0.979h0.998v0.218c0 1.142 0.926 2.068 2.068 2.068s2.068-0.926 2.068-2.068v-1.197h-0.384z m0.384-0.654H8.132L7.225 0h5.134v1.342z m1.574 4.644h-0.2L8.531 12.59h4.24v1.161H7.443V16h7.578V7.128c0-0.63-0.487-1.142-1.088-1.142z m-1.823-0.023H6.744v0.003c-0.248 0.001-0.49 0.086-0.647 0.285-0.615 0.778-1.23 1.556-1.845 2.333-0.908-0.691-1.816-1.382-2.723-2.074-0.426-0.324-1.095-0.067-1.341 0.351-0.294 0.503-0.073 1.018 0.352 1.34 1.083 0.825 2.166 1.65 3.249 2.475 0.032 0.027 0.064 0.054 0.1 0.076 0.013 0.01 0.026 0.02 0.039 0.03 0.189 0.144 0.427 0.173 0.654 0.125 0.206-0.024 0.4-0.109 0.533-0.278 0.009-0.011 0.017-0.022 0.026-0.033 0.042-0.043 0.078-0.09 0.11-0.138 0.648-0.819 1.295-1.638 1.942-2.457v4.203L12.11 5.963z" fill-rule="evenodd" /></svg>