<svg xmlns="http://www.w3.org/2000/svg" fill="currentColor" width="1em" height="1em" viewBox="0 0 16 16"><path d="M12.346 8.402l-4.199-0.691 0.602-0.429 1.009 0.14 1.007-0.14zM9.758 0.467c0.842 0 1.524 0.682 1.524 1.525 0 0.842-0.537 1.524-1.524 1.524-0.842 0-1.525-0.682-1.525-1.524 0-0.842 0.683-1.524 1.525-1.525z m0.379 11.017v3.684A0.832 0.832 0 0 0 10.97 16a0.832 0.832 0 0 0 0.832-0.832V11.484c0-0.459-0.372-0.832-0.832-0.832a0.833 0.833 0 0 0-0.833 0.832z m5.099 2.104a0.484 0.484 0 0 1-0.483 0.483h-2.552v-2.413h1.104V9.248a0.483 0.483 0 0 1 0.482-0.482h0.966a0.484 0.484 0 0 1 0.483 0.482v4.34z m-5.497 0.483H4.784a0.483 0.483 0 0 1-0.482-0.483V9.247c0-0.266 0.216-0.482 0.482-0.482h0.966a0.483 0.483 0 0 1 0.483 0.482v2.411h3.506v2.413zM7.13 8.866a0.833 0.833 0 0 0 0.686 0.956l3.635 0.599a0.833 0.833 0 0 0 0.956-0.686c0.075-0.453-0.232-0.882-0.686-0.956L8.086 8.18a0.833 0.833 0 0 0-0.956 0.685z m-4.099-4.563C1.845 4.303 0.88 3.338 0.88 2.152S1.845 0 3.031 0s2.152 0.965 2.152 2.152-0.966 2.151-2.152 2.151z m0-0.533c0.892 0 1.62-0.726 1.619-1.619 0-0.892-0.727-1.619-1.619-1.619-0.893 0-1.618 0.727-1.619 1.619 0 0.893 0.725 1.619 1.619 1.619z" />,<path d="M3.042 2.436a0.16 0.16 0 0 1-0.155-0.012 0.16 0.16 0 0 1-0.072-0.111L2.813 1.062a0.162 0.162 0 0 1 0.323 0v0.97l0.83-0.39a0.162 0.162 0 1 1 0.138 0.292l-1.062 0.502z m6.716 2.292l1.976-0.321v1.389l0.976 0.734c0.094 0.094 0.056 0.202 0.033 0.233-0.056 0.074-0.16 0.088-0.233 0.033l-1.231-0.931a0.565 0.565 0 0 0-0.652 0.924l2.103 1.478c0.098 0.069 0.237 0.116 0.376 0.116 0.118 0 0.257-0.049 0.361-0.123 0.221-0.157 0.302-0.435 0.226-0.691L12.912 5.26c-0.208-0.573-0.735-1.249-1.525-1.249H8.128c-0.79 0-1.316 0.675-1.525 1.249l-0.782 2.309c-0.075 0.256 0.007 0.534 0.228 0.691 0.103 0.074 0.242 0.123 0.36 0.123 0.139 0 0.278-0.046 0.376-0.116l2.103-1.478a0.565 0.565 0 0 0-0.652-0.924l-1.232 0.931a0.167 0.167 0 0 1-0.232-0.033c-0.022-0.03-0.061-0.138 0.033-0.233 0 0 0.661-0.497 0.976-0.734v-1.389l1.977 0.322z" /></svg>