<svg xmlns="http://www.w3.org/2000/svg" fill="currentColor" width="1em" height="1em" viewBox="0 0 16 16"><path d="M8.142 3.218a0.876 0.876 0 1 0 0-1.751 0.876 0.876 0 0 0 0 1.753m1.399 0.284H6.725c-0.622 0-1.12 0.51-1.12 1.141v2.102c0 0.523 0.69 0.523 0.69 0v-2.027h0.72V7.271c0.366 0.089 0.741 0.153 1.138 0.153 0.391 0 0.764-0.066 1.129-0.153V4.711h0.711v2.03c0 0.526 0.688 0.526 0.688 0V4.658a1.145 1.145 0 0 0-1.138-1.156m1.92 4.59a5.913 5.913 0 0 1-6.635 0.018l-0.743 1.102a7.182 7.182 0 0 0 4.054 1.24c1.511 0 2.912-0.462 4.071-1.254l-0.747-1.109z" />,<path d="M12.882 10.37a8.396 8.396 0 0 1-4.74 1.454 8.412 8.412 0 0 1-4.722-1.435l-0.75 1.081a9.703 9.703 0 0 0 5.472 1.68c2.032 0 3.916-0.622 5.483-1.682l-0.743-1.095z" />,<path d="M14.293 12.629a10.916 10.916 0 0 1-6.154 1.888A10.933 10.933 0 0 1 1.991 12.633l-0.729 1.097a12.208 12.208 0 0 0 6.88 2.105 12.231 12.231 0 0 0 6.898-2.119l-0.747-1.088z" /></svg>