<svg xmlns="http://www.w3.org/2000/svg" fill="currentColor" width="1em" height="1em" viewBox="0 0 16 16"><path d="M12.421 2.526c0.704 0 1.267-0.564 1.267-1.261A1.264 1.264 0 0 0 12.421 0c-0.697 0-1.261 0.567-1.261 1.265a1.26 1.26 0 0 0 1.261 1.261m-6.4 5.125l4.546-2.937c0.592-0.378 0.772-1.162 0.396-1.754-0.374-0.594-1.162-0.774-1.755-0.396l-3.351 2.165c-0.191 0.122-0.34 0.283-0.438 0.471L1.931 12.073C1.727 12.48 1.888 12.973 2.291 13.178a0.821 0.821 0 0 0 1.104-0.358L6.021 7.651z m8.853-0.481c0.6-0.376 0.787-1.168 0.409-1.77l-0.439 0.27a0.764 0.764 0 0 1-0.247 1.058L0.64 15.563 0.917 16l13.957-8.83z" /></svg>