<svg xmlns="http://www.w3.org/2000/svg" fill="currentColor" width="1em" height="1em" viewBox="0 0 16 16"><path d="M12.535 1.996h-3.752l-0.998 0.979h0.998v0.218c0 1.142 0.926 2.068 2.068 2.068s2.068-0.926 2.068-2.068v-1.197h-0.384z m0.384-0.654H8.692L7.785 0h5.134z m1.574 4.644h-0.2L9.091 12.59h4.24v1.161H8.003V16h7.578V7.128c0-0.63-0.487-1.142-1.088-1.142zM0.56 0.678v4.202l0.164 0.124L3 6.738c0.036 0.03 0.072 0.06 0.112 0.085l0.021 0.016v-1.835h0.897V0.678H0.56z m3.253 4.108h-0.68V2.637L0.846 0.895H3.813v3.892z" />,<path d="M12.67 5.963H7.304v0.003c-0.248 0.001-0.49 0.086-0.647 0.285-0.616 0.778-1.23 1.556-1.846 2.333-0.908-0.691-1.816-1.382-2.723-2.075-0.427-0.325-1.096-0.067-1.341 0.351-0.294 0.503-0.073 1.018 0.351 1.34l3.25 2.475c0.032 0.027 0.064 0.054 0.1 0.076 0.013 0.011 0.026 0.02 0.039 0.031 0.189 0.144 0.427 0.173 0.654 0.124 0.206-0.024 0.4-0.109 0.533-0.278l0.026-0.033c0.042-0.043 0.078-0.09 0.109-0.138L7.753 8v4.203l4.917-6.24z" /></svg>