<svg xmlns="http://www.w3.org/2000/svg" fill="currentColor" width="1em" height="1em" viewBox="0 0 16 16"><path d="M7.493 4.681c1.279 0 2.312-1.051 2.312-2.343C9.805 1.045 8.772 0 7.493 0S5.18 1.045 5.18 2.338c0 1.291 1.034 2.342 2.313 2.343z m2.249 0.569c1.058 0.038 1.503 0.894 1.503 0.895l3.415 4.737a1.331 1.331 0 0 1 0.224 0.745c0 0.737-0.59 1.335-1.319 1.334-0.174 0-0.333-0.039-0.484-0.096l-2.061-0.582v2.079H3.864V12.283l-2.061 0.581a1.308 1.308 0 0 1-0.485 0.097C0.589 12.962 0 12.363 0 11.626c0-0.278 0.082-0.535 0.229-0.745l3.413-4.736s0.448-0.857 1.501-0.895H9.742zM7.443 12.91l2.67-0.897-0.058-0.012c-1.844-0.547-1.127-3.009 0.712-2.459l0.253 0.089v-2.779l-3.577 1.18-3.579-1.18V9.63l0.252-0.089c1.843-0.55 2.561 1.913 0.717 2.459l-0.06 0.013 2.67 0.897zM14.793 16c0.183 0 0.33-0.148 0.33-0.333a0.33 0.33 0 0 0-0.33-0.333H0.352c-0.179 0-0.329 0.147-0.329 0.333 0 0.185 0.15 0.333 0.329 0.333h14.441z" /></svg>