<svg xmlns="http://www.w3.org/2000/svg" fill="currentColor" width="1em" height="1em" viewBox="0 0 16 16"><path d="M6.607 0H3.533v2.2h3.074V0z m3.469 9.493a0.526 0.526 0 0 1-0.526-0.527V2.889h4.644l1.958 8.292-0.01 0.537V15.383a0.512 0.512 0 0 1-0.512 0.512H11.115a0.512 0.512 0 0 1-0.512-0.512V9.493h-0.49m-4.047 0.013c0.292 0 0.527-0.233 0.527-0.525V2.899h-4.64L-0.01 11.192 0 11.732v3.665a0.514 0.514 0 0 0 0.512 0.512h4.515c0.287 0 0.517-0.23 0.517-0.512v-5.891h0.483m2.839-6.608h-1.591v5.647h1.593v-5.647zM12.627 0H9.55v2.2h3.077V0z" /></svg>