<svg xmlns="http://www.w3.org/2000/svg" fill="currentColor" width="1em" height="1em" viewBox="0 0 16 16"><path d="M15.294 10.895l-6.741-3.979V6.238c0-0.768-0.838-1.102-0.838-1.101-0.542-0.264-0.494-0.834-0.494-0.835 0-0.669 0.598-0.884 0.865-0.883 0.448 0 0.888 0.249 0.935 0.817 0.073 0.893 1.084 0.666 1.083-0.051C10.106 3.508 9.488 2.32 8.079 2.32 6.556 2.32 6.118 3.809 6.118 4.28c0 0.355 0.056 0.683 0.276 1.058 0.373 0.636 1.118 0.736 1.118 1.157v0.421L0.702 10.91C0.03 11.307-0.091 12.15 0.055 12.662c0.142 0.497 0.64 1.089 1.537 1.089h12.729c1.003 0 1.461-0.576 1.604-1.072 0.144-0.51 0.144-1.304-0.632-1.783z m-0.956 1.739H1.612c-0.414 0.016-0.67-0.564-0.261-0.82L7.99 7.938l6.604 3.859c0.41 0.29 0.188 0.836-0.256 0.837z" /></svg>