<svg xmlns="http://www.w3.org/2000/svg" fill="currentColor" width="1em" height="1em" viewBox="0 0 16 16"><path d="M13.143 15.716v-2.374L2.833 9.897v2.376l10.31 3.443z m-7.932-5.816c-0.355-0.4-2.712-3.125-0.334-5.482C6.86 2.452 7.149 0.801 6.481 0c0 0 5.045 2.073 2.078 6.882-0.508 0.817-1.777 1.781-1.114 3.769l-2.234-0.75z m3.098 0.653c-0.109-0.403-0.592-1.282 0.884-3.03 0.789-0.931 1.085-2.312 1.157-2.832 0 0 2.613 1.498 0.013 5.165l-2.054 0.697z m0.555 0.562l4.279-1.429v2.374l-0.725 0.239-3.553-1.184zM7.113 14.499L2.833 15.925v-2.374l0.728-0.238 3.552 1.186z" fill-rule="evenodd" /></svg>