<svg xmlns="http://www.w3.org/2000/svg" fill="currentColor" width="1em" height="1em" viewBox="0 0 16 16"><path d="M5.952 10.09l3.972 2.294-0.394 0.681L5.559 10.771z" />,<path d="M13.584 14.37c1.147-1.084 1.874-2.605 1.874-4.304 0-2.093-1.099-3.981-2.809-5.041l1.915-3.315-0.3-0.174L14.736 0.715 13.498 0 13.024 0.82l-0.317-0.183-4.708 8.156 0.411 0.238-0.584 1.01 1.035 0.597 0.584-1.01 0.41 0.237 1.98-3.429c1.214 0.774 1.993 2.13 1.993 3.63 0 2.373-1.932 4.304-4.305 4.304H6.053V16h9.766V14.37H13.584zM4.916 1.838V0.545h0.159l-0.003-0.311h-1.451l0.003 0.311h0.171v1.293H2.712V0.545h0.158l-0.001-0.311H1.416l0.003 0.311h0.171v1.293H0v6.481h6.491V1.838h-1.576z m1.026 5.932H0.549V2.387h1.041v4.141c0 0.314 0.256 0.568 0.565 0.568 0.31-0.001 0.557-0.255 0.557-0.568V2.387h1.082v4.141c0 0.314 0.256 0.568 0.566 0.568 0.31-0.001 0.556-0.255 0.555-0.568V2.387h1.027v5.383z" /></svg>