<svg xmlns="http://www.w3.org/2000/svg" fill="currentColor" width="1em" height="1em" viewBox="0 0 16 16"><path d="M0 6.205v9.789h15.439V6.205H0z m8.544 4.62V13.641h-1.669V10.824c-0.349-0.257-0.576-0.669-0.576-1.136 0-0.779 0.632-1.411 1.412-1.41s1.411 0.632 1.411 1.41c0 0.467-0.227 0.879-0.576 1.136l-0.002 0.001z" />,<path d="M5.254 0.572c-3.126 1.327-4.589 4.949-3.262 8.075l2.342-0.995L13.328 3.834C12.001 0.709 8.379-0.754 5.254 0.572z m-0.938 7.088c-0.782-1.844 0.081-3.98 1.925-4.762s3.98 0.08 4.762 1.924L4.317 7.66l-0.001 0z" /></svg>