<svg xmlns="http://www.w3.org/2000/svg" fill="currentColor" width="1em" height="1em" viewBox="0 0 16 16"><path d="M8.735 0C7.978 0.086 5.214 1.349 5.132 7.865c-0.084 6.857 2.845 8.301 3.611 8.288V11.622c-0.629-0.003-0.756-0.691-0.905-2.111-0.092-0.942-0.12-2.105 0-3.26 0.091-0.813 0.241-1.605 0.904-1.606L8.735 0z m1.638 16.162c0.296-0.004 0.506-0.242 0.505-0.514 0 0 0-3.53 0-3.529 0-0.283-0.226-0.504-0.506-0.506h-1.279V16.162s1.28-0.002 1.28 0z m0-11.517c0.296 0.001 0.506-0.238 0.505-0.505 0 0 0-3.636 0-3.635 0-0.283-0.226-0.504-0.506-0.505h-1.279v4.645s1.28 0.002 1.279 0z" /></svg>