<svg xmlns="http://www.w3.org/2000/svg" fill="currentColor" width="1em" height="1em" viewBox="0 0 16 16"><path d="M7.232 1.081a0.289 0.289 0 0 1-0.246-0.285c0-0.109 0.062-0.2 0.148-0.253-0.09-0.05-0.148-0.145-0.148-0.252C6.986 0.129 7.114 0 7.274 0h1.43c0.16 0 0.287 0.129 0.287 0.291 0 0.111-0.062 0.206-0.155 0.253 0.09 0.049 0.156 0.144 0.156 0.253a0.29 0.29 0 0 1-0.246 0.284l1.736 4.746c0.108 0.305 0.164 0.65 0.164 0.993v8.415a0.571 0.571 0 0 1-0.572 0.571H5.9A0.57 0.57 0 0 1 5.332 15.235V6.822c0-0.344 0.056-0.688 0.16-0.995l1.74-4.745z" fill-rule="evenodd" /></svg>