<svg xmlns="http://www.w3.org/2000/svg" fill="currentColor" width="1em" height="1em" viewBox="0 0 16 16"><path d="M12.856 11.744c1.338 0 2.427-1.084 2.426-2.424 0-1.343-1.088-2.429-2.426-2.429-1.345 0-2.429 1.086-2.429 2.429 0 1.34 1.084 2.424 2.429 2.424m-9.684 0c1.338 0 2.429-1.084 2.429-2.424 0-1.343-1.09-2.429-2.429-2.429-1.342 0-2.429 1.086-2.428 2.429 0 1.34 1.086 2.424 2.428 2.424M9.832 6.912H6.203v2.42H9.832V6.912zM12.231 4.345h-8.397v1.567h8.397V4.346z m0.969 1.565H16v6.602H0v-6.602h2.866l0.005-1.422c0-0.534 0.429-0.968 0.963-0.968H12.229c0.53 0 0.963 0.433 0.963 0.968l0.009 1.422z" /></svg>