<svg xmlns="http://www.w3.org/2000/svg" fill="currentColor" width="1em" height="1em" viewBox="0 0 16 16"><path d="M7.992 13.358C5.055 13.358 2.667 10.97 2.667 8.03 2.667 5.092 5.055 2.702 7.992 2.702s5.33 2.39 5.33 5.328c0 2.939-2.392 5.328-5.33 5.328z m0-1.318c2.21 0 4.011-1.798 4.012-4.011 0-2.209-1.802-4.01-4.012-4.01-2.211 0-4.008 1.801-4.007 4.01-0.001 2.213 1.797 4.011 4.007 4.011z" fill-rule="evenodd" />,<path d="M8.02 8.734a0.396 0.396 0 0 1-0.383-0.029 0.399 0.399 0 0 1-0.179-0.275L7.453 5.333a0.401 0.401 0 0 1 0.801 0v2.402l2.055-0.967a0.399 0.399 0 0 1 0.533 0.19c0.095 0.202 0.008 0.44-0.19 0.534l-2.631 1.242zM5.714 12.571h4.572v3.429H5.714zM5.714 0h4.572v3.429H5.714z" fill-rule="evenodd" /></svg>