<svg xmlns="http://www.w3.org/2000/svg" fill="currentColor" width="1em" height="1em" viewBox="0 0 16 16"><path d="M15.964 4.774l-1.312 10.327H10.223L8.916 4.774h5.408L15.395 1.04 16 1.21l-1.024 3.562 0.988 0.002zM8.29 10.788s0.166-1.502-2.131-1.502H2.5c-2.293 0-2.131 1.502-2.132 1.502h7.922zM0.368 13.595s-0.162 1.506 2.132 1.506h3.659c2.297 0 2.131-1.506 2.131-1.506H0.369z m7.578-0.727a0.68 0.68 0 0 0 0.68-0.68c0-0.372-0.304-0.676-0.68-0.676H0.68C0.306 11.512 0 11.816 0 12.188a0.682 0.682 0 0 0 0.68 0.68h7.266z" /></svg>