<svg xmlns="http://www.w3.org/2000/svg" fill="currentColor" width="1em" height="1em" viewBox="0 0 16 16"><path d="M5.739 1.894a0.289 0.289 0 0 0 0.191 0.073c0.162 0 0.293-0.132 0.293-0.292 0-0.051-0.017-0.099-0.036-0.144l-0.328-0.768a0.468 0.468 0 0 0-0.417-0.258 0.47 0.47 0 0 0-0.343 0.796L5.739 1.896z m1.082 0.144c0.028 0.064 0.045 0.138 0.045 0.208 0 0.303-0.245 0.548-0.545 0.548-0.109 0-0.212-0.037-0.298-0.093l-1.311-1.097a0.973 0.973 0 0 1-0.228-0.627c0-0.531 0.428-0.967 0.957-0.967 0.393 0 0.735 0.247 0.874 0.593L6.821 2.038zM11.023 3.005a0.292 0.292 0 0 1 0.287 0.29v0.45c0 0.16-0.131 0.29-0.287 0.29l-0.267-0.011c0.32 0.202 0.554 0.554 0.554 0.967v9.84c0 0.504-0.401 0.911-0.897 0.912H5.251A0.906 0.906 0 0 1 4.348 14.831l0.005-9.84c0-0.413 0.228-0.765 0.551-0.967l-0.267 0.011a0.285 0.285 0 0 1-0.284-0.29V3.295c0-0.158 0.125-0.29 0.284-0.29H11.023z" fill-rule="evenodd" /></svg>