<svg xmlns="http://www.w3.org/2000/svg" fill="currentColor" width="1em" height="1em" viewBox="0 0 16 16"><path d="M7.101 11.212v3.79s0.126 0.998-1.109 0.998h-4.88c-1.238 0-1.108-0.998-1.108-0.998v-3.79h7.097zM4.85 0.46A0.962 0.962 0 0 0 4.026 0L2.454 0.003c-0.553 0-1.001 0.453-1.001 1.012 0 0.197 0.059 0.379 0.154 0.532l0.009 0.015a4.101 4.101 0 0 1 0.736 2.352c0 1.483-0.785 2.786-1.954 3.498l-0.014 0.004a0.814 0.814 0 0 0-0.376 0.69v1.202h7.098V4.887s0.01-0.409-0.263-0.914L4.85 0.461z m5.652 0A0.968 0.968 0 0 1 11.326 0l1.576 0.003c0.551 0 0.999 0.453 0.999 1.012 0 0.197-0.053 0.379-0.148 0.532l-0.015 0.014c-0.46 0.67-0.736 1.478-0.736 2.352 0 1.483 0.785 2.786 1.959 3.498l0.01 0.005c0.229 0.146 0.38 0.394 0.38 0.69v1.202H8.246v-4.421s-0.005-0.41 0.268-0.914L10.502 0.46z m4.846 10.752v3.79s0.126 0.998-1.111 0.998H9.357c-1.238 0-1.111-0.998-1.111-0.998v-3.79h7.102zM8.275 10.616a0.341 0.341 0 0 0 0.339-0.342c0-0.182-0.154-0.335-0.339-0.335h-1.132c-0.186 0-0.332 0.152-0.332 0.335 0 0.19 0.146 0.342 0.332 0.342h1.133z" /></svg>