<svg xmlns="http://www.w3.org/2000/svg" fill="currentColor" width="1em" height="1em" viewBox="0 0 16 16"><path d="M10.396 7.12v1.886h4.661A0.944 0.944 0 0 0 16 8.063 0.942 0.942 0 0 0 15.057 7.12h-4.661z m-8.765 1.355l0.431-0.18 0.268 0.46 0.435-0.315 0.311 0.436 0.416-0.338 0.337 0.412L4.222 8.592l0.357 0.393 0.377-0.38 0.38 0.38 0.378-0.38 0.373 0.38 0.38-0.38 0.377 0.38 0.378-0.38 0.378 0.38 0.375-0.38 0.378 0.38 0.377-0.38 0.378 0.38 0.376-0.38 0.381 0.38V7.124H0v0.008a5.668 5.668 0 0 0 1.631 1.343" /></svg>