<svg xmlns="http://www.w3.org/2000/svg" fill="currentColor" width="1em" height="1em" viewBox="0 0 16 16"><path d="M0 13.72V11.524h13.707V13.72z m14.115-2.231h0.735v2.222h-0.735z m1.876-0.357v-1.351c0.001-0.806-0.294-1.604-0.808-2.191-0.57-0.651-1.376-1.009-2.268-1.008h-0.533c0.15-0.347 0.23-0.711 0.228-1.052 0.002-0.656-0.252-1.264-0.713-1.71-0.46-0.445-1.101-0.694-1.806-0.705V3.85c1.039 0.023 1.788 0.722 1.785 1.681 0.003 0.383-0.154 0.834-0.42 1.204a0.367 0.367 0 0 0 0.299 0.581h1.16c0.868 0 1.412 0.413 1.715 0.759 0.398 0.454 0.627 1.076 0.626 1.706v1.351h0.735z m-0.725 0.357H16v2.222h-0.734z" />,<path d="M12.89 8.333h-0.01s-0.492-0.001-0.985-0.001c-0.246 0-0.493 0-0.677 0l-0.225 0c-0.026 0-0.054 0-0.083 0.002v-0.001c-0.444-0.001-0.68-0.253-0.801-0.465-0.208-0.365-0.211-0.864-0.007-1.212a0.368 0.368 0 0 0-0.339-0.553c-0.555 0.034-1.024-0.114-1.358-0.427-0.29-0.273-0.456-0.653-0.457-1.044 0-0.509 0.298-1.463 1.411-1.496V2.4c-0.852 0.018-1.358 0.424-1.635 0.766-0.324 0.4-0.51 0.934-0.51 1.465 0 0.593 0.251 1.168 0.688 1.58 0.27 0.253 0.708 0.537 1.36 0.613-0.101 0.47-0.031 0.988 0.209 1.409 0.302 0.529 0.826 0.833 1.438 0.835 0.007 0 0.013 0 0.019 0 0.108-0.002 1.218-0.001 1.952 0 0.429-0.002 0.764 0.106 0.97 0.31 0.175 0.174 0.264 0.425 0.265 0.743v1.011h0.735V10.12c-0.001-0.514-0.168-0.95-0.483-1.263-0.344-0.343-0.856-0.524-1.478-0.524z m-1.688 0.59z" /></svg>