<svg xmlns="http://www.w3.org/2000/svg" fill="currentColor" width="1em" height="1em" viewBox="0 0 16 16"><path d="M16 14.068H0V2h16v12.068z m-14.107-1.117h12.214L10.088 8.837l-0.761 0.766c-0.33 0.329-0.801 0.518-1.297 0.517l-0.008 0c-0.498-0.002-0.971-0.195-1.299-0.529l-0.773-0.783-4.057 4.144zM1.116 3.916v8.233L5.165 8.014 1.116 3.916zM10.874 8.045l4.01 4.104V4.008l-4.01 4.037zM1.896 3.117l5.622 5.691c0.122 0.124 0.307 0.195 0.508 0.195h0.003c0.198 0 0.388-0.07 0.506-0.189L14.196 3.116H1.896z" /></svg>