<svg xmlns="http://www.w3.org/2000/svg" fill="currentColor" width="1em" height="1em" viewBox="0 0 16 16"><path d="M15.828 7.44l-1.288-1.3H6.996C6.352 5.004 5.141 4.237 3.752 4.24 1.681 4.236 0.004 5.93 0 8.016c0.005 2.091 1.681 3.785 3.751 3.788 1.386-0.002 2.594-0.767 3.24-1.9h1.517l1.202-1.202 0.92 0.92 0.882-0.883 0.908 0.906 0.919-0.919 0.919 0.919 1.57-1.568c0.226-0.236 0.233-0.402 0-0.637zM2.109 9.009c-0.553-0.005-0.998-0.455-0.993-1.006-0.005-0.558 0.44-1.008 0.993-1.005 0.544-0.003 0.989 0.447 0.993 1.005-0.004 0.55-0.449 1-0.993 1.006z" /></svg>