<svg xmlns="http://www.w3.org/2000/svg" fill="currentColor" width="1em" height="1em" viewBox="0 0 16 16"><path d="M9.034 12.372v-4.576L8.162 0.25C8.141 0.05 8.017 0.004 7.903 0c-0.119 0.004-0.242 0.05-0.268 0.25l-0.847 7.546v4.576C5.199 11.539 4.001 12.834 4 14.012c0.001 1.048 0.774 1.91 1.874 1.908 1.107 0.002 1.862-0.963 1.865-1.908V9.41h0.353v4.602c-0.002 1.091 0.88 1.897 1.831 1.9 1.184-0.002 1.941-0.839 1.942-1.891-0.001-1.196-1.235-2.482-2.831-1.649zM5.865 14.962c-0.52-0.002-0.94-0.423-0.941-0.941 0.001-0.518 0.421-0.938 0.941-0.941 0.517 0.002 0.937 0.422 0.942 0.941-0.004 0.519-0.424 0.939-0.94 0.941z m4.136 0a0.947 0.947 0 0 1-0.942-0.941 0.946 0.946 0 0 1 0.941-0.941 0.945 0.945 0 0 1 0.94 0.941 0.945 0.945 0 0 1-0.94 0.941z" fill-rule="evenodd" /></svg>