<svg xmlns="http://www.w3.org/2000/svg" fill="currentColor" width="1em" height="1em" viewBox="0 0 16 16"><path d="M1.12 8.836c1.001-1.179 2.827-2.005 4.388-1.743 0.174-2.151-0.071-4.156 1-6.133C3.189 1.173 1.648 6.247 1.12 8.836M12.892 5.07c0.697-0.83 2.347-1.253 3.213-0.476C13.849 1.44 11.058-0.583 7.086 0.764c3.102 0.942 5.276 3.84 5.805 4.306" />,<path d="M12.267 5.198C11.182 3.684 7.769 1.266 7.019 1.417c-0.8 0.16-1.022 4.702-0.95 5.676 0.475-0.892 1.202-1.564 2.045-1.984l3.461 9.423 0.475-0.12-3.494-9.493c1.156-0.427 2.484-0.391 3.712 0.279" /></svg>