<svg xmlns="http://www.w3.org/2000/svg" fill="currentColor" width="1em" height="1em" viewBox="0 0 16 16"><path d="M10.902 1.099a0.294 0.294 0 0 1-0.25-0.29c0-0.111 0.063-0.203 0.151-0.257-0.091-0.051-0.15-0.148-0.151-0.256 0-0.164 0.13-0.296 0.293-0.296h1.453c0.163 0 0.292 0.131 0.292 0.296 0 0.113-0.063 0.209-0.158 0.256 0.091 0.05 0.158 0.146 0.158 0.257a0.295 0.295 0 0 1-0.25 0.29l1.764 4.821c0.11 0.31 0.167 0.66 0.166 1.008v8.549a0.58 0.58 0 0 1-0.581 0.58H9.549a0.579 0.579 0 0 1-0.577-0.581V6.93c0-0.349 0.057-0.698 0.163-1.011l1.767-4.82zM2.794 5.955a0.211 0.211 0 0 0 0.139 0.053c0.118 0 0.214-0.097 0.214-0.213 0-0.038-0.013-0.072-0.026-0.106l-0.24-0.56a0.342 0.342 0 0 0-0.304-0.189 0.343 0.343 0 0 0-0.25 0.582L2.794 5.956z m0.789 0.104c0.02 0.047 0.033 0.101 0.034 0.153 0 0.221-0.179 0.4-0.399 0.4-0.079 0-0.155-0.027-0.217-0.068l-0.958-0.801a0.71 0.71 0 0 1-0.166-0.458c0-0.388 0.312-0.706 0.699-0.706 0.287 0 0.537 0.18 0.638 0.433l0.37 1.047z m3.068 0.707a0.213 0.213 0 0 1 0.21 0.211v0.329c0 0.117-0.096 0.212-0.21 0.211l-0.194-0.008c0.234 0.148 0.404 0.405 0.404 0.707v7.185c0 0.368-0.293 0.665-0.655 0.665H2.438A0.662 0.662 0 0 1 1.778 15.401l0.004-7.185c0-0.302 0.167-0.559 0.402-0.707l-0.195 0.008a0.208 0.208 0 0 1-0.207-0.211v-0.329c0-0.115 0.091-0.212 0.207-0.211H6.651z" /></svg>