<svg xmlns="http://www.w3.org/2000/svg" fill="currentColor" width="1em" height="1em" viewBox="0 0 16 16"><path d="M7.713 4.71c0 0.211-0.166 0.374-0.379 0.375H3.374c-0.213 0-0.379-0.164-0.379-0.375V1.371c0-0.211 0.166-0.374 0.38-0.375h3.96c0.213 0 0.379 0.164 0.379 0.375V4.71z m4.617 0.427c-0.501-0.11-0.683-0.368-0.683-0.604v-0.864s0.333 0.074 0.413 0.094c0.163 0.042 0.266 0.291 0.27 0.509 0.005 0.218 0 0.863 0 0.863z m1.009 5.244c0-0.01-0.139-1.061-0.139-1.061V4.464c0-0.52-0.171-0.943-0.523-1.298L10.427 0.928c-0.155 0-0.585 0.428-0.585 0.428 0 0.156 1.116 1.264 1.117 1.264l-0.033 1.884c0 0.669 0.544 1.211 1.215 1.211l0.302 0.005-0.107 3.601 0.15 1.235 0.676 3.643c0.025 0.592-0.516 0.944-0.943 0.944-0.395 0-0.853-0.326-0.854-0.747l0.008-6.386c0-0.776-0.63-1.407-1.406-1.407h-1.357c0.096-0.005 0.099-4.181 0.099-5.067V1.371c0-0.756-0.618-1.371-1.374-1.371H3.374C2.616 0 2 0.615 2 1.371V16h6.71l0.005-8.499h1.266a0.528 0.528 0 0 1 0.528 0.527v6.368C10.509 15.251 11.307 16 12.218 16c0.86 0 1.824-0.684 1.824-1.604-0.015-0.212-0.704-4.015-0.704-4.015z" /></svg>