<svg xmlns="http://www.w3.org/2000/svg" fill="currentColor" width="1em" height="1em" viewBox="0 0 16 16"><path d="M0.045 14.984h15.726V0H0.045v14.984zM1.389 3.404c0-1.105 0.893-2 2.004-2h9.04a2 2 0 0 1 2.002 2V8.838H13.221l-0.751-2.043a0.317 0.317 0 0 0-0.596 0.004c-0.045 0.125-0.212 0.602-0.42 1.194-0.32-1.336-0.993-4.158-0.993-4.158a0.315 0.315 0 0 0-0.326-0.243c-0.155 0.008-0.28 0.126-0.298 0.28s-0.515 4.598-0.664 5.913c-0.269-0.404-0.536-0.808-0.536-0.809a0.318 0.318 0 0 0-0.264-0.139h-1.221a1168.611 1168.611 0 0 0-0.749-2.043 0.32 0.32 0 0 0-0.301-0.206 0.312 0.312 0 0 0-0.294 0.21l-0.424 1.194c-0.319-1.335-0.992-4.158-0.992-4.157a0.317 0.317 0 0 0-0.624 0.037c0-0.001-0.515 4.596-0.664 5.912L2.567 8.977a0.316 0.316 0 0 0-0.263-0.139H1.389V3.404z m11.043 10.332H3.392a2 2 0 0 1-2.003-2.005v-2.261h0.741c0.156 0.233 0.924 1.389 0.924 1.39a0.318 0.318 0 0 0 0.58-0.14c0.016-0.133 0.341-3.034 0.56-4.975 0.366 1.541 0.821 3.439 0.821 3.439 0.031 0.137 0.15 0.236 0.29 0.243 0.142 0.008 0.269-0.079 0.316-0.211 0 0 0.257-0.731 0.487-1.377 0.243 0.661 0.526 1.423 0.526 1.423a0.312 0.312 0 0 0 0.295 0.208h1.271c0.156 0.232 0.925 1.389 0.925 1.389a0.316 0.316 0 0 0 0.337 0.132c0.131-0.03 0.227-0.14 0.241-0.272s0.342-3.034 0.561-4.976c0.366 1.543 0.819 3.44 0.82 3.44 0.032 0.137 0.15 0.236 0.29 0.243 0.142 0.008 0.269-0.079 0.315-0.211 0 0 0.26-0.731 0.488-1.377 0.242 0.661 0.523 1.423 0.523 1.423a0.315 0.315 0 0 0 0.296 0.208h1.436v2.261a2.001 2.001 0 0 1-2 2.003z" fill-rule="evenodd" /></svg>