<svg xmlns="http://www.w3.org/2000/svg" fill="currentColor" width="1em" height="1em" viewBox="0 0 16 16"><path d="M0.019 0.254h2.679v1.439c0.004 0.331 0.242 0.446 0.564 0.31L7.624 0.02c0.127-0.055 0.287 0.013 0.348 0.122l0.347 0.752c0.048 0.119 0.007 0.263-0.122 0.329L2.106 3.968C1.059 4.522 0.023 3.8 0.019 2.811V0.254z m14.515 3.338l1.419-1.138-0.808-1.09L13.875 2.304l0.583-1.899L13.199 0.02 12.541 2.022 11.883 0.02l-1.27 0.385 0.583 1.899-1.307-0.959-0.808 1.091 1.457 1.156h-1.467v11.676H16V3.591h-1.466zM11.835 13.905h-1.467V8.189h1.467v5.716z m0-7.08h-1.467V4.973h1.467V6.826z m2.868 7.079h-1.467V8.189h1.467v5.716z m0-7.079h-1.467V4.974h1.467V6.826zM7.483 12.908V4.908H5.208l0.01-1.335c-0.009 0.005-4.278 1.909-4.278 1.909C0.249 5.812 0 6.293 0 6.948V13.397c0 1.028 0.826 1.87 1.777 1.871h5.725V14.083c-0.701-0.086-0.701-1.087-0.019-1.175z m-5.735 1.053c-0.627-0.004-0.625-0.884 0-0.884h3.996c-0.278 0.206-0.26 0.692 0.037 0.884H1.748z m4.456-2.134H2.707l2.501-1.128V6.205h0.997v5.622z" /></svg>