<svg xmlns="http://www.w3.org/2000/svg" fill="currentColor" width="1em" height="1em" viewBox="0 0 16 16"><path d="M7.648 0h0.716v2.72H7.648V0z m-0.042 13.226h0.715v2.72h-0.715v-2.72z m5.674-5.779H16v0.714H13.28v-0.714zM0 7.403h2.72v0.716H0V7.403zM1.036 4.064l0.347-0.625 2.376 1.318-0.347 0.626L1.036 4.064z m2.852-2.908l0.606-0.381 1.443 2.308-0.606 0.377-1.443-2.304zM10.357 12.627l0.617-0.356 1.36 2.356-0.618 0.357-1.359-2.357z m2.079-1.903l0.347-0.624 2.38 1.317-0.349 0.627-2.378-1.32zM4.336 15.016l-0.625-0.347 1.318-2.38 0.627 0.346L4.336 15.016zM1.175 11.994L0.798 11.388l2.306-1.443 0.378 0.606-2.307 1.443zM12.692 5.611l-0.359-0.621 2.355-1.36 0.359 0.621-2.355 1.36zM10.873 3.572l-0.627-0.348 1.319-2.377 0.626 0.347-1.318 2.378z m-7.283 4.392c0-2.44 1.979-4.419 4.419-4.419 2.438 0 4.415 1.979 4.415 4.419S10.447 12.381 8.009 12.381c-2.44 0-4.419-1.977-4.419-4.417" /></svg>