<svg xmlns="http://www.w3.org/2000/svg" fill="currentColor" width="1em" height="1em" viewBox="0 0 16 16"><path d="M11.46 4.548H9.536l1.547-0.623a0.324 0.324 0 0 0-0.24-0.604l-1.743 0.706 1.423-1.412a0.331 0.331 0 0 0 0.096-0.231 0.324 0.324 0 0 0-0.551-0.231l-2.002 1.991 0.009-2.827a0.32 0.32 0 0 0-0.32-0.32H7.751c-0.178 0-0.32 0.142-0.323 0.32l-0.009 2.827c-0.645-0.649-1.796-1.813-1.796-1.813a0.325 0.325 0 0 0-0.459 0 0.325 0.325 0 0 0 0 0.458l1.25 1.263-1.801-0.72a0.324 0.324 0 1 0-0.238 0.6l1.55 0.619H4.066a0.484 0.484 0 0 0-0.486 0.484v10.311c0 0.267 0.217 0.48 0.486 0.48h7.395c0.267 0 0.48-0.213 0.48-0.48v-10.311c0-0.267-0.213-0.484-0.48-0.484z m-0.484 4.312H8.075v-3.342h2.901v3.342z m-3.548 0h-2.88v-3.342h2.88v3.342z m-2.88 0.648h2.88v5.347h-2.88V9.508z m3.527 0h2.901v5.347H8.075V9.508z" fill-rule="evenodd" /></svg>