<svg xmlns="http://www.w3.org/2000/svg" fill="currentColor" width="1em" height="1em" viewBox="0 0 16 16"><path d="M11.343 1.889H9.003c-0.418-0.004-0.403 0.62 0 0.622h2.34v0.311H9.011c-0.424-0.002-0.409 0.622 0 0.621h2.332v0.326H9.011c-0.424 0.002-0.409 0.626 0 0.629h2.332v0.311H9.011c-0.415-0.002-0.409 0.622 0 0.622h2.332v0.31H9.011c-0.415 0.002-0.417 0.625 0 0.623h2.332v0.318H9.011c-0.415-0.003-0.417 0.621 0 0.623h2.332v0.31H9.011c-0.415 0-0.417 0.624 0 0.622h2.332v0.311H9.011c-0.415 0.003-0.409 0.627 0 0.629h2.332v6.048c-0.004 0.925 1.406 0.909 1.407 0V0.956c0-0.419-0.349-0.952-0.925-0.948L9.004 0c-0.419 0.003-0.403 0.627 0 0.63h2.34v0.31H9.003c-0.418 0-0.402 0.624 0 0.623h2.34v0.326zM8.638 14.109c-0.08 0.512 0.094 1.431 0.459 1.764 0.382 0.349 0.832-0.095 0.645-0.458-0.188-0.355-0.425-0.55-0.226-1.399l-0.878 0.093z" />,<path d="M7.892 11.132v-4.12L7.114 0.226C7.092 0.041 6.98-0.002 6.874 0c-0.104-0.002-0.215 0.04-0.234 0.226l-0.761 6.786v4.12C4.442 10.384 3.363 11.55 3.36 12.608 3.364 13.555 4.06 14.331 5.055 14.334c0.992-0.003 1.671-0.873 1.671-1.725V8.465h0.318v4.143C7.045 13.593 7.84 14.319 8.693 14.318c1.069 0.001 1.75-0.753 1.749-1.702 0.001-1.074-1.109-2.232-2.55-1.484z m-2.853 2.331c-0.466 0.001-0.844-0.378-0.847-0.847 0.003-0.464 0.381-0.843 0.846-0.84a0.842 0.842 0 0 1 0.847 0.84 0.846 0.846 0 0 1-0.848 0.847z m3.723 0c-0.463 0.001-0.842-0.378-0.839-0.847a0.836 0.836 0 0 1 0.839-0.84c0.47-0.003 0.848 0.376 0.848 0.84a0.844 0.844 0 0 1-0.847 0.847z" /></svg>