<svg xmlns="http://www.w3.org/2000/svg" fill="currentColor" width="1em" height="1em" viewBox="0 0 16 16"><path d="M8.567 1.899H6.213c-0.426 0.001-0.41 0.631 0 0.628h2.354v0.322H6.213c-0.423-0.003-0.408 0.627 0 0.628h2.354v0.329H6.213c-0.423 0-0.408 0.63 0 0.628h2.354v0.314H6.213c-0.415 0.003-0.408 0.634 0 0.637h2.354v0.315H6.213c-0.415-0.002-0.416 0.628 0 0.628h2.354v0.313H6.213c-0.415 0.002-0.416 0.632 0 0.628h2.354v0.322H6.213c-0.415-0.003-0.416 0.627 0 0.628h2.354V8.533H6.213c-0.415-0.001-0.408 0.629 0 0.627h2.354v6.114c0.002 0.931 1.425 0.915 1.429 0V0.965C9.992 0.54 9.64 0.002 9.061 0H6.213c-0.426 0-0.41 0.63 0 0.628l2.354 0.007v0.314H6.213c-0.425-0.003-0.409 0.627 0 0.628h2.354v0.322z" fill-rule="evenodd" /></svg>