<svg xmlns="http://www.w3.org/2000/svg" fill="currentColor" width="1em" height="1em" viewBox="0 0 16 16"><path d="M8.055 3.112c-0.496 0-0.902-0.407-0.902-0.906 0-0.504 0.407-0.908 0.902-0.907a0.904 0.904 0 0 1 0.907 0.907 0.906 0.906 0 0 1-0.907 0.906z m7.32 7.935l-0.483-3.009c-0.056-0.281-0.302-0.496-0.594-0.496-0.178 0-0.336 0.075-0.451 0.197L11.622 9.827c-0.037 0.031-0.072 0.067-0.104 0.112a0.649 0.649 0 0 0 0.136 0.901c0.054 0.04 0.114 0.067 0.174 0.092l0.559 0.185C11.848 12.638 10.533 13.795 8.917 14.115l0.004-9.878a2.203 2.203 0 0 0 1.339-2.031C10.26 0.986 9.275 0 8.054 0c-1.215 0-2.205 0.986-2.205 2.206 0 0.909 0.567 1.693 1.355 2.031l0.004 9.894c-1.651-0.297-3.016-1.464-3.568-3.013l0.562-0.186c0.06-0.024 0.119-0.051 0.175-0.092 0.285-0.213 0.349-0.617 0.135-0.901a0.542 0.542 0 0 0-0.103-0.112L2.184 7.74A0.605 0.605 0 0 0 1.736 7.542a0.61 0.61 0 0 0-0.598 0.496L0.655 11.047c-0.011 0.047-0.015 0.099-0.015 0.151a0.645 0.645 0 0 0 0.645 0.645c0.067 0 0.131-0.007 0.19-0.028l0.524-0.17C2.83 14.172 5.21 16 8.016 16s5.187-1.829 6.018-4.359l0.522 0.174c0.06 0.021 0.123 0.029 0.19 0.028a0.645 0.645 0 0 0 0.646-0.644 0.672 0.672 0 0 0-0.016-0.151z" /></svg>