<svg xmlns="http://www.w3.org/2000/svg" fill="currentColor" width="1em" height="1em" viewBox="0 0 16 16"><path d="M3.822 1.826c0.336 0 0.601-0.274 0.601-0.608 0-0.331-0.265-0.603-0.601-0.603a0.604 0.604 0 0 0-0.604 0.603c0 0.334 0.27 0.608 0.604 0.608m1.773 0c0.334 0 0.604-0.274 0.603-0.608a0.605 0.605 0 0 0-0.604-0.603c-0.331 0-0.601 0.272-0.601 0.603 0 0.334 0.27 0.608 0.601 0.608M13.598 0c0.305 0 0.553 0.245 0.553 0.548v1.88H2.029V0.553C2.029 0.25 2.276 0.002 2.577 0.002L13.598 0zM7.996 13.227c2.158 0 3.904-1.746 3.904-3.904 0-2.156-1.746-3.904-3.904-3.904-2.156 0-3.902 1.748-3.903 3.904 0 2.158 1.747 3.904 3.903 3.904M2 15.996V3.827a0.548 0.548 0 0 1 0.548-0.549h11.024a0.548 0.548 0 0 1 0.548 0.549V16L2 15.996z" />,<path d="M11.16 8.326a3.326 3.326 0 0 1 0.123 0.897c0 1.809-1.472 3.277-3.283 3.277-1.813 0-3.281-1.468-3.281-3.277 0-0.338 0.051-0.661 0.141-0.966v0.007a1.142 1.142 0 0 0 0.845 0.369c0.292 0 0.553-0.104 0.757-0.285h-0.005a1.14 1.14 0 0 0 0.76 0.285c0.3 0 0.574-0.113 0.778-0.307v0.004c0.204 0.19 0.475 0.303 0.781 0.303 0.309 0 0.594-0.122 0.796-0.323v0.005c0.206 0.201 0.486 0.318 0.796 0.318a1.147 1.147 0 0 0 0.787-0.312l0.004 0.004z" /></svg>