<svg xmlns="http://www.w3.org/2000/svg" fill="currentColor" width="1em" height="1em" viewBox="0 0 16 16"><path d="M11.336 11.306l0.77 0.652 1.344-1.584-1.58-1.344-0.66 0.78 0.126 1.494zM15.754 12.314l-2.98-0.004-0.004 3.04h2.026l0.96-1.032V12.312zM10.368 15.51l1.008-0.3-0.906-3.032-2.152 0.64-0.42 1.81 2.468 0.88zM8.294 2.224C5.966 0.856 4.74 0.814 2.624 0.568l-0.08 0.4c2.63 0.608 3.296 1.224 5.106 2.32l0.25 1.2L1.928 14.32a0.88 0.88 0 0 0 0.766 1.28c0.32 0.006 0.6-0.16 0.76-0.412l5.88-9.612 2.39 1.53 1.23-2.026-4.66-2.856" fill-rule="evenodd" /></svg>