<svg xmlns="http://www.w3.org/2000/svg" fill="currentColor" width="1em" height="1em" viewBox="0 0 16 16"><path d="M1.971 11.92H0.64v2.621C0.64 15.344 1.362 16 2.249 16h11.653c0.887 0 1.61-0.656 1.61-1.459V11.92h-1.333v2.343c0 0.294-0.264 0.533-0.589 0.533H2.558c-0.326 0-0.587-0.239-0.587-0.533V11.92z" />,<path d="M12.555 13.673v-2.066L3.585 8.611v2.067z m-6.901-5.06c-0.309-0.348-2.359-2.718-0.291-4.769C7.088 2.133 7.339 0.696 6.758 0c0 0 4.389 1.804 1.808 5.988-0.442 0.71-1.546 1.549-0.969 3.278l-1.943-0.653z m2.695 0.568c-0.094-0.351-0.515-1.115 0.769-2.636 0.686-0.81 0.944-2.012 1.006-2.463 0 0 2.274 1.303 0.012 4.492l-1.787 0.607z m0.483 0.489l3.723-1.243v2.065l-0.632 0.208zM7.308 12.614l-3.723 1.241v-2.066l0.633-0.206z" /></svg>