<svg xmlns="http://www.w3.org/2000/svg" fill="currentColor" width="1em" height="1em" viewBox="0 0 16 16"><path d="M10.788 4.888L8.28 2.578 9.852 0.88 15.2 5.814c-1.139 1.268-2.214 2.115-3.924 2.284l-0.488-3.21z m0.67 8.043c0.017 0.268 0.083 0.538 0.202 0.798 0.524 1.143 1.871 1.648 3.012 1.123 1.141-0.524 1.643-1.871 1.123-3.012a2.272 2.272 0 0 0-1.698-1.298l-0.37 2.24-2.269 0.147z" />,<path d="M13.218 12.419l-1.479-2.017a2.5 2.5 0 0 0-1.005 1.728l2.483 0.289z m-6.446-6.176l0.371-1.46 1.113-1.214 1.694 1.565-7.218 7.797c-0.579 0.616-1.016 1.364-1.256 2.201L0 14.666c0.299-1.02 0.827-1.941 1.528-2.714l5.244-5.709z m2.557 6.73a2.5 2.5 0 0 1 0.963 1.974h-2.499l1.536-1.974z" /></svg>