<svg xmlns="http://www.w3.org/2000/svg" fill="currentColor" width="1em" height="1em" viewBox="0 0 16 16"><path d="M8.853 1.235v0.441H6.95V0.983h-0.551c0-0.432-0.466-0.982-1.133-0.983-0.642 0.001-1.227 0.505-1.227 1.266 0 0.361 0.208 0.684 0.393 0.795C3.704 2.329 2.73 3.248 2.536 3.807c-0.265 0.536 0.468 0.983 0.842 0.448 0.381-0.533 0.804-1.189 2.061-1.502v0.55c-0.517 0.101-1.944 0.942-1.943 2.573v9.495C3.495 15.607 3.605 16 4.078 16h4.178c0.474 0 0.583-0.393 0.581-0.629V5.876c0.002-1.631-1.375-2.472-1.895-2.572v-0.661h1.911v0.409L13.526 3.76V0.55L8.853 1.235z m-3.602 0.503c-0.297 0.001-0.54-0.242-0.543-0.542a0.55 0.55 0 0 1 0.543-0.543c0.301 0.003 0.544 0.246 0.542 0.543a0.54 0.54 0 0 1-0.542 0.542z" /></svg>