<svg xmlns="http://www.w3.org/2000/svg" fill="currentColor" width="1em" height="1em" viewBox="0 0 16 16"><path d="M16 8.399s-2.202-0.148-3.174-0.05c-0.075 0-0.37 0.157-0.446 0.157-0.898 0.046-1.425-0.059-2.248 0.085-1.272 0.192-2.544-0.098-3.89 0.047-1.193 0.1-2.469 0-3.737 0.051C1.902 8.251 0.844 8.447 0 8.467v1.243h16v-1.311z" />,<path d="M13.734 0.96L10.677 3.541 7.62 6.124h-0.84c-0.542 0-1.318-0.002-2.27-0.001-0.15 0-0.349 0.331-0.357 0.66-0.007 0.33 0.182 0.661 0.293 0.661h7.617c0.128 0 0.335-0.331 0.342-0.661 0.007-0.33-0.185-0.661-0.342-0.66H9.274l2.643-2.22L14.561 1.683c-0.036-0.1-0.196-0.272-0.371-0.424C14.015 1.108 13.826 0.978 13.734 0.96z m-1.033 9.685a0.058 0.058 0 0 0-0.075-0.016C8.96 12.73 4.72 11.035 3.908 10.674c-0.004-0.002-0.007-0.002-0.01-0.002-0.004-0.002-0.004-0.004-0.007-0.006v0.004c-0.025-0.005-0.057 0.002-0.068 0.023-0.014 0.025-0.021 0.052 0.003 0.068 5.273 3.494 8.832-0.005 8.868-0.041 0.021-0.022 0.025-0.052 0.007-0.075z m-1.429 2.089a0.055 0.055 0 0 0-0.071-0.015c-2.54 1.379-5.298 0.285-5.825 0.05h-0.007c0-0.004-0.004-0.004-0.003-0.003-0.025-0.007-0.06 0-0.071 0.025-0.014 0.025-0.018 0.053 0.006 0.071 3.534 2.355 5.943-0.028 5.968-0.054 0.018-0.021 0.021-0.053 0.003-0.075z m-1.468 1.849a0.061 0.061 0 0 0-0.071-0.018c-0.987 0.467-2.366 0.156-2.765 0.05-0.028-0.007-0.071 0.004-0.078 0.029-0.011 0.028-0.014 0.053 0.011 0.067 1.813 1.072 2.886-0.043 2.9-0.053a0.065 0.065 0 0 0 0.003-0.075z" fill-rule="evenodd" /></svg>