<svg xmlns="http://www.w3.org/2000/svg" fill="currentColor" width="1em" height="1em" viewBox="0 0 16 16"><path d="M2.933 13.246a0.85 0.85 0 1 0-0.849 0.849 0.848 0.848 0 0 0 0.849-0.849m7.87 0a0.85 0.85 0 0 0-0.85-0.85c-0.468 0-0.848 0.38-0.848 0.85a0.849 0.849 0 1 0 1.698 0M0.965 10.614a1.722 1.722 0 0 1 0.564-0.916l11.758-9.359C13.573 0.129 13.925 0 14.307 0A1.691 1.691 0 0 1 16 1.695c0 0.546-0.249 1.031-0.644 1.344-0.14 0.122-0.345 0.107-0.463-0.035a0.332 0.332 0 0 1 0.037-0.474c0.254-0.186 0.413-0.492 0.413-0.835 0-0.572-0.465-1.038-1.035-1.038-0.243 0-0.457 0.081-0.632 0.212L10.258 3.592l-1.787 5.173 1.084 2.576c0.127-0.028 0.262-0.053 0.398-0.053 1.084 0 1.96 0.878 1.96 1.958 0 1.086-0.876 1.957-1.96 1.957a1.954 1.954 0 0 1-1.955-1.957 1.938 1.938 0 0 1 0.92-1.656L8.137 9.724l-0.066 0.199c-0.238 0.732-1.029 1.132-1.76 0.889l-3.629-1.197-0.708 0.566a1.056 1.056 0 0 0-0.352 0.564c-0.048 0.212-0.013 0.415 0.057 0.596 0.127-0.024 0.267-0.053 0.404-0.053 1.079 0 1.956 0.878 1.956 1.958 0 1.086-0.876 1.957-1.956 1.957S0.123 14.332 0.123 13.246c0.001-0.708 0.359-1.329 0.923-1.671-0.109-0.301-0.155-0.629-0.081-0.961z" fill-rule="evenodd" /></svg>