<svg xmlns="http://www.w3.org/2000/svg" fill="currentColor" width="1em" height="1em" viewBox="0 0 16 16"><path d="M2.704 7.28L5.136 3.232h-1.248L1.451 7.285v6.32h1.253V7.283zM12.083 7.285L14.515 3.229h-1.248l-2.432 4.056v6.32h1.248v-6.32z" fill-rule="evenodd" />,<path d="M11.205 4.064l-0.119 0.2H6.059l0.119-0.2 0.12-0.2h5.024l-0.119 0.2z m-0.448 0.752l-0.12 0.198h-5.024l0.117-0.2 0.12-0.201h5.024l-0.117 0.2z m-0.448 0.749l-0.12 0.2h-5.024l0.118-0.2 0.119-0.2h5.024l-0.119 0.2z m-0.451 0.749l-0.117 0.2h-5.024l0.118-0.199 0.12-0.2h5.024l-0.118 0.202zM5.781 3.216l-2.432 4.069h6.838L12.621 3.216H5.779z" fill-rule="evenodd" /></svg>