<svg xmlns="http://www.w3.org/2000/svg" fill="currentColor" width="1em" height="1em" viewBox="0 0 16 16"><path d="M5.576 2.238h0.962c0.004-0.38-0.089-1.22 0.924-1.221 0.767 0.001 0.728 0.65 0.728 0.65s0.031 0.441-0.619 0.759c-0.588 0.292-0.643 0.698-0.642 0.877v1.127h0.97v-0.728c0.003-0.273 0.197-0.422 0.634-0.736 0.429-0.311 0.716-0.608 0.712-1.283C9.249 1.014 8.584-0.002 7.368 0c0 0-0.834-0.01-1.315 0.595-0.478 0.599-0.502 0.951-0.478 1.643z m2.316 2.544h-0.963v1.017h0.963zM14.161 11.098c1.414-0.002 1.838-1.163 1.839-1.832-0.002-0.832-0.717-1.714-1.691-1.714H12.056V5.604L1.975 7.74v0.556l10.08 2.011V8.452s2.164-0.003 2.176 0c0.504-0.003 0.874 0.523 0.877 0.845-0.002 0.414-0.248 0.878-0.877 0.877 0 0-0.711-0.069-0.712 0.438 0.001 0.514 0.54 0.483 0.642 0.486zM1.701 7.803v0.43H0.246c-0.322-0.004-0.333-0.43 0-0.43 0.01-0.003 1.456 0 1.455 0zM11.093 13.007s0.423-0.003 0.548 0c0.12-0.003 0.373 0.112 0.375 0.344V15.331l-1.197-0.344s-6.518-0.001-6.864 0c-0.343-0.001-0.48-0.287-0.477-0.438-0.003-0.155 0.119-0.445 0.477-0.446h3.459V13.899H3.955c-0.343 0-0.48-0.289-0.477-0.438-0.003-0.156 0.119-0.437 0.477-0.438h3.46V12.835s-3.114 0.001-3.46 0c-0.343 0.001-0.48-0.28-0.477-0.43-0.003-0.155 0.119-0.462 0.478-0.462h3.459v-0.188H3.955c-0.346 0.003-0.48-0.305-0.477-0.462-0.003-0.15 0.117-0.445 0.477-0.446h2.888l-0.97-0.266c-0.247-0.086-0.372-0.307-0.305-0.563 0.071-0.249 0.279-0.355 0.634-0.29l5.814 1.127v1.127c-0.003 0.271-0.187 0.447-0.383 0.446H11.093c-0.344 0.001-0.344 0.576 0 0.579z" /></svg>