<svg xmlns="http://www.w3.org/2000/svg" fill="currentColor" width="1em" height="1em" viewBox="0 0 16 16"><path d="M7.094 15.872c0.824-0.002 1.697-0.71 1.697-1.674V11.967H10.72l-2.115-9.981h-0.55l-1.991 9.98h1.836s0.003 2.143 0 2.155c0.003 0.499-0.518 0.866-0.837 0.868-0.41-0.002-0.87-0.246-0.868-0.869 0 0 0.069-0.704-0.434-0.705-0.509 0.001-0.478 0.534-0.48 0.636 0.002 1.4 1.152 1.819 1.813 1.821z m1.449-14.157h-0.427V0.274c0.003-0.318 0.425-0.33 0.427 0 0.003 0.01 0 1.441 0 1.441z" fill-rule="evenodd" /></svg>