<svg xmlns="http://www.w3.org/2000/svg" fill="currentColor" width="1em" height="1em" viewBox="0 0 16 16"><path d="M15.769 13.134v-0.004s-3.022-3.019-3.024-3.02a0.605 0.605 0 0 0-0.858 0.002L10.496 11.509c-0.541 0.541-1.238 0.061-2.577-1.031-0.886-0.722-1.905-1.693-2.788-2.788-0.62-0.768-1.168-1.575-0.602-2.141 0.001-0.001 1.397-1.393 1.398-1.395l0.001-0.003c0.251-0.25 0.226-0.634-0.003-0.862v-0.004L2.813 0.177c-0.24-0.239-0.623-0.234-0.858 0.002L0.553 1.58C-0.024 2.303-1.307 5.747 4.194 11.385c5.795 5.94 9.534 4.669 10.177 3.999 0 0 1.4-1.383 1.4-1.384l0.001-0.003c0.251-0.251 0.225-0.635-0.002-0.864z" /></svg>