<svg xmlns="http://www.w3.org/2000/svg" fill="currentColor" width="1em" height="1em" viewBox="0 0 16 16"><path d="M0.67 1.404v3.335h-0.499A0.171 0.171 0 0 1 0 4.567V0.264C0 0.119 0.109 0 0.258 0h2.204C2.611 0 2.72 0.118 2.72 0.264v0.252h3.409c0.095 0 0.171 0.076 0.171 0.171v0.968h-2.91V1.402c0-0.145-0.108-0.264-0.258-0.264H0.928c-0.149 0-0.258 0.12-0.258 0.266z" />,<path d="M7.641 6.758c0 0.094-0.076 0.17-0.172 0.17H1.512c-0.095 0-0.171-0.076-0.172-0.17V2.454c0-0.146 0.109-0.264 0.258-0.264h2.205c0.149 0 0.258 0.118 0.258 0.264v0.253h3.408c0.095 0 0.171 0.076 0.172 0.17v3.881zM4.998 4.308v-1.015h-1.015v1.015h-1.016v1.016h1.016v1.015h1.015v-1.015h1.015v-1.016h-1.014z m3.86-1.638v12.994H16V2.67H8.858zM15.552 13.826H9.305V8.918H15.552v4.908z m0-5.789H9.305V3.13H15.552v4.907z" />,<path d="M15.099 3.548H9.753v4.073h5.346V3.548zM13.296 4.914H11.536c-0.137 0-0.248-0.11-0.248-0.249 0-0.137 0.111-0.248 0.248-0.248h1.76a0.248 0.248 0 0 1 0 0.496z m1.806 4.421h-5.346v4.072h5.346v-4.072z m-1.806 1.367H11.536a0.248 0.248 0 0 1 0-0.497h1.76a0.248 0.248 0 0 1 0 0.497z" /></svg>