<svg xmlns="http://www.w3.org/2000/svg" fill="currentColor" width="1em" height="1em" viewBox="0 0 16 16"><path d="M3.681 0.134v15.847H12.39V0.134H3.681zM11.844 13.739H4.225V7.753H11.844v5.986z m0-7.059H4.225V0.695H11.844v5.984z" />,<path d="M11.291 1.205H4.772v4.967h6.519V1.205zM9.093 2.87H6.946c-0.167 0-0.302-0.135-0.302-0.303 0-0.167 0.135-0.302 0.302-0.302h2.147a0.302 0.302 0 0 1 0 0.605z m2.202 5.393H4.776v4.965h6.519v-4.965z m-2.202 1.666H6.946a0.303 0.303 0 0 1 0-0.606h2.147a0.303 0.303 0 0 1 0 0.606z" /></svg>