<svg xmlns="http://www.w3.org/2000/svg" fill="currentColor" width="1em" height="1em" viewBox="0 0 16 16"><path d="M11.852 2.71c-0.295 0.29-0.694 0.403-1.135 0.403-0.561 0-1.071-0.231-1.365-0.669-0.291 0.446-0.803 0.669-1.371 0.669-0.56 0-1.066-0.236-1.358-0.674-0.291 0.452-0.803 0.674-1.378 0.674-0.414 0-0.795-0.094-1.081-0.352l-0.217-1.574c0.297 0.397 0.769 0.654 1.298 0.654 0.574 0 1.087-0.285 1.378-0.736 0.293 0.437 0.798 0.736 1.359 0.736 0.568 0 1.081-0.285 1.372-0.731 0.293 0.437 0.803 0.731 1.365 0.731 0.572 0 1.078-0.298 1.367-0.749l-0.231 1.617z" />,<path d="M12.267 16L14.746 0 13.077 0.016 10.822 14.313H5.204L2.949 0.016 1.28 0l2.479 16H12.267z" /></svg>