<svg xmlns="http://www.w3.org/2000/svg" fill="currentColor" width="1em" height="1em" viewBox="0 0 16 16"><path d="M3.312 10.09l3.972 2.294-0.394 0.681L2.919 10.771 3.312 10.09z" />,<path d="M10.944 14.37c1.147-1.084 1.874-2.605 1.874-4.304 0-2.093-1.099-3.981-2.809-5.041l1.915-3.315-0.3-0.174L12.096 0.715 10.858 0 10.384 0.82l-0.317-0.183-4.708 8.156 0.411 0.238-0.584 1.01 1.035 0.597 0.584-1.01 0.41 0.237 1.98-3.429c1.214 0.774 1.993 2.13 1.993 3.63 0 2.373-1.932 4.304-4.305 4.304H3.413V16h9.766V14.37H10.944z" /></svg>