<svg xmlns="http://www.w3.org/2000/svg" fill="currentColor" width="1em" height="1em" viewBox="0 0 16 16"><path d="M7.47 6.623c0 0.659-0.601 1.365-1.379 1.365v6.827c0 1.58-2.152 1.58-2.152 0V7.986c-0.759 0-1.419-0.584-1.419-1.459V0.403c0-0.533 0.771-0.553 0.771 0.02v4.528h0.645V0.382c0-0.49 0.742-0.522 0.742 0.021v4.548h0.666V0.388c0-0.512 0.72-0.532 0.72 0.02v4.543h0.656V0.388c0-0.507 0.752-0.527 0.752 0.02V6.621z m5.744-4.795v12.982c0 1.545-2.158 1.522-2.157 0v-4.915h-1.149V1.829c0-2.427 3.307-2.427 3.306 0z" /></svg>