<svg xmlns="http://www.w3.org/2000/svg" fill="currentColor" width="1em" height="1em" viewBox="0 0 16 16"><path d="M8.028 8.66c1.197 0 1.752 0.909 1.869 2.199 0.028 0.309-0.001 0.759-0.041 1.281-0.134 1.732-0.289 3.86 0.864 3.86 0.975 0 1.476-1.871 1.766-4.004 0.279-2.112-0.016-3.162 0.129-4.1 0.277-1.777 1.828-3.37 1.349-5.634-0.265-1.256-0.957-1.848-1.643-2.096-1.579-0.575-2.598 0.533-4.293 0.533s-2.715-1.108-4.295-0.533C3.049 0.414 2.357 1.005 2.091 2.262c-0.478 2.265 1.072 3.858 1.35 5.634 0.145 0.938-0.15 1.988 0.129 4.1C3.859 14.128 4.36 16 5.335 16c1.153 0 0.999-2.128 0.864-3.86-0.04-0.521-0.068-0.971-0.041-1.28 0.116-1.291 0.679-2.2 1.87-2.2z" /></svg>