<svg xmlns="http://www.w3.org/2000/svg" fill="currentColor" width="1em" height="1em" viewBox="0 0 16 16"><path d="M7.409 15.987C7.482 13.521 6.141 12.591 4.505 11.978c-0.544 2.109 0.956 3.865 2.904 4.009m0.37-11.013c1.043-2.235 0.179-3.624-1.085-4.834-1.327 1.724-0.644 3.93 1.085 4.834m0.589 6.218c-0.072-2.466 1.268-3.398 2.905-4.009 0.542 2.109-0.957 3.865-2.905 4.009m0 3.801c-0.072-2.465 1.268-3.395 2.905-4.008 0.542 2.108-0.957 3.865-2.905 4.008m0-7.598c-0.072-2.466 1.268-3.398 2.905-4.011 0.542 2.111-0.957 3.865-2.905 4.011M7.409 12.185C7.482 9.72 6.141 8.787 4.505 8.177c-0.544 2.109 0.956 3.865 2.904 4.009m0-3.8C7.482 5.919 6.141 4.987 4.505 4.373c-0.544 2.111 0.956 3.866 2.904 4.013" fill-rule="evenodd" /></svg>