<svg xmlns="http://www.w3.org/2000/svg" fill="currentColor" width="1em" height="1em" viewBox="0 0 16 16"><path d="M10.753 9.21l0.003-1.836H12.973c0.378 0 0.615-0.521 0.204-0.947-0.005-0.006-1.765-1.766-1.766-1.765v-1.3L8.86 5.913l-1.406 0.001 3.299 3.297z m-1.647 1.268v1.253c0 0.967 1.288 1.078 1.583 0.331l-1.583-1.584z m-4.561-4.565h-1.223c-1.051 0-1.041 1.473 0.025 1.473h0.746V11.731c0 1.092 1.657 1.092 1.657 0V9.741H8.37L4.545 5.913z" />,<path d="M13.657 2.343C12.146 0.832 10.137 0 8 0S3.854 0.832 2.343 2.343C0.832 3.854 0 5.863 0 8s0.832 4.146 2.343 5.657C3.854 15.168 5.863 16 8 16s4.146-0.832 5.657-2.343C15.168 12.146 16 10.137 16 8s-0.832-4.146-2.343-5.657zM14.216 8a6.182 6.182 0 0 1-1.171 3.628l-8.673-8.672A6.183 6.183 0 0 1 8 1.784c3.428 0 6.216 2.789 6.216 6.216z m-12.432 0a6.184 6.184 0 0 1 1.242-3.725L11.726 12.973A6.183 6.183 0 0 1 8 14.216c-3.428 0-6.216-2.789-6.216-6.216z" /></svg>