<svg xmlns="http://www.w3.org/2000/svg" fill="currentColor" width="1em" height="1em" viewBox="0 0 16 16"><path d="M10.823 11.817h-0.606v2.332c0.004 0.413 0.607 0.413 0.606 0V11.817z m-0.693 0h-0.606v2.332c0.002 0.41 0.605 0.41 0.606 0V11.817z m-1.473 0h-0.606v2.332c0.004 0.413 0.607 0.413 0.606 0V11.817z m-0.693 0h-0.607v2.332c0.003 0.41 0.605 0.41 0.607 0V11.817z m-1.473 0h-0.607v2.332c0.004 0.413 0.607 0.413 0.607 0V11.817z m-0.693 0h-0.607v2.332c0.002 0.41 0.605 0.41 0.607 0V11.817z" />,<path d="M11.595 6.241H4.427C3.669 6.244 3.12 6.837 3.12 7.548v7.16c-0.002 0.727 0.59 1.294 1.307 1.292h7.176c0.714 0.003 1.296-0.532 1.291-1.292V7.548a1.297 1.297 0 0 0-1.299-1.307z m-0.047 8.404H4.467v-7.033H11.547v7.033zM9.776 0.704c-0.006-0.933 1.348-0.944 1.354 0l-0.023 2.843 0.733-0.889c0.502-0.555 1.386 0.214 0.842 0.834l-1.765 2.103c-0.283 0.282-0.645 0.28-0.921 0L8.24 3.484c-0.548-0.621 0.344-1.398 0.834-0.835l0.725 0.898-0.023-2.843z m-4.916 4.403c-0.006 0.935 1.348 0.946 1.355 0l-0.015-2.843 0.724 0.897c0.502 0.549 1.386-0.22 0.843-0.842L6.003 0.216c-0.283-0.279-0.645-0.277-0.922 0L3.325 2.326c-0.548 0.623 0.344 1.401 0.835 0.843l0.724-0.905-0.024 2.843z" />,<path d="M11.209 11.644a0.234 0.234 0 0 1-0.237 0.237s-1.585 0.002-1.59 0a0.236 0.236 0 0 1-0.237-0.237v-1.725a0.325 0.325 0 0 1 0.33-0.331c-0.003-0.002 1.402 0 1.402 0a0.325 0.325 0 0 1 0.331 0.331v1.725z m-1.024-2.197c0.248 0 0.451-0.203 0.449-0.449a0.451 0.451 0 0 0-0.449-0.457 0.459 0.459 0 0 0-0.457 0.458 0.456 0.456 0 0 0 0.457 0.449z m-1.142 2.197a0.233 0.233 0 0 1-0.236 0.237s-1.585 0.002-1.591 0a0.236 0.236 0 0 1-0.237-0.237v-1.725a0.325 0.325 0 0 1 0.332-0.331c-0.002-0.002 1.402 0 1.401 0a0.324 0.324 0 0 1 0.331 0.331v1.725zM8.019 9.447c0.248 0 0.451-0.203 0.449-0.449a0.451 0.451 0 0 0-0.449-0.457 0.459 0.459 0 0 0-0.458 0.458 0.457 0.457 0 0 0 0.456 0.449z m-1.142 2.197a0.233 0.233 0 0 1-0.236 0.237s-1.585 0.002-1.591 0a0.236 0.236 0 0 1-0.235-0.237v-1.725a0.325 0.325 0 0 1 0.331-0.331c-0.002-0.002 1.402 0 1.402 0a0.324 0.324 0 0 1 0.331 0.331v1.725z m-1.024-2.197c0.249 0 0.451-0.203 0.449-0.449a0.451 0.451 0 0 0-0.449-0.457 0.459 0.459 0 0 0-0.456 0.458 0.456 0.456 0 0 0 0.458 0.449z" /></svg>