<svg xmlns="http://www.w3.org/2000/svg" fill="currentColor" width="1em" height="1em" viewBox="0 0 16 16"><path d="M5.63 6.539h0.952a0.484 0.484 0 0 0 0.487-0.483V3.218a0.486 0.486 0 0 0-0.487-0.485h-0.952v3.806z m0 5.654h0.952a0.486 0.486 0 0 1 0.487 0.486v2.837A0.485 0.485 0 0 1 6.582 16h-0.952V12.193z m-1.139-2.826c-0.008-2.594 0.48-2.826 0.758-2.826h0.08V2.734h-0.099C4.735 2.734 2.32 3.628 2.32 9.368 2.32 15.107 4.735 16 5.23 16h0.099V12.193h-0.08c-0.278 0-0.75-0.234-0.758-2.826zM7.763 3.824a1.088 1.088 0 0 1 0.251 0.699 1.088 1.088 0 0 1-0.251 0.699l0.537 0.442c0.263-0.32 0.408-0.726 0.407-1.141a1.802 1.802 0 0 0-0.407-1.141l-0.537 0.442zM9.488 6.937a3.467 3.467 0 0 0 0.91-2.344c0-0.867-0.32-1.699-0.906-2.338l-0.522 0.455a2.778 2.778 0 0 1 0.735 1.883c0 0.703-0.263 1.373-0.743 1.89L9.488 6.938z m-0.522-0.342z m-0.004 0z m0.004 0z" />,<path d="M10.676 8.211a5.142 5.142 0 0 0 1.413-3.545 5.154 5.154 0 0 0-1.401-3.539l-0.515 0.469A4.461 4.461 0 0 1 11.392 4.666c0 1.15-0.434 2.243-1.226 3.077l0.51 0.468z" />,<path d="M11.868 9.485c1.23-1.283 1.908-2.971 1.908-4.749 0-1.773-0.674-3.454-1.896-4.736l-0.503 0.48A6.135 6.135 0 0 1 13.083 4.736c0 1.6-0.61 3.115-1.718 4.268l0.503 0.481z" /></svg>