<svg xmlns="http://www.w3.org/2000/svg" fill="currentColor" width="1em" height="1em" viewBox="0 0 16 16"><path d="M5.816 10.726V7.959c0-1.124 0.91-2.036 2.041-2.036 1.124 0 2.034 0.912 2.034 2.036v2.767H5.816z" />,<path d="M8.003 1.517c2.96 0 5.358 2.398 5.358 5.358v6.908h1.526l-0.004-6.908C14.883 3.078 11.8 0 8.003 0 4.205 0 1.124 3.078 1.124 6.875L1.12 13.788l1.524-0.004v-6.909c0-2.959 2.4-5.358 5.359-5.358" />,<path d="M8.269 11.318H7.438l-0.1 0.582h1.038l-0.107-0.582z m0.257 1.472h-1.337l-0.154 0.87h1.638l-0.146-0.87z m0.348 2.044H6.834L6.639 16h2.44l-0.205-1.166z" /></svg>