<svg xmlns="http://www.w3.org/2000/svg" fill="currentColor" width="1em" height="1em" viewBox="0 0 16 16"><path d="M1.396 3.591v6.948h-1.04A0.356 0.356 0 0 1 0 10.182V1.217C0 0.914 0.227 0.667 0.537 0.667h4.593C5.44 0.667 5.667 0.913 5.667 1.216v0.527h7.102c0.198 0 0.357 0.159 0.357 0.355v2.016h-6.064V3.587c0-0.303-0.226-0.549-0.537-0.55H1.933c-0.311 0-0.537 0.25-0.537 0.555z" fill-rule="evenodd" />,<path d="M15.918 14.746c0 0.197-0.159 0.355-0.357 0.355H3.149c-0.198 0-0.357-0.158-0.356-0.355V5.78c0-0.303 0.227-0.55 0.536-0.55h4.593c0.311 0 0.538 0.246 0.538 0.549v0.527h7.101c0.198 0 0.357 0.159 0.357 0.355v8.085z" fill-rule="evenodd" /></svg>