<svg xmlns="http://www.w3.org/2000/svg" fill="currentColor" width="1em" height="1em" viewBox="0 0 16 16"><path d="M8 12.733c-2.61 0-4.733-2.123-4.733-4.733 0-2.61 2.123-4.733 4.733-4.733 1.816 0 3.396 1.029 4.189 2.533h3.017c-0.941-3.087-3.81-5.333-7.205-5.333-4.161 0-7.533 3.373-7.534 7.533 0 4.16 3.373 7.533 7.534 7.533 2.169 0 4.121-0.918 5.496-2.384l-2.044-1.915C10.59 12.156 9.362 12.733 8.002 12.733z" />,<path d="M16 0v6.045M12.189 5.8h3.016" />,<path d="M16 2.911l-0.001 6.268-6.022-1.737z" /></svg>