<svg xmlns="http://www.w3.org/2000/svg" fill="currentColor" width="1em" height="1em" viewBox="0 0 16 16"><path d="M1.28 6.244l1.052 0.608 0.281 0.163-0.821 1.419a0.83 0.83 0 0 0-0.114 0.414c0 0.139 0.036 0.277 0.11 0.402 0 0 0.718 1.25 1.305 2.261 0.043-0.142 0.096-0.281 0.171-0.414L4.871 8.32l0.277 0.16 1.056 0.612-1.642-2.845L1.28 6.244z" fill-rule="evenodd" />,<path d="M4.42 10.222l-0.665 1.149a0.949 0.949 0 0 0-0.135 0.494 0.96 0.96 0 0 0 0.977 0.969H7.84V10.222H4.42zM13.049 2.048l-1.054 0.608-0.279 0.164-0.818-1.423a0.804 0.804 0 0 0-0.704-0.412h-2.614c0.103 0.107 0.196 0.222 0.271 0.355l1.605 2.777-0.281 0.164-1.056 0.608h3.28L13.049 2.048z" fill-rule="evenodd" />,<path d="M8.036 2.773L7.371 1.625A1.019 1.019 0 0 0 7.012 1.262 1.031 1.031 0 0 0 6.524 1.127a0.969 0.969 0 0 0-0.835 0.498l-1.627 2.809 2.263 1.301c0.244-0.423 1.561-2.702 1.707-2.962m2.699 11.561v-1.541l1.635 0.003a0.811 0.811 0 0 0 0.418-0.113 0.775 0.775 0 0 0 0.302-0.295l1.303-2.258c-0.142 0.028-0.29 0.057-0.439 0.057H10.734v-0.324l0.004-1.218-1.646 2.845 1.639 2.844z" fill-rule="evenodd" />,<path d="M12.608 9.628h1.326a0.988 0.988 0 0 0 0.854-0.485 0.978 0.978 0 0 0-0.008-0.972l-1.621-2.813-2.261 1.305 1.71 2.965" fill-rule="evenodd" /></svg>