<svg xmlns="http://www.w3.org/2000/svg" fill="currentColor" width="1em" height="1em" viewBox="0 0 16 16"><path d="M13.658 2.342C12.147 0.832 10.138 0 8.001 0h-0.01c-2.135 0-4.142 0.832-5.652 2.343S-0.002 5.861 0 7.995c-0.002 2.138 0.83 4.148 2.341 5.661C3.851 15.168 5.859 16 7.995 16h0.001c2.138 0 4.149-0.832 5.66-2.344C15.168 12.144 16 10.134 16 7.996c0-2.136-0.832-4.143-2.342-5.654z m-5.657-0.558c3.427 0 6.216 2.787 6.215 6.212a6.186 6.186 0 0 1-1.175 3.633l-8.672-8.679c1.048-0.757 2.304-1.166 3.622-1.166h0.01zM3.603 12.395c-1.174-1.175-1.82-2.737-1.819-4.4-0.001-1.361 0.434-2.656 1.239-3.726l8.698 8.706a6.189 6.189 0 0 1-3.725 1.241c-1.66 0-3.22-0.647-4.393-1.821z" /></svg>