<svg xmlns="http://www.w3.org/2000/svg" fill="currentColor" width="1em" height="1em" viewBox="0 0 16 16"><path d="M0.436 7.836c0 4.161 3.373 7.533 7.534 7.534 4.16 0 7.533-3.373 7.533-7.534 0-2.169-0.918-4.121-2.384-5.496L11.204 4.385c0.922 0.864 1.499 2.092 1.499 3.452 0 2.61-2.123 4.733-4.733 4.733-2.61 0-4.733-2.123-4.733-4.733" />,<path d="M12.703 7.836c0 2.61-2.123 4.733-4.733 4.734-2.61 0-4.733-2.123-4.734-4.734 0-1.36 0.578-2.587 1.5-3.452l-1.916-2.044C1.354 3.715 0.436 5.668 0.436 7.836c0 4.161 3.373 7.533 7.534 7.533 4.161 0 7.533-3.373 7.533-7.533" />,<path d="M6.638 0H9.301v8.21H6.638z" /></svg>