<svg xmlns="http://www.w3.org/2000/svg" fill="currentColor" width="1em" height="1em" viewBox="0 0 16 16"><path d="M13.657 2.343C12.146 0.832 10.137 0 8 0S3.854 0.832 2.343 2.343 0 5.863 0 8s0.832 4.146 2.343 5.657C3.854 15.168 5.863 16 8 16s4.146-0.832 5.657-2.343C15.168 12.146 16 10.137 16 8s-0.832-4.146-2.343-5.657zM14.216 8a6.182 6.182 0 0 1-1.195 3.661L4.339 2.979A6.182 6.182 0 0 1 8 1.784c3.428 0 6.216 2.789 6.216 6.216z m-12.432 0a6.184 6.184 0 0 1 1.232-3.712L11.712 12.983A6.183 6.183 0 0 1 8 14.216c-3.428 0-6.216-2.789-6.216-6.216z" />,<path d="M7.055 5.529v-0.453h2.047c0.661 0 1.328 0.614 1.328 1.436 0 0.7-0.452 1.217-1.039 1.353l1.297 1.297c0.876-0.54 1.513-1.511 1.513-2.673 0-1.596-1.277-3.146-3.009-3.145H5.232v0.362l1.823 1.823z m-1.823 1.096v6.064H7.032V9.623h1.198z" /></svg>