<svg xmlns="http://www.w3.org/2000/svg" fill="currentColor" width="1em" height="1em" viewBox="0 0 16 16"><path d="M8.001 3.107c1.307 0 2.535 0.509 3.459 1.433C12.385 5.464 12.893 6.693 12.893 8s-0.509 2.536-1.433 3.46c-0.924 0.924-2.153 1.433-3.46 1.434s-2.536-0.509-3.46-1.434C3.615 10.536 3.106 9.307 3.106 8s0.509-2.536 1.434-3.46c0.924-0.924 2.153-1.433 3.461-1.434m-0.001-2.666c-1.935 0-3.87 0.739-5.346 2.214-2.953 2.952-2.952 7.739 0 10.692 1.476 1.477 3.411 2.215 5.346 2.215s3.869-0.738 5.346-2.215c2.953-2.953 2.953-7.739 0-10.691C11.871 1.178 9.937 0.44 8.002 0.44z" />,<path d="M2.424 4.404l1.98-1.979 9.12 9.119-1.98 1.98z" /></svg>