<svg xmlns="http://www.w3.org/2000/svg" fill="currentColor" width="1em" height="1em" viewBox="0 0 16 16"><path d="M7.867 14.689a9.978 9.978 0 0 0-1.863-6.862A9.989 9.989 0 0 0 0.059 3.924 9.973 9.973 0 0 0 1.92 10.788a9.979 9.979 0 0 0 5.947 3.902z m-0.971-7.508a11.292 11.292 0 0 1 1 1.675 11.329 11.329 0 0 1 0.996-1.675 11.095 11.095 0 0 1 1.477-1.65A9.969 9.969 0 0 0 7.914 0a9.977 9.977 0 0 0-2.456 5.564 11.227 11.227 0 0 1 1.438 1.617z m8.833-3.258a9.988 9.988 0 0 0-5.945 3.904 10.058 10.058 0 0 0-1.314 2.479 11.075 11.075 0 0 1 0.513 4.081 9.966 9.966 0 0 0 4.886-3.599A9.973 9.973 0 0 0 15.729 3.924z" fill-rule="evenodd" /></svg>