<svg xmlns="http://www.w3.org/2000/svg" fill="currentColor" width="1em" height="1em" viewBox="0 0 16 16"><path d="M1.21 12.396C0.087 12.396 0 11.186 0 11.186V3.6h14.879S16 3.548 16 4.58c0 1.085-0.969 1.026-0.969 1.026H11.059a1.374 1.374 0 0 0-0.316-0.077L7.493 5.118l-3.592-1.035a0.216 0.216 0 0 0-0.267 0.147c-0.032 0.115 0.034 0.24 0.147 0.274l3.664 1.056a0.978 0.978 0 0 1 0.59 0.47 0.972 0.972 0 0 1 0.085 0.746 0.975 0.975 0 0 1-0.47 0.589 0.976 0.976 0 0 1-0.742 0.086c-0.002 0-0.003 0-0.006 0L5.36 7.004c-0.8-0.251-1.395 0.001-2.027 0.267-0.486 0.206-0.989 0.417-1.672 0.463a3.776 3.776 0 0 1-0.274 0.01 0.215 0.215 0 0 0-0.219 0.214c-0.002 0.118 0.099 0.224 0.219 0.224 0.916-0.002 1.555-0.27 2.117-0.509 0.603-0.254 1.078-0.456 1.73-0.251l0.324 0.094c-0.431 0.199-0.754 0.608-0.818 1.112-0.073 0.579 0.215 1.123 0.688 1.402a1.286 1.286 0 0 0-0.557 0.906c-0.089 0.704 0.412 1.391 1.117 1.459H1.21z" fill-rule="evenodd" />,<path d="M11.542 7.062c-0.068 0.538-0.561 0.922-1.1 0.853l-2.382-0.3a1.404 1.404 0 0 0 0.48-0.718 1.407 1.407 0 0 0-0.222-1.233l2.37 0.299a0.985 0.985 0 0 1 0.854 1.099M10.39 9.341a0.98 0.98 0 0 1-0.373 0.654 0.977 0.977 0 0 1-0.726 0.199L6.026 9.782a0.984 0.984 0 0 1-0.853-1.099 0.976 0.976 0 0 1 0.373-0.654 0.976 0.976 0 0 1 0.727-0.2l3.264 0.413a0.985 0.985 0 0 1 0.853 1.099M8.868 11.44a0.853 0.853 0 0 1-0.952 0.738l-1.875-0.237a0.852 0.852 0 0 1-0.737-0.951 0.852 0.852 0 0 1 0.951-0.737l1.874 0.237a0.852 0.852 0 0 1 0.745 0.843c0 0.037-0.001 0.072-0.006 0.107" fill-rule="evenodd" /></svg>