<svg xmlns="http://www.w3.org/2000/svg" fill="currentColor" width="1em" height="1em" viewBox="0 0 16 16"><path d="M6.772 3.965c0.586-0.002 1.061-0.477 1.059-1.059A1.062 1.062 0 0 0 6.772 1.84a1.063 1.063 0 0 0-1.058 1.066c0 0.582 0.475 1.056 1.059 1.059z" />,<path d="M14.123 2.996H11.66c-0.509-0.004-1.165 0.205-1.554 0.593L7.824 5.872v-0.668c-0.001-1.424-2.1-1.408-2.102 0v2.725h0.007l-1.982 1.982c-0.189 0.187-0.212 0.195-0.578 0.195-0.002 0-1.216 0-1.216 0C0.735 10.106 0.003 11.203 0 12.134c0.003 0.928 0.735 2.103 2.065 2.102 0 0 1.648 0.001 2.155 0 0.513 0.001 1.131-0.194 1.644-0.676l6.322-6.299c0.133-0.123 0.208-0.16 0.443-0.157 0 0 0.869-0.002 1.561 0 0.749-0.002 1.813-0.854 1.81-2.079 0.003-1.218-1.068-2.028-1.877-2.027z m-0.105 3.041h-1.336c-0.566 0-0.816 0.079-1.142 0.405L5.166 12.81c-0.254 0.261-0.581 0.364-0.999 0.36h-2.102c-0.542 0.004-1.017-0.453-1.014-1.051-0.004-0.602 0.45-0.937 0.916-0.939h1.442c0.423 0.002 0.699-0.118 0.938-0.36l6.48-6.48c0.267-0.265 0.53-0.298 0.983-0.3h2.215c0.543 0.002 0.906 0.605 0.909 0.969-0.003 0.356-0.26 1.028-0.916 1.028z" /></svg>