<svg xmlns="http://www.w3.org/2000/svg" fill="currentColor" width="1em" height="1em" viewBox="0 0 16 16"><path d="M15.997 13.868l-4.289-4.292c1.485-2.454 1.128-5.601-0.869-7.659-1.997-2.059-5.131-2.512-7.63-1.102C0.711 2.224-0.522 5.141 0.208 7.915c0.73 2.774 3.239 4.706 6.107 4.704 1.151 0.001 2.281-0.316 3.263-0.915l4.294 4.296 2.126-2.132zM2.412 6.314c0.004-2.154 1.749-3.899 3.903-3.904 2.155 0.003 3.9 1.749 3.903 3.904 0 2.156-1.748 3.903-3.903 3.903-2.156 0-3.903-1.748-3.903-3.903z" fill-rule="evenodd" />,<path d="M4.347 5.923h3.911v0.965H4.347v-0.965z" fill-rule="evenodd" /></svg>