<svg xmlns="http://www.w3.org/2000/svg" fill="currentColor" width="1em" height="1em" viewBox="0 0 16 16"><path d="M12.439 7.99h-0.48v-0.658c0-0.571-0.438-0.691-0.805-0.691h-1.289c-0.399 0-0.741-0.198-0.939-0.543-0.157-0.275-0.203-0.612-0.137-0.919-0.427-0.05-0.714-0.237-0.89-0.403-0.285-0.269-0.448-0.643-0.448-1.029 0-0.725 0.494-1.459 1.437-1.459v0.48c-0.757 0-0.957 0.64-0.956 0.979 0 0.254 0.108 0.501 0.297 0.679 0.219 0.206 0.526 0.304 0.889 0.283a0.24 0.24 0 0 1 0.221 0.361c-0.133 0.227-0.132 0.552 0.004 0.79 0.079 0.138 0.233 0.302 0.522 0.301h1.289c0.793 0 1.285 0.448 1.285 1.171v0.657z" />,<path d="M13.187 7.99h-0.48V7.107c0-0.78-0.536-1.608-1.529-1.608h-0.762a0.24 0.24 0 0 1-0.195-0.381c0.174-0.24 0.277-0.534 0.278-0.786 0-0.635-0.504-1.096-1.197-1.096v-0.48c0.956 0 1.677 0.677 1.677 1.576 0 0.224-0.053 0.461-0.152 0.687h0.351c1.258 0 2.009 1.062 2.009 2.088v0.883z m-0.748 1.686h-0.48v-1.449h0.48z m0.751 0h-0.48v-1.449h0.48z m-1.499 0.006v-1.432H9.718l1.433 1.432z m-8.955-1.433v1.433h5.565l-1.432-1.432z" />,<path d="M13.657 2.343C12.146 0.832 10.137 0 8 0S3.854 0.832 2.343 2.343C0.832 3.854 0 5.863 0 8c0 2.137 0.832 4.146 2.343 5.657C3.854 15.168 5.863 16 8 16s4.146-0.832 5.657-2.343C15.168 12.146 16 10.137 16 8c0-2.137-0.832-4.146-2.343-5.657zM14.216 8a6.182 6.182 0 0 1-1.195 3.66L4.339 2.979A6.183 6.183 0 0 1 8 1.784c3.428 0 6.216 2.789 6.216 6.216z m-12.432 0c0-1.39 0.459-2.675 1.232-3.712L11.712 12.983A6.184 6.184 0 0 1 8 14.216c-3.428 0-6.216-2.789-6.216-6.216z" /></svg>