<svg xmlns="http://www.w3.org/2000/svg" fill="currentColor" width="1em" height="1em" viewBox="0 0 16 16"><path d="M1.658 6.512V3.299c0-0.456-0.373-0.826-0.832-0.827A0.827 0.827 0 0 0 0 3.299v4.399c0 0.608 0.219 1.196 0.611 1.655l2.744 2.913c0.272 0.255 0.339 0.483 0.339 0.827V13.624h2.986l0.003-1.262c0-0.481 0.04-1.123-0.562-1.753L2.641 7.114a0.657 0.657 0 0 0-0.46-0.185c-0.364 0-0.661 0.295-0.66 0.659 0 0.157 0.055 0.31 0.157 0.429L3.357 9.816c0.109 0.128 0.293 0.368 0.384 0.662 0.049 0.153 0.063 0.303 0.066 0.474h-0.54c-0.002-0.122-0.011-0.22-0.04-0.311-0.053-0.171-0.158-0.323-0.238-0.422L1.285 8.349c-0.214-0.216-0.331-0.496-0.331-0.791 0-0.442 0.265-0.848 0.705-1.048z m12.581 0V3.299c0-0.456 0.373-0.826 0.832-0.827a0.827 0.827 0 0 1 0.826 0.827v4.399c0 0.608-0.219 1.196-0.611 1.655L12.542 12.266c-0.272 0.256-0.339 0.483-0.339 0.827V13.624H9.218l-0.004-1.262c0-0.481-0.04-1.123 0.562-1.753l3.481-3.495a0.656 0.656 0 0 1 0.459-0.185c0.364 0 0.661 0.295 0.661 0.657a0.667 0.667 0 0 1-0.158 0.43l-1.679 1.798c-0.109 0.128-0.293 0.368-0.384 0.662-0.049 0.154-0.063 0.303-0.066 0.474h0.54c0.003-0.122 0.011-0.22 0.04-0.311 0.053-0.17 0.158-0.323 0.238-0.421L14.612 8.349c0.214-0.216 0.332-0.496 0.332-0.79 0-0.442-0.265-0.848-0.704-1.049z" fill-rule="evenodd" /></svg>