<svg xmlns="http://www.w3.org/2000/svg" fill="currentColor" width="1em" height="1em" viewBox="0 0 16 16"><path d="M5.71 2.9a1.06 1.06 0 1 0 2.12 0 1.06 1.06 0 1 0-2.12 0" />,<path d="M12.443 10.361H10.228c-0.61 0-0.634 0.939 0 0.939h1.135l-2.16 2.159c-0.478 0.478 0.198 1.171 0.706 0.662L12.037 11.989v1.123c-0.003 0.61 0.943 0.634 0.944 0V10.911c0-0.328-0.22-0.55-0.539-0.551z" />,<path d="M14.123 2.99H11.658c-0.51 0-1.165 0.208-1.557 0.6L7.82 5.869v-0.668c0-1.423-2.099-1.408-2.1 0v2.725h0.005L3.741 9.909c-0.187 0.187-0.21 0.195-0.577 0.195 0 0-1.212 0-1.213 0C0.732 10.104 0 11.201 0 12.13s0.732 2.104 2.06 2.105h2.16c0.51 0 1.128-0.195 1.637-0.675l6.324-6.304c0.135-0.12 0.21-0.157 0.442-0.157h1.562c0.752 0 1.815-0.851 1.815-2.08 0-1.215-1.07-2.026-1.877-2.028z m-0.112 3.044h-1.333c-0.565 0-0.815 0.079-1.14 0.404L5.166 12.81c-0.258 0.258-0.585 0.36-1.005 0.361H2.06c-0.54 0-1.016-0.457-1.016-1.057 0-0.6 0.454-0.936 0.923-0.935h1.442c0.42 0 0.696-0.12 0.936-0.36L10.824 4.339c0.267-0.266 0.53-0.3 0.984-0.299H14.026c0.54 0 0.903 0.603 0.903 0.963s-0.258 1.032-0.918 1.031z" /></svg>