<svg xmlns="http://www.w3.org/2000/svg" fill="currentColor" width="1em" height="1em" viewBox="0 0 16 16"><path d="M5.71 2.82a1.06 1.06 0 1 0 2.12 0 1.06 1.06 0 1 0-2.12 0" />,<path d="M9.547 14.252H11.762c0.61 0 0.633-0.939 0-0.938h-1.136L12.785 11.155c0.478-0.479-0.198-1.171-0.707-0.663l-2.128 2.133v-1.124c0.003-0.61-0.944-0.634-0.945 0V13.702c0 0.328 0.221 0.55 0.54 0.55z" />,<path d="M14.123 2.91H11.658c-0.51 0-1.165 0.208-1.557 0.6L7.82 5.789v-0.668c0-1.423-2.099-1.408-2.1 0v2.725h0.004L3.741 9.829c-0.187 0.187-0.21 0.195-0.577 0.195 0 0.001-1.212 0-1.212 0C0.731 10.024 0 11.121 0 12.05s0.732 2.104 2.06 2.105h2.16c0.51 0 1.128-0.195 1.637-0.675l6.324-6.304c0.134-0.12 0.21-0.157 0.441-0.157h1.562c0.751 0 1.815-0.852 1.815-2.08 0-1.215-1.072-2.026-1.877-2.027z m-0.112 3.044h-1.333c-0.565 0-0.815 0.079-1.14 0.404L5.166 12.73c-0.258 0.258-0.585 0.36-1.005 0.361h-2.101c-0.54 0-1.016-0.457-1.016-1.057s0.454-0.936 0.923-0.936h1.442c0.42 0 0.696-0.12 0.936-0.359L10.825 4.259c0.267-0.267 0.53-0.3 0.983-0.3h2.217c0.539 0 0.902 0.603 0.903 0.964s-0.258 1.032-0.918 1.031z" /></svg>