<svg xmlns="http://www.w3.org/2000/svg" fill="currentColor" width="1em" height="1em" viewBox="0 0 16 16"><path d="M6.585 1.714l1.067-0.498-0.498-1.056-1.06 0.489 0.493 1.067zM6.116 2.613l-1.753-0.592-0.596 1.753 1.757 0.59 0.592-1.752zM6.13 3.346l3.207-0.302 0.267 3.057-2.308 0.272-0.935-1.244-0.231-1.783zM10.089 8.459l1.115 0.675 0.647-0.115 0.764-1.263v-0.032l-1.116-0.675-0.646 0.115-0.764 1.263v0.032zM10.56 10.034l2.073 0.277-0.267 2.116-1.466-0.207-0.546-1.057 0.21-1.131z" fill-rule="evenodd" />,<path d="M8.491 10.222l-5.6-6.773L1.671 0.462 0.492 0.103 0.498 14.837c0 0.409 0.329 0.738 0.736 0.738l10.074-0.007-0.824-2.937-1.992-2.409" fill-rule="evenodd" />,<path d="M7.666 7.863l0.487-0.364-0.693-0.916-0.466 0.352v0.93h0.672zM15.049 15.602H13.223v-1.298l0.747-0.75 1.079 0.823v1.227z" fill-rule="evenodd" /></svg>