<svg xmlns="http://www.w3.org/2000/svg" fill="currentColor" width="1em" height="1em" viewBox="0 0 16 16"><path d="M15.909 7.864C14.147 5.194 11.191 3.6 8.001 3.6 4.812 3.6 1.855 5.194 0.091 7.864L0 8.002l0.091 0.137c1.762 2.67 4.719 4.264 7.91 4.264 3.19 0 6.146-1.594 7.908-4.265l0.091-0.136-0.091-0.138z m-14.944 0.138c1.3-1.801 3.205-3.012 5.341-3.437a3.832 3.832 0 0 0-0.978 0.708c-0.727 0.726-1.127 1.692-1.127 2.719a3.821 3.821 0 0 0 1.127 2.72 3.857 3.857 0 0 0 1.041 0.737C4.208 11.037 2.278 9.82 0.966 8.002z m7.076 2.372c-1.31 0-2.374-1.066-2.374-2.375 0-0.634 0.247-1.23 0.694-1.679a2.359 2.359 0 0 1 1.679-0.695c0.634 0 1.23 0.246 1.68 0.695a2.362 2.362 0 0 1 0.694 1.678c0 0.634-0.246 1.23-0.694 1.679a2.364 2.364 0 0 1-1.679 0.695z m1.744 1.047a3.838 3.838 0 0 0 0.981-0.711 3.824 3.824 0 0 0 1.126-2.72c0-1.474-0.836-2.756-2.056-3.4C11.915 5.04 13.765 6.24 15.035 8.002c-1.281 1.775-3.15 2.979-5.25 3.419z" />,<path d="M7.217 8.133c0.433 0 0.784-0.351 0.784-0.785s-0.352-0.785-0.785-0.784a0.784 0.784 0 0 0-0.785 0.784A0.784 0.784 0 0 0 7.216 8.133" /></svg>