<svg xmlns="http://www.w3.org/2000/svg" fill="currentColor" width="1em" height="1em" viewBox="0 0 16 16"><path d="M7.996 16h-0.001c-2.137-0.001-4.145-0.834-5.655-2.345C0.829 12.142-0.002 10.132 0 7.995-0.002 5.861 0.828 3.853 2.338 2.342 3.848 0.832 5.855 0 7.99 0h0.01C10.136 0 12.146 0.832 13.656 2.342c1.51 1.51 2.342 3.518 2.344 5.653-0.002 2.139-0.835 4.148-2.346 5.66-1.512 1.511-3.521 2.344-5.658 2.345z m-0.006-14.161c-1.644 0-3.189 0.64-4.351 1.804-1.162 1.163-1.801 2.708-1.8 4.352-0.001 1.648 0.639 3.196 1.802 4.359 1.163 1.164 2.709 1.805 4.354 1.807 3.398-0.002 6.163-2.768 6.167-6.166-0.002-3.394-2.765-6.155-6.16-6.155h-0.01z" />,<path d="M8.692 7.143V5.35c0.511 0.037 0.91 0.544 0.957 1.062h1.697c0.002-1.741-1.581-2.657-2.672-2.724v-1.175H7.056v1.175c-0.476 0.004-2.622 0.611-2.62 2.558-0.003 1.733 1.545 2.206 2.62 2.358v1.959c-0.783-0.222-0.926-0.824-1.036-1.323h-1.723c0.11 1.949 1.823 2.856 2.759 2.995v1.202h1.636v-1.184c1.294-0.07 2.827-1.187 2.829-2.716-0.002-1.758-1.529-2.256-2.829-2.393zM7.064 6.855c-1.152-0.018-1.175-1.281 0-1.488v1.488z m1.645 3.717V8.883c1.427 0.039 1.586 1.462 0 1.689z" /></svg>