<svg xmlns="http://www.w3.org/2000/svg" fill="currentColor" width="1em" height="1em" viewBox="0 0 16 16"><path d="M14.548 5.951L13.236 2.565C12.991 1.916 12.455 1.365 11.441 1.36H4.548c-1.01 0.005-1.546 0.556-1.795 1.205l-1.312 3.386C0.92 6.019-0.002 6.63 0 7.79V12.102h1.28v1.377c-0.003 1.697 2.398 1.677 2.397 0V12.102h8.635v1.377c0.005 1.677 2.407 1.697 2.408 0V12.102h1.28V7.79c-0.004-1.16-0.926-1.772-1.452-1.838zM2.516 9.5c-0.613 0.002-1.11-0.51-1.107-1.139-0.003-0.634 0.494-1.146 1.107-1.141 0.612-0.005 1.108 0.507 1.108 1.141 0.001 0.629-0.496 1.141-1.108 1.139zM8 5.92H2.806l0.99-2.667c0.119-0.379 0.305-0.65 0.742-0.656H11.462c0.431 0.006 0.617 0.277 0.742 0.656l0.99 2.665H8z m5.484 3.58c-0.618 0.002-1.115-0.51-1.118-1.139 0.003-0.634 0.5-1.146 1.118-1.141 0.607-0.005 1.104 0.507 1.107 1.141-0.004 0.629-0.5 1.141-1.107 1.139z" /></svg>