<svg xmlns="http://www.w3.org/2000/svg" fill="currentColor" width="1em" height="1em" viewBox="0 0 16 16"><path d="M7.275 1.252h5.267l0.848 0.856c0.153 0.155 0.15 0.264 0 0.42l-1.034 1.034-0.606-0.606-0.606 0.606-0.597-0.597-0.582 0.58-0.606-0.606-0.792 0.792H7.275V1.251z m5.655 8.143l-0.986-2.545c-0.184-0.487-0.587-0.901-1.349-0.905h-5.178c-0.758 0.003-1.162 0.418-1.349 0.905l-0.985 2.545C2.691 9.445 1.998 9.905 2 10.776v3.24h0.961v1.033c-0.002 1.274 1.802 1.259 1.802 0v-1.035h6.486v1.034c0.004 1.26 1.808 1.275 1.81 0v-1.034h0.961V10.776c-0.003-0.871-0.696-1.331-1.09-1.381z m-9.04 2.665c-0.461 0.002-0.834-0.383-0.832-0.856-0.002-0.476 0.371-0.86 0.832-0.856 0.46-0.004 0.833 0.381 0.832 0.856 0.001 0.473-0.372 0.857-0.832 0.856z m4.12-2.689H4.108l0.743-2.004c0.09-0.284 0.229-0.488 0.559-0.493h5.201c0.324 0.005 0.464 0.208 0.558 0.493l0.744 2.004H8.01z m4.12 2.689c-0.464 0.002-0.837-0.383-0.84-0.856 0.003-0.476 0.376-0.86 0.84-0.856 0.456-0.004 0.829 0.381 0.832 0.856-0.003 0.473-0.376 0.857-0.832 0.856z" />,<path d="M5.433 0C4.069-0.003 2.964 1.113 2.961 2.488c0.003 1.378 1.108 2.494 2.472 2.496 1.361-0.002 2.466-1.118 2.464-2.496C7.899 1.113 6.794-0.003 5.433 0z m-1.082 3.142c-0.365-0.003-0.658-0.3-0.655-0.662-0.003-0.368 0.29-0.664 0.655-0.662 0.358-0.002 0.652 0.294 0.654 0.662-0.003 0.362-0.296 0.659-0.654 0.662z" /></svg>