<svg xmlns="http://www.w3.org/2000/svg" fill="currentColor" width="1em" height="1em" viewBox="0 0 16 16"><path d="M15.301 16c-0.316 0-0.624-0.074-0.897-0.199a2.16 2.16 0 0 0-0.924-0.209c-0.328 0-0.643 0.077-0.923 0.21-0.277 0.124-0.581 0.198-0.901 0.198-0.316 0-0.625-0.074-0.896-0.198a2.171 2.171 0 0 0-0.927-0.21c-0.326 0-0.643 0.077-0.922 0.21-0.276 0.124-0.581 0.199-0.901 0.198-0.32 0-0.624-0.074-0.897-0.198a2.171 2.171 0 0 0-0.924-0.209c-0.33 0-0.646 0.077-0.925 0.209a2.176 2.176 0 0 1-0.899 0.198c-0.317 0-0.624-0.074-0.899-0.198a2.17 2.17 0 0 0-0.924-0.21c-0.328 0-0.644 0.077-0.924 0.21C1.344 15.926 1.04 16 0.72 16v-1.363a2.155 2.155 0 0 0 0.898-0.198 2.232 2.232 0 0 1 0.924-0.204c0.329 0 0.644 0.076 0.924 0.204a2.164 2.164 0 0 0 0.899 0.198c0.319 0 0.626-0.073 0.899-0.198a2.224 2.224 0 0 1 0.925-0.204c0.328 0 0.645 0.076 0.924 0.204a2.146 2.146 0 0 0 0.898 0.198c0.319 0 0.625-0.073 0.9-0.198a2.224 2.224 0 0 1 0.922-0.204c0.33 0 0.646 0.076 0.926 0.204 0.272 0.125 0.581 0.199 0.897 0.198 0.319 0 0.624-0.073 0.901-0.198a2.218 2.218 0 0 1 0.922-0.204c0.33 0 0.646 0.076 0.925 0.204a2.159 2.159 0 0 0 0.897 0.198V16zM10.237 2.425c2.443 1.148 5.344 4.21 4.963 7.885H10.237V2.425zM14.151 11.051h-11.044v2.027c0.124 0.033 0.248 0.069 0.36 0.124 0.274 0.121 0.581 0.195 0.898 0.195 0.32 0 0.626-0.075 0.899-0.195a2.17 2.17 0 0 1 0.925-0.209c0.328 0 0.645 0.077 0.925 0.209 0.273 0.121 0.578 0.195 0.897 0.195 0.319 0 0.624-0.075 0.9-0.195a2.176 2.176 0 0 1 0.922-0.209c0.33 0 0.646 0.077 0.927 0.209 0.272 0.121 0.581 0.195 0.896 0.195 0.062 0 0.12-0.016 0.178-0.022 0.007 0 0.007 0.007 0.014 0.007 0.04 0 0.07-0.018 0.11-0.018 0.073-0.01 0.145-0.019 0.218-0.036 0.653-0.137 1.075-0.651 1.075-0.651l1.27-1.625h-0.37v0zM9.477 0.011c-0.02-0.014-0.047-0.017-0.068 0.007L9.408 0.019c0 0-0.001 0-0.001 0.001L1.104 10.268c-0.031 0.038-0.014 0.102 0.042 0.102h8.303c0.033 0 0.06-0.027 0.06-0.06V0.062a0.053 0.053 0 0 0-0.032-0.051z" /></svg>