<svg xmlns="http://www.w3.org/2000/svg" fill="currentColor" width="1em" height="1em" viewBox="0 0 16 16"><path d="M5.758 6.784a0.259 0.259 0 0 0 0.258-0.259l0.004-1.624a0.259 0.259 0 0 0-0.258-0.258H2.032a0.259 0.259 0 0 0-0.258 0.258l-0.003 1.625A0.259 0.259 0 0 0 2.029 6.784h3.729z m5.339-2.148c0.065 0 0.116-0.054 0.116-0.12a0.12 0.12 0 0 0-0.021-0.069l-0.589-0.847a0.124 0.124 0 0 0-0.095-0.043h-1.298c-0.116 0-0.21 0.094-0.21 0.21v0.658c0 0.116 0.094 0.211 0.211 0.211h1.886zM10.704 3.044c0.12 0 0.229 0.054 0.302 0.138l1.123 1.613c0.026 0.04 0.044 0.084 0.043 0.135 0 0.12-0.102 0.222-0.225 0.222l-1.93-0.004a1.202 1.202 0 0 0-1.203 1.203v1.956H0.001V4.268S-0.072 3.04 1.197 3.04l9.507 0.004z" />,<path d="M13.383 8.568l-2.486-0.003a0.398 0.398 0 0 1-0.4-0.4v-1.28c0-0.222 0.178-0.4 0.397-0.4h1.352c0.069 0 0.131 0.033 0.174 0.084l1.141 1.647c0.025 0.036 0.043 0.08 0.044 0.13 0 0.124-0.098 0.222-0.222 0.222z m2.163 1.374v-0.846a0.789 0.789 0 0 0-0.52-0.742l-0.734-0.247-1.465-2.115a0.392 0.392 0 0 0-0.302-0.142H10.203a0.683 0.683 0 0 0-0.683 0.683l0.003 2.479H0.001V10.8a0.47 0.47 0 0 0 0.469 0.469h1.257c0.069-1.043 1.116-1.872 2.177-1.872s2.108 0.829 2.181 1.872h4.667c0.076-1.036 1.12-1.857 2.18-1.857 1.058 0 2.101 0.821 2.177 1.857h0.418A0.471 0.471 0 0 0 16 10.8v-0.858h-0.454z" />,<path d="M12.925 12.239a0.625 0.625 0 0 0 0-1.25c-0.345 0-0.622 0.28-0.621 0.625s0.276 0.625 0.621 0.625z m-1.439-0.625c0-0.796 0.647-1.439 1.439-1.439 0.796 0 1.443 0.644 1.443 1.439s-0.646 1.439-1.442 1.439c-0.792 0-1.439-0.643-1.44-1.439z m-7.582 0.6a0.625 0.625 0 1 0 0-1.25 0.625 0.625 0 0 0 0 1.25z m-1.439-0.626c0-0.796 0.647-1.439 1.439-1.439 0.796 0 1.439 0.643 1.44 1.439s-0.643 1.439-1.44 1.44c-0.792 0-1.439-0.643-1.439-1.44z" /></svg>