<svg xmlns="http://www.w3.org/2000/svg" fill="currentColor" width="1em" height="1em" viewBox="0 0 16 16"><path d="M8.424 3.754V3.428h0.425V3.222c0-0.366 0.32-0.662 0.716-0.662 0.395 0 0.714 0.296 0.713 0.662v0.206h0.416V3.754h-2.272zM12.175 10.464c-0.839 0-1.519 0.68-1.519 1.519a1.519 1.519 0 0 0 1.518 1.519c0.838 0 1.517-0.68 1.517-1.519 0-0.839-0.68-1.519-1.518-1.519z m0 2.246a0.726 0.726 0 0 1 0-1.453 0.726 0.726 0 0 1 0.726 0.726 0.726 0.726 0 0 1-0.727 0.727zM3.478 10.449c-0.838 0-1.518 0.681-1.518 1.519a1.518 1.518 0 0 0 1.518 1.519c0.839 0 1.519-0.679 1.519-1.519 0-0.838-0.68-1.519-1.519-1.519z m0.003 2.247a0.726 0.726 0 0 1 0-1.452 0.726 0.726 0 0 1 0 1.452z" />,<path d="M14.724 7.663c0.454 0.088 0.725 0.284 0.93 1.404l0.324 2.021c0.117 0.658-0.255 0.898-0.718 0.898H14.147c0-1.09-0.883-1.976-1.972-1.976-1.09 0-1.973 0.886-1.973 1.976H5.446c0-1.09-0.883-1.976-1.972-1.976-1.09 0-1.973 0.886-1.974 1.976H0.578C0.253 11.986 0 11.74 0 11.422V4.778c0-0.362 0.286-0.653 0.636-0.653h11.94c0.454 0 0.786 0.225 0.95 0.62l1.198 2.918zM10.744 4.802v2.76H13.936l-1.12-2.76H10.744zM7.889 7.208V5.515H6.196V7.208H4.502v1.694h1.694v1.694h1.693V8.902h1.694V7.208H7.889z" /></svg>