<svg xmlns="http://www.w3.org/2000/svg" fill="currentColor" width="1em" height="1em" viewBox="0 0 16 16"><path d="M13.383 6.888l-2.486-0.003a0.399 0.399 0 0 1-0.4-0.4V5.205c0-0.222 0.178-0.4 0.397-0.4h1.352c0.069 0 0.131 0.033 0.174 0.084l1.141 1.647c0.025 0.036 0.043 0.08 0.044 0.13 0 0.124-0.098 0.222-0.222 0.222z m2.163 0.208c0-0.332-0.208-0.628-0.52-0.742l-0.734-0.247L12.827 3.992A0.392 0.392 0 0 0 12.525 3.85H10.203a0.683 0.683 0 0 0-0.683 0.683l0.003 2.479H0.001V9.92a0.47 0.47 0 0 0 0.469 0.469h1.257c0.069-1.043 1.116-1.872 2.177-1.872s2.108 0.829 2.181 1.872h4.667c0.076-1.036 1.12-1.857 2.18-1.857 1.058 0 2.101 0.821 2.177 1.857h0.418A0.47 0.47 0 0 0 16 9.92v-0.858h-0.454v-1.966z" fill-rule="evenodd" />,<path d="M12.925 11.359a0.625 0.625 0 0 0 0-1.25c-0.345 0-0.622 0.28-0.621 0.625s0.276 0.625 0.621 0.625z m-1.439-0.625c0-0.796 0.647-1.439 1.439-1.439 0.796 0 1.443 0.644 1.443 1.439s-0.646 1.439-1.442 1.439c-0.792 0-1.439-0.643-1.44-1.439z m-7.582 0.6a0.625 0.625 0 1 0 0-1.25 0.625 0.625 0 0 0 0 1.25z m-1.439-0.626c0-0.796 0.647-1.439 1.439-1.439 0.796 0 1.439 0.643 1.44 1.439s-0.643 1.439-1.44 1.44c-0.792 0-1.439-0.643-1.439-1.44z" fill-rule="evenodd" /></svg>