<svg xmlns="http://www.w3.org/2000/svg" fill="currentColor" width="1em" height="1em" viewBox="0 0 16 16"><path d="M12.57 11.336c0.436 0 0.787-0.358 0.788-0.801 0-0.437-0.351-0.796-0.788-0.796-0.438 0-0.789 0.358-0.788 0.796 0 0.443 0.351 0.801 0.788 0.801z m-1.822-0.801c0-1.014 0.814-1.839 1.823-1.839 1.004 0 1.818 0.825 1.818 1.839 0 1.019-0.814 1.843-1.818 1.843-1.008 0-1.822-0.825-1.823-1.843z" />,<path d="M15.279 8.566l-0.004-1.856c0-0.739-0.65-0.661-0.65-0.661H10.946L9.604 3.76H8.814l1.342 2.289-1.016 1.739-2.318-0.004c-0.801-1.662-2.428-1.558-2.428-1.558H0v3.95h0.628c0.084-1.344 1.361-2.409 2.71-2.409 1.349 0 2.629 1.068 2.71 2.409l3.82 0.004c0.081-1.345 1.361-2.413 2.71-2.413 1.349 0 2.633 1.068 2.71 2.415l0.237 0.003c0.263 0 0.475-0.216 0.476-0.482v-1.138h-0.721v0.001z" />,<path d="M3.331 11.336c0.437 0 0.791-0.358 0.79-0.801 0-0.437-0.354-0.796-0.791-0.796-0.434 0-0.789 0.358-0.788 0.796 0 0.443 0.355 0.801 0.788 0.801z m-1.819-0.801c0-1.014 0.815-1.839 1.819-1.839 1.008 0 1.82 0.825 1.819 1.839 0 1.019-0.813 1.843-1.82 1.843-1.004 0-1.819-0.825-1.819-1.843z" /></svg>