<svg xmlns="http://www.w3.org/2000/svg" fill="currentColor" width="1em" height="1em" viewBox="0 0 16 16"><path d="M14.555 6.667L13.239 3.302c-0.243-0.635-0.779-1.18-1.791-1.177H9.598v-0.88c-0.004-0.35-0.194-0.528-0.505-0.525h-2.157C6.622 0.717 6.432 0.895 6.432 1.245v0.88h-1.88c-1.007-0.003-1.543 0.542-1.791 1.177L1.445 6.667c-0.518 0.062-1.44 0.668-1.445 1.811V12.752h1.286v1.366c-0.003 1.675 2.398 1.655 2.395 0V12.752h8.638v1.366c0.003 1.655 2.404 1.675 2.405 0V12.752H16V8.478c0.002-1.144-0.922-1.749-1.445-1.811z m-12.032 3.473c-0.614 0-1.111-0.507-1.108-1.128-0.003-0.629 0.494-1.136 1.108-1.138 0.611 0.002 1.107 0.509 1.108 1.138-0.001 0.621-0.498 1.128-1.108 1.128z m5.482-3.552H2.81l0.989-2.603c0.121-0.37 0.307-0.637 0.743-0.643h6.926c0.43 0.006 0.616 0.274 0.742 0.643L13.2 6.588H8.005z m5.481 3.552c-0.616 0-1.112-0.507-1.108-1.128-0.004-0.629 0.493-1.136 1.109-1.138 0.61 0.002 1.106 0.509 1.108 1.138-0.003 0.621-0.499 1.128-1.108 1.128z" /></svg>