<svg xmlns="http://www.w3.org/2000/svg" fill="currentColor" width="1em" height="1em" viewBox="0 0 16 16"><path d="M8.699 10.18a1.46 1.46 0 0 0 1.132-1.423 1.459 1.459 0 0 0-1.46-1.459 1.459 1.459 0 0 0-1.459 1.459 1.456 1.456 0 0 0 0.563 1.152L0 8.257v3.941l8.187 0.005c0.368 0 0.691-0.192 0.874-0.48a1.037 1.037 0 0 0 1.75 0 1.036 1.036 0 0 0 1.75 0c0.184 0.288 0.507 0.48 0.875 0.48s0.691-0.192 0.875-0.481a1.036 1.036 0 0 0 0.875 0.481 1.036 1.036 0 0 0 0.816-0.396L8.699 10.181zM7.608 8.757a0.763 0.763 0 1 1 1.526 0 0.763 0.763 0 0 1-1.526 0z" />,<path d="M14.878 9.648l-4.899-1.066a1.628 1.628 0 0 1-0.044 0.588l4.819 1.049 0.125-0.571M0.726 6.571l-0.124 0.571L6.778 8.485a1.616 1.616 0 0 1 0.204-0.553l-6.256-1.361M5.384 5.107l1.685-0.954L6.892 3.84 4.856 4.993 1.5 4.267c0.023 2.088 2.313 2.694 2.313 2.694l3.357 0.715a1.612 1.612 0 0 1 1.201-0.535c0.719 0 1.329 0.469 1.539 1.118l4.232 0.901 1.055-1.931L5.384 5.107" /></svg>