<svg xmlns="http://www.w3.org/2000/svg" fill="currentColor" width="1em" height="1em" viewBox="0 0 16 16"><path d="M16 1.427V0.88L0 6.998v0.548zM7.019 3.594c0.478 0 0.868-0.395 0.868-0.881 0-0.485-0.39-0.876-0.868-0.876-0.48 0-0.87 0.391-0.87 0.876 0 0.486 0.39 0.881 0.872 0.881zM12.408 8.155H8.531V4.976l-0.542 0.219V8.155H4.076c-0.306 0-0.556 0.252-0.556 0.563V14.618c0 0.31 0.25 0.564 0.556 0.563h8.333c0.307 0 0.557-0.253 0.557-0.563V8.717c0-0.31-0.251-0.562-0.558-0.562z m-5.915 3.204c0 0.168-0.133 0.307-0.299 0.307H4.36c-0.166 0-0.303-0.138-0.303-0.306V9.51c0-0.168 0.137-0.306 0.302-0.306H6.194c0.166 0 0.299 0.138 0.299 0.306v1.849z m2.981-0.023a0.302 0.302 0 0 1-0.303 0.304H7.342a0.301 0.301 0 0 1-0.303-0.302V9.483c0-0.168 0.135-0.301 0.303-0.301H9.171c0.167 0 0.303 0.134 0.303 0.301v1.853z m2.958 0c0 0.17-0.131 0.304-0.299 0.304H10.299a0.302 0.302 0 0 1-0.303-0.302V9.483c0-0.168 0.137-0.301 0.303-0.301h1.834c0.168 0 0.3 0.134 0.3 0.301v1.853zM9.096 2.811c0.48 0 0.87-0.395 0.87-0.881s-0.39-0.882-0.87-0.882c-0.478 0-0.868 0.395-0.868 0.882s0.39 0.881 0.868 0.881z" /></svg>