<svg xmlns="http://www.w3.org/2000/svg" fill="currentColor" width="1em" height="1em" viewBox="0 0 16 16"><path d="M12.676 8.32c-1.028 0-1.863 0.836-1.864 1.867 0 1.031 0.836 1.86 1.867 1.859S14.542 11.218 14.542 10.187c0-1.031-0.836-1.867-1.866-1.867M1.982 10.578c0.185 0.832 0.93 1.484 1.821 1.484 0.9 0 1.653-0.64 1.825-1.486H1.982z" fill-rule="evenodd" />,<path d="M14.32 8.213c-0.332-1.502-1.822-1.333-1.822-1.333l-0.454-1.458c-0.014-0.062 0.076-0.089 0.077-0.089l0.768-0.231-0.107-1.081L11.881 3.947C11.623 3.973 11.563 3.733 11.563 3.733l-0.107-0.373C11.383 3.07 11.129 3.102 11.129 3.102H9.333c-0.256 0.19 0.044 0.343 0.045 0.343h1.102c0.103-0.018 0.164 0.107 0.164 0.107l0.604 3.627c-1.358 0.907-1.582 1.959-1.582 1.959H7.614c-1.28-0.965-0.711-2.35-0.711-2.35h0.498v-1.007H0.88v1.007h0.996c-1.387 1.326-1.28 3.285-1.28 3.285h9.656A2.428 2.428 0 0 1 14.222 8.309s0.142 0.103 0.098-0.097" fill-rule="evenodd" /></svg>