<svg xmlns="http://www.w3.org/2000/svg" fill="currentColor" width="1em" height="1em" viewBox="0 0 16 16"><path d="M12.16 7.692l-0.293 0.501s-0.053 0.108-0.223 0.108H10.791l-0.487-1.447c0.038-0.007 0.078-0.015 0.105-0.019 0.305-0.055 0.409-0.055 0.636 0.061 0 0 0.971 0.501 1.037 0.539 0.082 0.04 0.133 0.16 0.078 0.256z m-2.332-0.745l0.459 1.354H6.895c-0.074 0-0.152-0.044-0.152-0.16v-0.183c0-0.099 0.042-0.16 0.131-0.203 0.103-0.048 0.718-0.293 1.089-0.391a40.023 40.023 0 0 1 1.865-0.417z m1.789 3.792c0.442-0.07 1.276-0.204 1.755-0.34 0.208-0.053 0.419-0.268 0.48-0.392l1.144-1.744v2.183c0 0.246 0.366 0.246 0.366 0V8.193h0.156c0.438 0 0.438-0.657 0-0.657h-0.156V5.356c0-0.246-0.366-0.246-0.366 0v2.18h-0.106c-0.39-0.038-2.224-0.234-2.578-0.417-0.356-0.187-0.729-0.398-1.077-0.577-0.32-0.16-0.506-0.149-0.853-0.09-0.196 0.038-1.349 0.253-2.467 0.537-1.38 0.349-3.084 1.152-3.084 1.152l-1.948 0.007c-0.446-0.129-0.621-0.963-0.815-1.33L1.577 5.828c-0.036-0.082-0.126-0.107-0.211-0.11l-1.241-0.075c-0.187-0.011-0.116 0.145-0.09 0.235l0.851 3.337c0.089 0.373 0.607 0.729 0.971 0.767l5.013 0.769h0.063l4.685-0.012z" fill-rule="evenodd" /></svg>