<svg xmlns="http://www.w3.org/2000/svg" fill="currentColor" width="1em" height="1em" viewBox="0 0 16 16"><path d="M12.209 8.39L12.048 5.996c-0.029-0.347-0.32-0.616-0.675-0.616H4.785a0.676 0.676 0 0 0-0.677 0.616l-0.157 2.395h8.258z m1.387 2.457c0-0.491-0.396-0.892-0.887-0.891a0.894 0.894 0 0 0-0.892 0.891c0 0.491 0.4 0.888 0.892 0.888s0.888-0.396 0.888-0.888M10.999 12.181V9.937a0.405 0.405 0 0 0-0.404-0.405h-5.048c-0.217 0-0.398 0.181-0.399 0.405V12.181h5.851z m-7.55-0.446a0.888 0.888 0 0 0 0.888-0.888c0-0.491-0.399-0.892-0.888-0.891-0.491 0-0.89 0.4-0.89 0.891a0.888 0.888 0 0 0 0.89 0.888M11.373 4.75c0.682 0 1.243 0.529 1.299 1.198l0.165 2.467L14.478 9.408l-0.004 4.168H13.741l0.004 1.363c0 0.59-0.477 1.061-1.065 1.061a1.058 1.058 0 0 1-1.06-1.061v-1.363H4.535l0.005 1.363c0 0.59-0.477 1.061-1.066 1.061a1.058 1.058 0 0 1-1.059-1.061v-1.363H1.684L1.68 9.408l1.641-0.992 0.165-2.468c0.052-0.669 0.613-1.198 1.299-1.197H11.373z" />,<path d="M13.301 0c0.648 0 1.172 0.525 1.173 1.169v7.567l-1.08-0.663-0.14-2.209c-0.097-0.952-0.904-1.697-1.881-1.698H4.784c-0.98 0-1.782 0.745-1.878 1.698l-0.143 2.209L1.68 8.736 1.684 1.169C1.684 0.525 2.208 0 2.852 0h10.449z" /></svg>