<svg xmlns="http://www.w3.org/2000/svg" fill="currentColor" width="1em" height="1em" viewBox="0 0 16 16"><path d="M7.288 1.124a0.565 0.565 0 0 1-0.562-0.562C6.726 0.248 6.979-0.004 7.288 0a0.555 0.555 0 0 1 0.562 0.562c0.002 0.309-0.25 0.561-0.562 0.562z m1.498 0c0.31-0.001 0.562-0.253 0.562-0.562 0-0.313-0.252-0.565-0.562-0.562A0.556 0.556 0 0 0 8.224 0.562c-0.002 0.309 0.25 0.561 0.562 0.562z m2.231 11.366c0.78-0.13 1.557-0.944 1.555-1.938v-7.254c0.002-1.023-0.86-1.963-2.028-1.962H5.537c-1.174-0.001-2.036 0.939-2.035 1.962v7.255c-0.001 0.994 0.776 1.808 1.555 1.938L2.72 16h1.351l1.669-2.459H10.333L12.01 16h1.344L11.017 12.49zM6.718 2.085c0-0.182 0.155-0.331 0.333-0.334h1.972c0.179 0.003 0.334 0.152 0.334 0.334v0.57a0.334 0.334 0 0 1-0.334 0.334H7.052c-0.187 0-0.333-0.153-0.334-0.334v-0.57zM5.488 11.432a0.895 0.895 0 0 1-0.887-0.896c-0.001-0.491 0.398-0.89 0.887-0.887a0.891 0.891 0 0 1 0.896 0.887c-0.002 0.493-0.402 0.892-0.896 0.896z m0.114-4.714c-0.561-0.003-1.019-0.387-1.018-1.018v-1.303c0.004-0.544 0.355-1.017 1.018-1.018h4.869c0.664 0.001 1.015 0.474 1.018 1.018v1.302c0.002 0.631-0.456 1.015-1.018 1.018h-4.869zM9.674 10.536c-0.002-0.491 0.397-0.89 0.887-0.887a0.891 0.891 0 0 1 0.896 0.887c-0.003 0.493-0.402 0.892-0.896 0.896a0.894 0.894 0 0 1-0.887-0.895z" /></svg>