<svg xmlns="http://www.w3.org/2000/svg" fill="currentColor" width="1em" height="1em" viewBox="0 0 16 16"><path d="M13.999 2.388c-0.178-0.893-0.747-1.249-1.605-1.605C11.555 0.431 9.539 0.013 8.048 0 6.554 0.013 4.537 0.431 3.692 0.783c-0.852 0.356-1.421 0.711-1.596 1.605L1.455 7.319v6.802h1.105v1.061c-0.004 1.304 1.898 1.304 1.899 0v-1.062H11.636v1.06c-0.002 1.304 1.901 1.304 1.899 0v-1.06h1.106V7.318l-0.642-4.931z m-8.666-1.141h5.43c0.531-0.002 0.531 0.8 0 0.802H5.333c-0.534-0.003-0.534-0.804 0-0.802zM3.505 11.99c-0.501-0.002-0.91-0.411-0.909-0.918-0.001-0.501 0.408-0.91 0.909-0.909 0.507 0 0.916 0.409 0.918 0.909a0.922 0.922 0 0 1-0.918 0.918zM7.981 7.835H3.14c-0.473 0.005-0.572-0.336-0.526-0.677l0.499-3.584c0.069-0.432 0.216-0.718 0.785-0.722H12.199c0.565 0.004 0.713 0.29 0.784 0.722l0.5 3.584c0.043 0.341-0.056 0.682-0.527 0.677H7.981z m4.601 4.156c-0.501-0.003-0.91-0.411-0.91-0.919a0.912 0.912 0 0 1 0.91-0.91c0.507 0 0.916 0.409 0.918 0.909a0.921 0.921 0 0 1-0.918 0.918zM7.981-0.001c0.022 0 0.045 0.001 0.067 0.001 0.022 0 0.045-0.001 0.067-0.001h-0.135z" /></svg>