<svg xmlns="http://www.w3.org/2000/svg" fill="currentColor" width="1em" height="1em" viewBox="0 0 16 16"><path d="M5.942 5.059s0.24-0.368-0.043-0.512H3.845s-0.33 0.171 0.013 0.728l2.086-0.216zM10.288 6.04s0.101 0.141-0.006 0.224l-2.605 2.016 0.315 0.442L10.576 6.736s0.042-0.083 0.17 0.088l0.022-0.272-0.48-0.512z" />,<path d="M7.811 4.501s-0.112 0.013-0.099-0.08V4.08s0.042-0.088 0.112-0.08h2.421s0.571 0.013 0.214 0.501c0 0-0.293 0.235-0.149 0.589L12.608 9.165l-0.4 0.232-1.941-3.328s0.035-0.054-0.264-0.048h-4.224l1.162 2.107-0.471 0.288L5.12 6.096s-0.048-0.053-0.085 0.016l-1.142 2.528s-0.029 0.069 0.086 0.085l2.298 0.008 0.057 0.472H3.45s-0.342 0-0.208-0.341l1.484-3.408s0.022 0-0.006-0.058l-0.155-0.252 0.64-0.08 0.102 0.2s0.027 0.086 0.128 0.073h4.218s0.16 0.032 0.16-0.16c0-0.192-0.125-0.234 0.025-0.56 0 0 0.056-0.112-0.064-0.112H7.808" />,<path d="M3.437 6.96a2.064 2.064 0 0 0 0 4.128 2.064 2.064 0 0 0 0-4.128zM12.288 6.96a2.064 2.064 0 1 0 2.064 2.064 2.064 2.064 0 0 0-2.064-2.064z" />,<path d="M7.131 8.341a0.688 0.688 0 1 0 0 1.376 0.688 0.688 0 0 0 0-1.376z" /></svg>