<svg xmlns="http://www.w3.org/2000/svg" fill="currentColor" width="1em" height="1em" viewBox="0 0 16 16"><path d="M6.605 6.908a0.541 0.541 0 0 0 0.539-0.54v-0.899a0.541 0.541 0 0 0-0.539-0.538H2.546a0.54 0.54 0 0 0-0.538 0.538v0.9a0.541 0.541 0 0 0 0.538 0.539h4.059z m5.357-0.004a0.539 0.539 0 0 0 0.539-0.539v-0.896a0.539 0.539 0 0 0-0.538-0.538H10.09a0.54 0.54 0 0 0-0.539 0.538v0.896a0.54 0.54 0 0 0 0.538 0.539H11.962zM4.997 11.181H1.929c-1.064 0-1.925-0.863-1.925-1.925L0 5.893C0 4.45 1.17 3.28 2.611 3.28h8.882c1.442 0 2.613 1.17 2.613 2.613l0.003 4.747h1.36c0.293 0 0.531 0.243 0.531 0.537H9.103c-0.067-1.079-0.957-1.934-2.053-1.934-1.097 0-1.986 0.855-2.054 1.938" />,<path d="M7.05 11.954c0.357 0 0.644-0.286 0.645-0.642s-0.286-0.644-0.644-0.645c-0.354 0-0.642 0.288-0.642 0.645s0.288 0.643 0.643 0.642m-1.483-0.642c0-0.821 0.662-1.484 1.482-1.484s1.482 0.663 1.482 1.484c0 0.819-0.662 1.484-1.482 1.483A1.481 1.481 0 0 1 5.568 11.312" /></svg>