<svg xmlns="http://www.w3.org/2000/svg" fill="currentColor" width="1em" height="1em" viewBox="0 0 16 16"><path d="M12.655 5.134V3.126H12.472c-0.55 0-0.993 0.45-0.993 1.004 0 0.556 0.443 1.003 0.993 1.004h0.183z m-1.497-0.458L10.29 2.924C10.097 2.563 9.724 2.32 9.287 2.32h-2.014C7.083 2.32 6.933 2.474 6.933 2.665c0 0.189 0.15 0.343 0.339 0.343l2.015-0.001c0.164 0 0.345 0.112 0.416 0.268l0.553 1.119 0.901 0.284z m4.002 1.877c0.262 0.075 0.454 0.322 0.454 0.61l-1.466 0.002c-1.931 0-3.499 1.587-3.499 3.539H5.872c0-1.569-1.01-2.898-2.404-3.364L0.835 6.464l0.436-0.674a0.865 0.865 0 0 1 0.724-0.391c0.068 0 0.131 0.006 0.187 0.018l5.864 1.838a0.771 0.771 0 0 0 0.227 0.036c0.265 0 0.496-0.136 0.633-0.343l1.333-1.948 4.921 1.554z" />,<path d="M13.617 12.22c0.496 0 0.893-0.406 0.893-0.901 0-0.501-0.398-0.903-0.893-0.903-0.49 0-0.887 0.402-0.887 0.903 0 0.495 0.398 0.901 0.887 0.901M11.232 11.319c0-1.335 1.068-2.411 2.385-2.411C14.931 8.908 16 9.984 16 11.319c0 1.331-1.069 2.411-2.383 2.411-1.316 0-2.385-1.08-2.385-2.411m-8.603 0.733c0.538 0 0.979-0.442 0.979-0.99 0-0.548-0.442-0.992-0.979-0.991-0.544 0-0.981 0.443-0.981 0.991 0 0.548 0.437 0.99 0.981 0.99M0 11.06c0-1.461 1.174-2.65 2.623-2.65 1.451 0 2.621 1.189 2.621 2.65 0 1.465-1.17 2.654-2.621 2.654C1.174 13.714 0 12.525 0 11.06" /></svg>