<svg xmlns="http://www.w3.org/2000/svg" fill="currentColor" width="1em" height="1em" viewBox="0 0 16 16"><path d="M12.393 6.969a3.464 3.464 0 1 0 0 6.927 3.464 3.464 0 0 0 0-6.927z m0 5.284a1.82 1.82 0 1 1 0-3.639 1.82 1.82 0 0 1 0 3.639zM2.352 10.017a1.937 1.937 0 1 0 0 3.874 1.937 1.937 0 0 0 0-3.874z m-0.001 2.919a0.981 0.981 0 1 1 0-1.961 0.981 0.981 0 0 1 0 1.961z" fill-rule="evenodd" />,<path d="M12.393 5.997c-0.28 0-0.555 0.026-0.821 0.076-0.091-1.511-0.535-1.848-0.667-2.311-0.045-0.163 0.093-0.482 0.093-0.783 0-0.059-0.017-0.787-0.64-0.787-0.598 0-0.745 0.452-0.745 0.452V3.625c0 0.084 0.073 0.153 0.165 0.153h0.216l-0.666 1.34-1.026 0.808-0.292-0.34-3.722 0.862V2.192H3.873v4.353l-0.034 0.007-3.411 0.175V9.048l0.459 1.139a2.284 2.284 0 0 1 1.465-0.53 2.295 2.295 0 0 1 1.918 1.037h4.31a3.695 3.695 0 0 1-0.01-0.261c0-2.108 1.715-3.823 3.823-3.823 0.8 0 1.545 0.248 2.159 0.671l0.351-0.505a4.415 4.415 0 0 0-2.51-0.778z" fill-rule="evenodd" /></svg>