<svg xmlns="http://www.w3.org/2000/svg" fill="currentColor" width="1em" height="1em" viewBox="0 0 16 16"><path d="M15.367 13.469a2.272 2.272 0 0 1-0.914-0.196 2.226 2.226 0 0 0-0.939-0.209c-0.334 0-0.654 0.077-0.938 0.209a2.254 2.254 0 0 1-0.912 0.196c-0.32 0-0.634-0.074-0.911-0.196a2.25 2.25 0 0 0-0.938-0.209 2.234 2.234 0 0 0-0.939 0.209c-0.279 0.123-0.588 0.196-0.912 0.196-0.324 0-0.637-0.074-0.912-0.196a2.237 2.237 0 0 0-0.939-0.209c-0.336 0-0.656 0.077-0.94 0.209a2.253 2.253 0 0 1-0.912 0.196 2.238 2.238 0 0 1-0.909-0.196c-0.288-0.132-0.609-0.209-0.938-0.209-0.335 0-0.656 0.077-0.939 0.209-0.281 0.123-0.59 0.196-0.914 0.197v-1.367c0.324 0 0.633-0.074 0.914-0.196a2.225 2.225 0 0 1 0.939-0.209c0.33 0 0.65 0.077 0.938 0.209a2.235 2.235 0 0 0 0.909 0.196c0.324 0 0.637-0.074 0.912-0.196a2.24 2.24 0 0 1 0.94-0.209c0.334 0 0.654 0.077 0.939 0.209a2.254 2.254 0 0 0 0.912 0.196c0.324 0 0.633-0.074 0.912-0.196a2.236 2.236 0 0 1 0.938-0.209c0.332 0 0.652 0.077 0.939 0.209 0.277 0.123 0.59 0.196 0.911 0.197a2.256 2.256 0 0 0 0.912-0.196 2.237 2.237 0 0 1 0.938-0.209c0.336 0 0.656 0.077 0.939 0.209a2.269 2.269 0 0 0 0.914 0.196v1.366zM12.038 5.135l-0.29 0.496s-0.053 0.107-0.22 0.107H10.683l-0.482-1.432c0.038-0.007 0.077-0.015 0.104-0.019 0.302-0.055 0.405-0.055 0.629 0.06 0 0 0.961 0.496 1.027 0.533 0.081 0.04 0.132 0.158 0.077 0.255m-2.308-0.737l0.454 1.34H6.826c-0.074 0-0.15-0.043-0.151-0.159v-0.181c0-0.098 0.041-0.158 0.13-0.201 0.102-0.047 0.711-0.29 1.078-0.387a39.622 39.622 0 0 1 1.847-0.412M6.752 9.632l0.545-1.468h3.773l0.544 1.462-4.862 0.006z m9.101-0.013l-3.803 0.003-0.549-1.47c0.437-0.07 1.263-0.202 1.738-0.337 0.205-0.053 0.415-0.266 0.475-0.388l1.132-1.727v2.162c0 0.243 0.362 0.243 0.362 0V5.631h0.155c0.434 0 0.434-0.65 0-0.65h-0.155V2.822c0-0.243-0.362-0.243-0.362 0v2.158h-0.105c-0.386-0.038-2.201-0.232-2.552-0.412-0.352-0.185-0.722-0.394-1.067-0.571-0.317-0.158-0.501-0.147-0.844-0.089-0.194 0.038-1.336 0.251-2.442 0.531-1.366 0.345-3.053 1.14-3.054 1.14l-1.928 0.008c-0.441-0.128-0.614-0.954-0.806-1.318L1.562 3.29c-0.036-0.081-0.124-0.106-0.21-0.11l-1.228-0.073c-0.185-0.011-0.115 0.143-0.089 0.232l0.842 3.303c0.088 0.37 0.601 0.722 0.962 0.76l4.962 0.762h0.063l-0.545 1.468-3.901 0.003c-0.096 0-0.173 0.053-0.174 0.146v0.249c0 0.104 0.062 0.173 0.174 0.207 0.32 0.096 1.283 0.36 2.433 0.64 0.04-0.015 0.081-0.022 0.121-0.041a2.684 2.684 0 0 1 1.142-0.255c0.394 0 0.78 0.085 1.136 0.251 0.224 0.104 0.471 0.155 0.714 0.155s0.483-0.051 0.707-0.151a2.738 2.738 0 0 1 1.144-0.254c0.387 0 0.784 0.089 1.134 0.25a1.738 1.738 0 0 0 0.715 0.155c0.243 0 0.49-0.051 0.707-0.151 0.36-0.166 0.754-0.254 1.144-0.254 0.37 0 0.741 0.081 1.08 0.228 0.948-0.313 1.283-0.569 1.283-0.57 0.074-0.06 0.123-0.123 0.122-0.218v-0.257c0-0.096-0.053-0.147-0.147-0.146" /></svg>