<svg xmlns="http://www.w3.org/2000/svg" fill="currentColor" width="1em" height="1em" viewBox="0 0 16 16"><path d="M1.76 3.926C0.788 3.928 0.002 4.714 0 5.687c0.002 0.966 0.788 1.752 1.76 1.752 0.968 0 1.754-0.785 1.752-1.752 0.002-0.973-0.784-1.76-1.752-1.761z m0 2.875c-0.619 0-1.119-0.501-1.122-1.114a1.126 1.126 0 0 1 1.122-1.122c0.615 0.002 1.115 0.502 1.115 1.122 0.001 0.613-0.499 1.114-1.115 1.114z m5.645 4.515c-1.341-0.005-1.341 1.802 0 1.8h7.768c1.305 0.001 1.305-1.805 0-1.8H7.405z m2.301-6.219V3.459H9.012v1.638z" />,<path d="M10.764 3.507v-0.356h-2.802v0.356z" />,<path d="M11.006 2.909h4.482c0.596-0.003 0.596 0.852 0 0.848H11.006c-0.577 0.004-0.577-0.851 0-0.848zM3.246 2.909h4.425c0.596-0.003 0.596 0.852 0 0.848h-4.425c-0.634 0.004-0.642-0.851 0-0.848zM16.069 8.756l-0.896-2.165c-0.318-0.794-1.008-1.536-2.245-1.534H1.817c-0.706-0.003-0.857 0.917-0.235 1.155l5.112 2.035 0.452 1.13c0.093 0.354 0.38 0.774 0.953 0.776h6.953c0.794-0.005 1.334-0.653 1.018-1.396zM10.909 7.674h-1.195V5.751H10.909V7.674z m1.898 0h-1.187V5.751h1.187V7.674z m0.727 0.008V5.833c0.371 0.088 0.741 0.419 0.985 0.969l0.379 0.88H13.534z" /></svg>