<svg xmlns="http://www.w3.org/2000/svg" fill="currentColor" width="1em" height="1em" viewBox="0 0 16 16"><path d="M15.781 13.589a2.31 2.31 0 0 1-0.969-0.213 2.386 2.386 0 0 0-1.002-0.225c-0.356 0-0.699 0.083-1 0.225a2.334 2.334 0 0 1-0.973 0.213 2.354 2.354 0 0 1-0.973-0.213 2.368 2.368 0 0 0-0.998-0.225c-0.357 0-0.696 0.083-1.003 0.225a2.316 2.316 0 0 1-0.97 0.213 2.32 2.32 0 0 1-0.971-0.213A2.387 2.387 0 0 0 5.92 13.151c-0.356 0-0.7 0.083-1 0.225a2.326 2.326 0 0 1-0.972 0.213c-0.347 0-0.676-0.078-0.975-0.213a2.36 2.36 0 0 0-0.997-0.225c-0.357 0-0.698 0.083-1.003 0.225a2.325 2.325 0 0 1-0.971 0.213v-1.472a2.352 2.352 0 0 0 0.971-0.213 2.388 2.388 0 0 1 1.003-0.226c0.354 0 0.697 0.083 0.998 0.224 0.299 0.134 0.628 0.213 0.975 0.213 0.346 0 0.677-0.079 0.971-0.213a2.366 2.366 0 0 1 1-0.224c0.357 0 0.698 0.083 1.003 0.224a2.349 2.349 0 0 0 0.972 0.213 2.346 2.346 0 0 0 0.969-0.213c0.307-0.141 0.646-0.224 1.004-0.224 0.354 0 0.696 0.083 0.998 0.224 0.299 0.134 0.63 0.213 0.973 0.213a2.365 2.365 0 0 0 0.973-0.213 2.367 2.367 0 0 1 1-0.225c0.356 0 0.697 0.083 1.002 0.224a2.339 2.339 0 0 0 0.97 0.214v1.472zM0.008 7.264L0.002 10.74c0.345 0 0.676-0.077 0.971-0.211a2.378 2.378 0 0 1 1.002-0.225c0.354 0 0.697 0.083 0.998 0.225a2.384 2.384 0 0 0 0.975 0.211c0.345 0 0.676-0.077 0.972-0.211A2.356 2.356 0 0 1 5.92 10.304c0.356 0 0.697 0.083 1.002 0.225a2.352 2.352 0 0 0 0.971 0.211c0.343 0 0.677-0.077 0.97-0.211 0.307-0.142 0.646-0.225 1.004-0.225 0.354 0 0.696 0.083 0.998 0.225a2.388 2.388 0 0 0 0.973 0.211c0.098 0 0.192-0.021 0.287-0.031 0.173-0.039 0.349-0.056 0.518-0.124l0.013-0.006c1.253-0.512 2.335-1.787 3.009-2.736l0.337-0.579H0.008zM12.515 3.352C12.13 2.488 11.094 2.562 11.094 2.562H0.002L0 6.688h13.906L12.515 3.352zM5.324 5.794c0 0.159-0.13 0.291-0.289 0.29h-1.282c-0.159 0-0.287-0.132-0.287-0.29V3.819a0.288 0.288 0 0 1 0.288-0.288h1.281a0.29 0.29 0 0 1 0.29 0.288v1.975z m2.665 0c0 0.159-0.13 0.291-0.287 0.29h-1.291c-0.16 0-0.288-0.132-0.288-0.29V3.819a0.288 0.288 0 0 1 0.287-0.288h1.291A0.288 0.288 0 0 1 7.987 3.819v1.975z m-5.32 0c0 0.159-0.131 0.291-0.288 0.29H1.09c-0.159 0-0.287-0.132-0.287-0.29V3.819c0-0.158 0.128-0.288 0.287-0.288h1.291a0.29 0.29 0 0 1 0.288 0.288v1.975zM8.934 3.53h2.313l0.019-0.002h0.015c0.024-0.002 0.634-0.026 0.839 0.434l0.883 2.123H9.994L8.934 3.53z" /></svg>