<svg xmlns="http://www.w3.org/2000/svg" fill="currentColor" width="1em" height="1em" viewBox="0 0 16 16"><path d="M6.841 8.863l-0.614-1.566c-0.119-0.296-0.371-0.55-0.845-0.553h-0.875V6.336c0-0.161-0.09-0.244-0.23-0.245h-1.023c-0.146 0.002-0.235 0.085-0.238 0.245v0.407h-0.883c-0.471 0.003-0.723 0.257-0.837 0.553l-0.622 1.566c-0.243 0.03-0.676 0.312-0.675 0.846V11.696H0.598v0.637c0.001 0.779 1.13 0.77 1.129 0V11.696H5.789v0.637c0.001 0.77 1.13 0.779 1.128 0V11.696h0.607V9.708c-0.004-0.534-0.437-0.816-0.683-0.845zM1.182 10.483a0.529 0.529 0 0 1-0.522-0.53 0.529 0.529 0 0 1 0.523-0.53c0.288 0.003 0.522 0.239 0.523 0.53-0.001 0.291-0.234 0.527-0.522 0.53z m2.58-1.659H1.313l0.468-1.205c0.059-0.176 0.146-0.301 0.353-0.3h3.256c0.202-0.002 0.289 0.123 0.345 0.3l0.469 1.205h-2.442z m2.572 1.659c-0.285-0.003-0.519-0.239-0.522-0.53 0.003-0.291 0.237-0.527 0.522-0.53a0.526 0.526 0 0 1 0.522 0.53 0.527 0.527 0 0 1-0.521 0.53zM11.892 3.12c0.014 0 0.029 0.001 0.043 0.001 0.014 0 0.028-0.001 0.042-0.001h-0.085z m3.716 1.451c-0.112-0.541-0.463-0.757-0.99-0.975C14.099 3.385 12.856 3.13 11.935 3.121c-0.92 0.01-2.163 0.264-2.683 0.475-0.525 0.218-0.877 0.434-0.983 0.975l-0.4 2.994V11.696h0.683v0.645c-0.003 0.791 1.17 0.791 1.174 0V11.696h4.423v0.645c-0.003 0.791 1.17 0.791 1.166 0V11.696H16V7.565L15.608 4.571zM10.265 3.88h3.339c0.333-0.001 0.333 0.485 0 0.484h-3.339c-0.331 0.001-0.331-0.485 0-0.484zM9.136 10.398a0.553 0.553 0 0 1-0.56-0.552c-0.001-0.305 0.251-0.553 0.56-0.553 0.312 0 0.564 0.248 0.561 0.554 0.004 0.307-0.248 0.556-0.561 0.553z m2.757-2.518H8.914c-0.294 0.002-0.356-0.204-0.33-0.414l0.307-2.173c0.046-0.262 0.137-0.437 0.483-0.438h5.12c0.349 0.001 0.44 0.175 0.483 0.438l0.308 2.172c0.027 0.21-0.035 0.416-0.331 0.415H11.893z m2.84 2.518c-0.31 0.003-0.562-0.245-0.56-0.553-0.002-0.305 0.25-0.553 0.56-0.552 0.311 0 0.563 0.246 0.561 0.552 0.003 0.307-0.249 0.555-0.561 0.552z" /></svg>